<svg viewBox="0 0 22 26" fill="none" xmlns="http://www.w3.org/2000/svg">
    <path opacity="0.3" d="M18.2692 2.85639H17.6196V1.78898C17.6246 1.50205 17.5436 1.22187 17.3902 0.99559C17.2367 0.769306 17.0201 0.610708 16.777 0.546501C15.8025 0.313805 13.9428 0 10.9898 0C8.03682 0 6.17891 0.313805 5.20263 0.546501C4.95978 0.611131 4.74367 0.769893 4.59057 0.996137C4.43746 1.22238 4.3567 1.50234 4.36184 1.78898V2.85639H3.71222C1.65943 2.85639 0.000122852 4.88232 0.000122852 7.37366C-0.00522828 8.1572 0.164316 8.92922 0.492533 9.61584C0.82075 10.3025 1.29666 10.8807 1.87473 11.2953L4.37112 13.0245V13.6009C4.3659 14.2291 4.50171 14.8482 4.7654 15.3983C5.0291 15.9485 5.41176 16.411 5.87637 16.7413L8.02568 18.2228C8.43185 18.5122 8.76642 18.917 8.99722 19.3982C9.22801 19.8794 9.34725 20.4208 9.34348 20.9703V23.1052L5.70191 25.0265V26H16.2962V25.0265L12.6565 23.1052V20.9703C12.6527 20.4208 12.772 19.8794 13.0028 19.3982C13.2336 18.917 13.5682 18.5122 13.9743 18.2228L16.1236 16.7413C16.5882 16.411 16.9709 15.9485 17.2346 15.3983C17.4983 14.8482 17.6341 14.2291 17.6289 13.6009V13.0245L20.1253 11.2953C20.7033 10.8807 21.1792 10.3025 21.5075 9.61584C21.8357 8.92922 22.0052 8.1572 21.9999 7.37366C21.9962 4.88232 20.3257 2.85639 18.2692 2.85639ZM4.3637 11.2825L2.48537 9.98029C2.10129 9.7046 1.78511 9.3202 1.56706 8.86384C1.34902 8.40747 1.2364 7.89438 1.23996 7.37366C1.23996 5.71703 2.35359 4.36997 3.71408 4.36997H4.3637V11.2825ZM19.4998 9.98029L17.6215 11.2825V4.36997H18.2711C19.6353 4.36997 20.7452 5.71703 20.7452 7.37366C20.7473 7.89314 20.6338 8.40462 20.4155 8.85938C20.1971 9.31414 19.8813 9.69707 19.4979 9.97174L19.4998 9.98029Z" fill="white"/>
</svg>
