<svg viewBox="0 0 24 33" fill="none" xmlns="http://www.w3.org/2000/svg">
    <path opacity="0.3" d="M14.6784 3.98654V2.01386C14.6779 1.78624 14.6243 1.56227 14.5223 1.36163C14.4202 1.16098 14.2729 0.989815 14.0933 0.863276C13.9137 0.736737 13.7072 0.658705 13.4922 0.635995C13.2772 0.613285 13.0601 0.646617 12.8602 0.733071L0 6.31335V33H1.26686V21.0569L9.31772 17.5605V19.5373C9.3182 19.7649 9.37181 19.9889 9.47385 20.1895C9.57589 20.3902 9.72322 20.5613 9.90285 20.6878C10.0825 20.8143 10.2889 20.8924 10.5039 20.9151C10.7189 20.9379 10.936 20.9045 11.1359 20.8181L24 15.2377V0L14.6784 3.98654Z" fill="white"/>
</svg>
