<svg width="130" height="130" viewBox="0 0 130 130" fill="none" xmlns="http://www.w3.org/2000/svg">
<path d="M46.9796 57.8228L65.3846 39.4179L83.7982 57.8308L94.5071 47.1218L65.3846 18.0001L36.2715 47.1131L46.98 57.822L46.9796 57.8228ZM18 65.3846L28.7093 54.6738L39.4178 65.3823L28.7085 76.0916L18 65.3846ZM46.9796 72.9476L65.3846 91.3513L83.7978 72.9389L94.5124 83.6421L94.5071 83.6478L65.3846 112.769L36.2715 83.6561L36.2563 83.6409L46.9808 72.9464L46.9796 72.9476ZM91.3513 65.3892L102.061 54.6799L112.769 65.3884L102.06 76.0977L91.3513 65.3892Z" fill="#F3BA2F"/>
<path d="M76.2432 65.3758H76.2478L65.3817 54.5093L57.3501 62.5384L56.4274 63.4615L54.5244 65.3648L54.5093 65.3796L54.5244 65.3951L65.3817 76.2536L76.2485 65.3871L76.2538 65.3811L76.244 65.3758" fill="#F3BA2F"/>
</svg>
