<svg width="133" height="38" viewBox="0 0 133 38" fill="none" xmlns="http://www.w3.org/2000/svg">
<g clip-path="url(#clip0)">
<path d="M16.7418 0.791083L0.775293 17.0885C-0.258708 18.1439 -0.25871 19.8551 0.775286 20.9105L16.7418 37.208C17.7758 38.2634 19.4523 38.2634 20.4863 37.208L36.4529 20.9105C37.4869 19.8551 37.4868 18.1439 36.4529 17.0885L20.4863 0.791083C19.4523 -0.264345 17.7758 -0.264345 16.7418 0.791083Z" fill="#F0B80B"/>
<path d="M18.8475 10.9058C19.7148 10.978 20.9259 11.017 22.1179 11.1905C23.6176 11.4108 25.0732 11.8398 26.3207 12.7816C27.207 13.4563 27.8891 14.3104 28.1279 15.453C28.2615 16.0945 28.3743 16.7438 28.4813 17.3913C28.5347 17.713 28.3819 17.8885 28.061 17.8338C27.1058 17.6779 26.1679 17.5141 25.2261 17.3327C25.0725 17.292 24.9375 17.1983 24.844 17.0675C24.5383 16.6366 24.0321 16.4826 23.6424 16.8063C23.2527 17.13 22.8649 17.1046 22.4141 17.0909C20.328 17.0266 18.2399 17.0012 16.152 16.9661C15.7699 16.9661 15.4547 17.0149 15.1968 16.5489C14.8663 15.9522 13.8156 16.04 13.4775 16.6444C13.3977 16.8049 13.2769 16.9405 13.128 17.0369C12.9791 17.1333 12.8075 17.187 12.6312 17.1924C11.7295 17.284 10.8336 17.4244 9.93573 17.5453C9.88034 17.5453 9.82687 17.5589 9.77141 17.5628C9.06844 17.6096 8.94808 17.4887 8.99582 16.7653C9.08753 15.3204 9.60144 14.051 10.6406 13.0605C11.315 12.419 12.1689 12.029 13.04 11.7228C14.8033 11.1105 16.6525 11.017 18.8475 10.9058ZM16.811 12.3897C17.1224 12.1635 17.472 12.0387 17.5752 11.8047C17.6783 11.5708 17.3459 11.5356 17.153 11.5337C16.8645 11.5337 16.5379 11.5337 16.4996 11.9237C16.4862 12.0426 16.6639 12.1752 16.811 12.3897ZM20.328 11.3952L19.7148 11.7853C19.9403 11.933 20.1854 12.0472 20.4426 12.1245C20.5648 12.144 20.7291 11.9119 20.8743 11.7931L20.328 11.3952ZM13.2597 13.039L14.0391 12.4014C13.9226 12.3137 13.8137 12.1655 13.6895 12.1518C13.3514 12.1108 12.912 12.38 12.9502 12.5847C12.9693 12.7017 13.0993 12.8089 13.2559 13.0293L13.2597 13.039ZM18.261 12.8265C18.452 12.7992 18.5513 12.8148 18.6029 12.7699C18.7514 12.6317 18.893 12.4859 19.027 12.3331C18.8572 12.2625 18.6837 12.2013 18.5074 12.1498C18.467 12.1416 18.4255 12.1417 18.3851 12.1501C18.3447 12.1584 18.3064 12.175 18.2724 12.1986C18.1386 12.3136 18.011 12.4359 17.8904 12.5652L18.261 12.8265ZM23.2947 12.2045C23.4571 12.6276 23.7532 12.8362 24.1085 12.7661C24.2243 12.7418 24.3259 12.6717 24.3912 12.571C24.4199 12.5223 24.3358 12.3643 24.2652 12.3019C24.1353 12.1802 23.9706 12.104 23.7953 12.0848C23.62 12.0654 23.4432 12.104 23.2909 12.1947L23.2947 12.2045ZM21.3271 12.9259C21.5181 12.8967 21.6289 12.9142 21.6939 12.8616C21.8257 12.7543 22.0282 12.5983 22.0186 12.4716C21.9976 12.2239 21.7779 12.1635 21.5468 12.2454C21.4525 12.2653 21.3626 12.3023 21.2812 12.3546C21.1851 12.4528 21.0982 12.5598 21.0214 12.6744L21.3271 12.9259ZM15.4681 13.1209C15.6591 12.9259 15.8807 12.8128 15.8768 12.6998C15.8654 12.3097 15.4948 12.3643 15.256 12.3429C15.1261 12.3312 14.981 12.4969 14.8434 12.5827L15.4681 13.1209Z" fill="#1E2125"/>
<path d="M17.8348 27.094C16.3544 27.0102 14.87 26.981 13.3972 26.8289C11.5671 26.6339 10.0446 25.8715 9.23267 24.06C9.10519 23.7361 9.03716 23.3911 9.03204 23.0422C9.03204 22.9388 9.26512 22.7204 9.38356 22.7262C10.3139 22.7789 11.2404 22.8862 12.1707 22.9505C13.0476 23.009 13.9244 23.0363 14.8012 23.0734C15.084 23.085 15.2884 23.1474 15.3877 23.477C15.4832 23.709 15.6177 23.9221 15.7851 24.1068C16.1347 24.5728 16.5301 24.6157 16.9867 24.2589C17.1529 24.1629 17.3069 24.0463 17.4452 23.9118C17.9686 23.2137 18.664 23.0987 19.4816 23.0948C21.9805 23.0722 24.4741 22.8578 26.9414 22.4533C27.2375 22.4065 27.526 22.3129 27.8202 22.2583C28.1659 22.1959 28.3207 22.346 28.3321 22.7165C28.3761 24.0951 27.568 25.2728 26.3588 25.8812C24.4102 26.8561 22.3127 26.9244 20.2247 27.0628C19.4319 27.1155 18.6334 27.0628 17.8368 27.0628L17.8348 27.094Z" fill="#1E2125"/>
<path d="M28.5325 19.8852C27.8658 19.6259 27.2297 19.4192 26.6221 19.1326C26.2153 18.9376 25.8867 18.8459 25.4875 19.1618C25.2949 19.3156 25.0593 19.4026 24.8149 19.4099C24.5706 19.4173 24.3303 19.3447 24.1292 19.2028C23.9836 19.1012 23.8119 19.0456 23.6355 19.0432C23.4591 19.0408 23.286 19.0915 23.1377 19.1892C22.8084 19.3661 22.4428 19.4612 22.0706 19.4666C21.6985 19.472 21.3304 19.3876 20.9962 19.2203C20.8434 19.1303 20.6722 19.078 20.4961 19.0675C20.3199 19.057 20.1438 19.0887 19.9819 19.1599C19.8095 19.2527 19.613 19.2884 19.4199 19.2618C19.2267 19.2352 19.0465 19.1478 18.9044 19.0117C18.8005 18.8987 18.6613 18.8263 18.5107 18.8067C18.3601 18.7871 18.2075 18.8216 18.0792 18.9044C17.755 19.0604 17.4011 19.1413 17.0428 19.1413C16.6844 19.1413 16.3306 19.0604 16.0065 18.9044C15.6989 18.7758 15.4945 18.7407 15.2423 19.0858C15.0628 19.3354 14.6826 19.4758 14.3636 19.5713C14.0691 19.6729 13.7573 19.7119 13.4474 19.6857C13.1376 19.6595 12.8363 19.5689 12.5621 19.4193C12.4003 19.3276 12.2212 19.2721 12.0368 19.2563C11.8524 19.2405 11.6669 19.2648 11.4923 19.3276C10.9383 19.4836 10.3844 19.5031 9.85709 19.193C9.56097 19.0195 9.3241 19.193 9.05856 19.3412C8.71748 19.5334 8.34867 19.669 7.96583 19.7429C7.85691 19.7406 7.75044 19.7096 7.65674 19.6528C7.56304 19.5961 7.48524 19.5156 7.43097 19.4193C7.41721 19.3021 7.43237 19.1833 7.47506 19.0736C7.51782 18.9639 7.58672 18.8669 7.67549 18.7914C8.19127 18.5164 8.73763 18.2162 9.30115 18.1381C10.6384 17.9432 12.0043 17.8691 13.3606 17.7716C16.3484 17.5238 19.3508 17.5193 22.3392 17.7579C23.8674 17.8963 25.3958 18.0289 26.924 18.2259C27.5391 18.3058 28.1332 18.5515 28.7369 18.7212C29.0789 18.8187 29.3673 19.0312 29.226 19.3978C29.1495 19.6044 28.8095 19.702 28.5325 19.8852Z" fill="#1E2125"/>
<path d="M14.6334 22.4923C12.9141 22.387 11.212 22.2856 9.50036 22.1705C9.1527 22.1491 9.00753 21.8703 9.02275 21.3906C9.03612 21.0318 9.24626 20.9304 9.54431 20.9499C10.8433 21.0357 12.1423 21.1449 13.4433 21.2112C16.6393 21.3516 19.8353 21.3945 23.0255 21.0533C24.5653 20.8875 26.1088 20.7588 27.6505 20.6165C27.9389 20.5892 28.2579 20.5287 28.3286 20.9499C28.3783 21.2424 28.0993 21.5817 27.7345 21.6421C26.9138 21.8085 26.0847 21.929 25.2511 22.0029C22.2079 22.1569 19.1628 22.2642 16.1197 22.3812C15.6249 22.4006 15.132 22.3812 14.6373 22.3812L14.6334 22.4923Z" fill="#1E2125"/>
<path d="M44.4888 21.8254V13.8912H47.3313C47.8664 13.8819 48.4007 13.9381 48.9227 14.0589C49.3034 14.1454 49.6675 14.2956 50.0001 14.5035C50.2521 14.6599 50.4596 14.8812 50.6018 15.145C50.7199 15.3776 50.7815 15.6357 50.7814 15.8977V16.1863C50.7873 16.3722 50.7581 16.5575 50.6954 16.7322C50.64 16.8802 50.5525 17.0136 50.4395 17.1222C50.1502 17.3708 49.8122 17.553 49.448 17.6564C49.8298 17.7407 50.1804 17.9341 50.4585 18.2142C50.6861 18.4948 50.8014 18.8527 50.7814 19.2164V19.6629C50.7924 19.9854 50.7175 20.305 50.5648 20.5875C50.4121 20.8701 50.1872 21.1051 49.9141 21.2677C49.3359 21.6382 48.4113 21.8241 47.1403 21.8254H44.4888ZM46.4354 14.9617V17.1436H47.3122C47.9605 17.1436 48.396 17.0494 48.6189 16.8609C48.7326 16.7574 48.8216 16.6287 48.8792 16.4848C48.9368 16.3408 48.9615 16.1854 48.9513 16.0302C48.96 15.8744 48.9295 15.719 48.8626 15.5787C48.7958 15.4384 48.6947 15.318 48.5692 15.2289C48.3228 15.0494 47.8739 14.9617 47.232 14.9617H46.4354ZM46.4354 18.1479V20.6827H47.2741C47.5853 20.6918 47.8964 20.6577 48.1986 20.5814C48.3872 20.5335 48.5607 20.4376 48.7029 20.3025C48.8157 20.1882 48.8894 20.0398 48.9131 19.8794C48.9401 19.7027 48.9529 19.5239 48.9513 19.3451C48.954 19.1685 48.9347 18.9922 48.894 18.8206C48.8564 18.6739 48.7765 18.5422 48.6648 18.4423C48.5127 18.3273 48.337 18.2492 48.1509 18.2142C47.8682 18.1597 47.5807 18.1355 47.2931 18.142L46.4354 18.1479Z" fill="#F0B80B"/>
<path d="M58.3124 16.1747V21.8296H56.3677V21.2836H56.3333C56.1146 21.4707 55.8666 21.6191 55.5997 21.7223C55.2478 21.8487 54.8761 21.9075 54.5032 21.8958C54.2601 21.8951 54.0178 21.8709 53.7792 21.8236C53.5513 21.7803 53.3319 21.6993 53.1296 21.5838C52.9466 21.4793 52.7902 21.3324 52.6731 21.1548C52.5539 20.9636 52.494 20.74 52.5011 20.5133V16.1747H54.4421V20.0863C54.439 20.183 54.4602 20.2789 54.5037 20.3649C54.5471 20.451 54.6114 20.5242 54.6904 20.5777C54.9023 20.7083 55.1482 20.7702 55.3953 20.7551C55.764 20.7551 56.0181 20.6888 56.1594 20.5601C56.2337 20.4838 56.2909 20.3921 56.3272 20.2911C56.3634 20.1901 56.3779 20.0824 56.3696 19.9752V16.1747H58.3124Z" fill="#F0B80B"/>
<path d="M59.915 21.8254V16.1706H61.8596V16.7731C62.2323 16.5742 62.6217 16.4098 63.0231 16.2818C63.4822 16.1536 63.9571 16.0939 64.4329 16.1043V17.3074C64.2392 17.2625 64.0412 17.2402 63.8426 17.2411C63.6223 17.2432 63.4026 17.2635 63.1855 17.3015C62.9635 17.3385 62.7479 17.4081 62.5455 17.5082C62.3551 17.5953 62.1861 17.7245 62.0507 17.8865C61.9193 18.0513 61.8514 18.2593 61.8596 18.4715V21.8254H59.915Z" fill="#F0B80B"/>
<path d="M67.1604 22.4827C67.1763 22.5628 67.2096 22.6383 67.2575 22.7037C67.3053 22.7692 67.3672 22.8229 67.4377 22.861C67.6658 22.9944 67.9278 23.0562 68.1905 23.0385C68.4312 23.0599 68.6726 22.9995 68.8761 22.8669C68.9426 22.8153 68.9964 22.7486 69.0323 22.6721C69.0689 22.5955 69.0875 22.5113 69.0862 22.4262V21.3128H69.0483C68.8222 21.5036 68.5629 21.6492 68.2842 21.7417C67.9477 21.847 67.5966 21.8977 67.2448 21.8919C66.4309 21.8919 65.8648 21.7132 65.5465 21.3557C65.428 21.2234 65.3434 21.0633 65.3 20.8896C65.2424 20.6452 65.2167 20.3941 65.2236 20.1428V17.9979C65.216 17.6958 65.2352 17.3936 65.2809 17.0951C65.3573 16.7227 65.663 16.4458 66.1769 16.2586C66.528 16.1465 66.8964 16.0976 67.2641 16.1143C67.4709 16.1121 67.6777 16.1271 67.8826 16.1591C68.0422 16.1852 68.1991 16.2264 68.3507 16.282C68.4837 16.3299 68.6121 16.3913 68.7331 16.4653L69.0962 16.6934V16.1806H71.0407V22.51C71.0373 22.7162 70.9815 22.9178 70.8784 23.095C70.75 23.3131 70.5698 23.4948 70.355 23.6234C70.0724 23.8031 69.7632 23.9348 69.44 24.0135C69.0091 24.1215 68.5668 24.172 68.1233 24.1636C67.8167 24.1626 67.5108 24.1345 67.2082 24.0797C66.9043 24.0293 66.6091 23.9341 66.3316 23.797C66.0623 23.678 65.8188 23.5057 65.6152 23.29C65.4133 23.0602 65.2807 22.7759 65.2332 22.4711L67.1604 22.4827ZM67.1604 20.0863C67.1604 20.1742 67.1783 20.2613 67.2129 20.3419C67.2468 20.4225 67.298 20.4948 67.3612 20.5542C67.4929 20.6888 67.7436 20.7493 68.114 20.7493C68.3574 20.7594 68.5981 20.6992 68.8096 20.5757C68.89 20.5353 68.9585 20.473 69.0077 20.3957C69.0563 20.3184 69.0836 20.2289 69.0862 20.137V17.9472C69.0869 17.8466 69.0629 17.7474 69.0164 17.6588C68.9692 17.5701 68.9013 17.495 68.8189 17.4403C68.6101 17.3008 68.3634 17.2326 68.114 17.2452C67.8553 17.222 67.5973 17.2977 67.3898 17.4578C67.314 17.5277 67.2541 17.6136 67.2149 17.7097C67.175 17.8057 67.157 17.9094 67.1604 18.0135V20.0863Z" fill="#F0B80B"/>
<path d="M78.2579 19.4289H74.4062V20.1972C74.4062 20.2841 74.4301 20.3693 74.476 20.4427C74.5219 20.5159 74.5871 20.5743 74.6642 20.6106C74.881 20.7167 75.1197 20.7663 75.3598 20.7549C75.7282 20.7549 75.9729 20.6925 76.0933 20.5599C76.2004 20.4579 76.2768 20.3266 76.3127 20.1816H78.2579C78.2579 20.6782 77.9972 21.0792 77.4765 21.3847C77.1912 21.5536 76.8827 21.6772 76.5615 21.7513C76.1678 21.8453 75.7641 21.8905 75.3598 21.8858C74.8331 21.8983 74.3078 21.8232 73.805 21.6635C73.4366 21.5502 73.1001 21.3498 72.8228 21.0785C72.6858 20.9356 72.5881 20.7589 72.5382 20.5657C72.485 20.3582 72.4597 20.1445 72.4617 19.9301V18.0699C72.4597 17.8555 72.485 17.6416 72.5382 17.4342C72.5881 17.241 72.6858 17.0643 72.8228 16.9213C73.1001 16.6501 73.4366 16.4497 73.805 16.3364C74.3078 16.1767 74.8331 16.1017 75.3598 16.1141C75.7674 16.11 76.1738 16.1551 76.5708 16.2486C76.896 16.3218 77.2078 16.4454 77.4958 16.6152C78.0052 16.9506 78.2599 17.3705 78.2599 17.8749L78.2579 19.4289ZM74.4062 18.5378H76.3167V17.8905C76.3214 17.7935 76.2994 17.6971 76.2542 17.6119C76.209 17.5266 76.1412 17.4557 76.0587 17.4069C75.8419 17.3004 75.6045 17.2451 75.3638 17.2451C75.1231 17.2451 74.885 17.3004 74.6682 17.4069C74.5857 17.4557 74.5186 17.5266 74.4727 17.6119C74.4275 17.6971 74.4055 17.7935 74.4102 17.8905L74.4062 18.5378Z" fill="#F0B80B"/>
<path d="M79.689 21.8254V16.1706H81.6334V16.7732C82.0065 16.5743 82.3955 16.4098 82.7972 16.2818C83.2567 16.1538 83.7322 16.0941 84.209 16.1043V17.3074C84.0148 17.2627 83.8159 17.2404 83.6164 17.2411C83.3963 17.2433 83.1769 17.2635 82.9594 17.3016C82.7373 17.3386 82.5219 17.4082 82.3197 17.5083C82.1288 17.5954 81.9599 17.7246 81.8249 17.8866C81.6933 18.0513 81.6254 18.2593 81.6334 18.4715V21.8254H79.689Z" fill="#F0B80B"/>
<path d="M91.3976 16.1746H89.4525V15.9192C89.4525 15.7899 89.4239 15.6623 89.3693 15.5457C89.3148 15.4291 89.2357 15.3262 89.1373 15.2445C88.9271 15.0548 88.5747 14.9605 88.0792 14.9618C87.8591 14.9549 87.6403 14.9846 87.4295 15.0495C87.2846 15.0989 87.1496 15.1742 87.0305 15.2718C86.9341 15.3615 86.8616 15.475 86.8204 15.6013C86.7812 15.7275 86.7619 15.8591 86.7632 15.9913C86.7612 16.1219 86.7705 16.2525 86.7918 16.3813C86.8111 16.4867 86.861 16.5838 86.9348 16.6602C87.0305 16.7543 87.1442 16.8268 87.2693 16.8727C87.4648 16.9469 87.6649 17.0062 87.8691 17.0502L89.3574 17.3953C89.7178 17.469 90.0696 17.5835 90.4061 17.7365C90.6422 17.8436 90.8556 17.9966 91.0345 18.187C91.1735 18.3644 91.2719 18.5717 91.3211 18.7933C91.3743 19.0497 91.4003 19.3113 91.3976 19.5734C91.4003 19.8919 91.3417 20.2079 91.2254 20.5035C91.1076 20.7926 90.9168 21.0444 90.6714 21.2327C90.3569 21.4642 90.0004 21.6305 89.6227 21.7221C89.1053 21.8516 88.5733 21.9119 88.0407 21.9015C87.5984 21.9043 87.1569 21.8559 86.7246 21.7573C86.3569 21.671 86.0038 21.5304 85.6759 21.34C85.4119 21.192 85.1785 20.9933 84.9883 20.755C84.8221 20.5452 84.731 20.2838 84.7303 20.014V19.585H86.6748V19.9419C86.6801 20.0543 86.712 20.1637 86.7665 20.2614C86.8211 20.3589 86.8982 20.4419 86.99 20.5035C87.2001 20.6712 87.5519 20.755 88.0487 20.755C88.306 20.763 88.5627 20.7348 88.8127 20.6712C88.9737 20.6294 89.1213 20.5469 89.2423 20.4313C89.3414 20.3313 89.4052 20.2001 89.4219 20.0589C89.4432 19.8979 89.4531 19.7357 89.4525 19.5734C89.4551 19.4015 89.4425 19.2299 89.4146 19.0605C89.3946 18.9406 89.3414 18.829 89.2616 18.7388C89.1579 18.6506 89.0375 18.5843 88.9085 18.5438C88.7609 18.4911 88.568 18.4366 88.3353 18.3761L86.9428 18.0426C86.1035 17.8412 85.5409 17.5753 85.2556 17.2451C84.9644 16.9012 84.8108 16.4576 84.8261 16.0031C84.8247 15.7074 84.8972 15.4163 85.0362 15.1567C85.1858 14.8765 85.402 14.6386 85.6646 14.4645C85.9758 14.2513 86.321 14.095 86.6847 14.0024C87.1682 13.8791 87.6649 13.8215 88.163 13.8308C88.6099 13.8258 89.0555 13.8782 89.489 13.9868C89.8521 14.0754 90.2013 14.2139 90.5284 14.3982C91.101 14.7551 91.4049 15.1645 91.4049 15.6248L91.3976 16.1746Z" fill="#F0B80B"/>
<path d="M102.131 16.1747L99.8391 21.8295H98.1194L97.0514 18.4756H97.0228L95.9548 21.8295H94.2358L91.9436 16.1747H94.0024L95.1854 19.6846H95.2233L96.3106 16.1747H97.8388L98.8682 19.6846H98.9068L100.07 16.1747H102.131Z" fill="#F0B80B"/>
<path d="M106.517 21.8254V21.2404H106.479C106.247 21.4357 105.99 21.5972 105.715 21.7201C105.363 21.8466 104.991 21.9034 104.618 21.8877C104.385 21.8871 104.152 21.8662 103.923 21.8254C103.687 21.7855 103.458 21.7085 103.245 21.5972C103.017 21.4945 102.826 21.323 102.696 21.1058C102.566 20.8886 102.505 20.6362 102.521 20.3824C102.515 20.0963 102.56 19.8116 102.655 19.542C102.751 19.2902 102.925 19.0768 103.149 18.9336C103.435 18.7563 103.753 18.6378 104.083 18.5846C104.581 18.4981 105.086 18.459 105.591 18.4676H105.801C105.871 18.4634 105.941 18.4634 106.011 18.4676C106.086 18.476 106.163 18.48 106.238 18.4793C106.327 18.4793 106.423 18.4832 106.525 18.491V17.906C106.526 17.8152 106.508 17.7251 106.472 17.6422C106.436 17.5593 106.382 17.4855 106.315 17.4263C106.175 17.2996 105.921 17.2313 105.551 17.2313C105.311 17.2284 105.074 17.2776 104.855 17.3756C104.761 17.4128 104.676 17.4697 104.606 17.5426C104.535 17.6155 104.48 17.7028 104.444 17.7987H102.557C102.607 17.2937 102.901 16.8862 103.434 16.5742C103.721 16.4134 104.029 16.2952 104.349 16.2232C104.743 16.1332 105.146 16.09 105.551 16.0946C105.935 16.0921 106.32 16.1294 106.697 16.2057C107.022 16.2698 107.338 16.3828 107.631 16.5411C107.872 16.6777 108.081 16.8675 108.242 17.0968C108.395 17.3265 108.475 17.599 108.469 17.8768V21.8117L106.517 21.8254ZM106.517 19.3958C106.34 19.3753 106.163 19.3643 105.984 19.3626C105.618 19.3534 105.253 19.4116 104.907 19.5342C104.773 19.5726 104.657 19.6556 104.575 19.7698C104.494 19.884 104.453 20.0228 104.458 20.164C104.456 20.2672 104.48 20.3692 104.527 20.4607C104.573 20.5522 104.642 20.6305 104.726 20.6886C104.946 20.8321 105.207 20.9004 105.468 20.8835C105.736 20.8964 106.002 20.8286 106.232 20.6886C106.32 20.6346 106.392 20.5584 106.442 20.4676C106.492 20.3766 106.518 20.2741 106.517 20.1699V19.3958Z" fill="#F0B80B"/>
<path d="M109.893 24.1087V16.1745H111.838V16.6874C112.072 16.5273 112.322 16.3896 112.581 16.2759C112.936 16.1477 113.311 16.0908 113.687 16.1082C114.488 16.1082 115.055 16.2857 115.386 16.6425C115.504 16.7758 115.588 16.9364 115.632 17.1105C115.689 17.3549 115.715 17.606 115.708 17.8573V20.0022C115.717 20.3043 115.697 20.6066 115.651 20.9051C115.574 21.2756 115.282 21.5544 114.774 21.7415C114.416 21.8523 114.042 21.9011 113.668 21.8859C113.323 21.8907 112.978 21.8401 112.648 21.7357C112.369 21.6431 112.11 21.4976 111.884 21.3067H111.846V24.1087H109.893ZM113.764 18.0133C113.768 17.9092 113.749 17.8055 113.71 17.7095C113.67 17.6134 113.61 17.5275 113.534 17.4576C113.327 17.2975 113.069 17.2217 112.811 17.245C112.561 17.2324 112.315 17.3006 112.105 17.44C112.022 17.4938 111.953 17.5688 111.906 17.6576C111.86 17.7464 111.836 17.8461 111.838 17.947V20.1426C111.84 20.2346 111.868 20.324 111.917 20.4014C111.965 20.4786 112.034 20.5409 112.115 20.5814C112.326 20.7048 112.567 20.765 112.811 20.7549C113.179 20.7549 113.429 20.6886 113.563 20.5599C113.625 20.4996 113.674 20.4269 113.706 20.3463C113.74 20.2658 113.756 20.1792 113.754 20.0919L113.764 18.0133Z" fill="#F0B80B"/>
<path d="M123.897 12.9607C123.897 12.1396 123.312 11.4543 122.334 11.4543H120.499V16.2857H121.423V14.4671H122.334C123.312 14.4671 123.897 13.7818 123.897 12.9607ZM122.972 12.9607C122.972 13.3543 122.706 13.6189 122.288 13.6189H121.423V12.2957H122.288C122.706 12.2957 122.972 12.5671 122.972 12.9607ZM128.259 16.2857L127.201 14.2025C127.66 14.0329 128.066 13.6121 128.066 12.9336C128.066 12.1261 127.494 11.4543 126.53 11.4543H124.674V16.2857H125.599V14.3586H126.264L127.188 16.2857H128.259ZM127.141 12.9336C127.141 13.3068 126.875 13.5714 126.47 13.5714H125.599V12.2957H126.47C126.875 12.2957 127.141 12.5604 127.141 12.9336ZM132.364 13.87C132.364 13.0354 132.37 12.4314 131.891 11.9429C131.559 11.6036 131.153 11.4136 130.615 11.4136C130.076 11.4136 129.664 11.6036 129.331 11.9429C128.852 12.4314 128.866 13.0354 128.866 13.87C128.866 14.7046 128.852 15.3086 129.331 15.7971C129.664 16.1364 130.076 16.3264 130.615 16.3264C131.153 16.3264 131.559 16.1364 131.891 15.7971C132.37 15.3086 132.364 14.7046 132.364 13.87ZM131.439 13.87C131.439 14.7996 131.386 15.0236 131.207 15.2271C131.074 15.3832 130.867 15.485 130.615 15.485C130.362 15.485 130.149 15.3832 130.016 15.2271C129.837 15.0236 129.79 14.7996 129.79 13.87C129.79 12.9404 129.837 12.7164 130.016 12.5129C130.149 12.3568 130.362 12.255 130.615 12.255C130.867 12.255 131.074 12.3568 131.207 12.5129C131.386 12.7164 131.439 12.9404 131.439 13.87Z" fill="#F0B80B"/>
</g>
<defs>
<clipPath id="clip0">
<rect width="133" height="38" fill="white"/>
</clipPath>
</defs>
</svg>
