<svg width="106" height="16" viewBox="0 0 106 16" fill="none" xmlns="http://www.w3.org/2000/svg">
<g clip-path="url(#clip0)">
<path fill-rule="evenodd" clip-rule="evenodd" d="M97.9654 1.05014H91.9241V0H105.249V1.05014H99.2077V16H97.9838L97.9654 1.05014Z" fill="white"/>
<path fill-rule="evenodd" clip-rule="evenodd" d="M87.4144 0H88.4665V16H87.4144V0Z" fill="white"/>
<path fill-rule="evenodd" clip-rule="evenodd" d="M83.0105 9.09637C83.6441 9.78167 83.96 10.6733 83.9584 11.7718C83.9584 13.1272 83.4385 14.1705 82.3991 14.9024C81.3596 15.6343 79.816 16 77.7688 16H70.2826V0H77.2883C79.1135 0 80.5338 0.354287 81.5487 1.06286C82.5636 1.77112 83.0713 2.78032 83.0713 4.09074C83.1003 4.91938 82.8337 5.73281 82.3151 6.39857C81.7914 7.03735 81.0752 7.50859 80.2624 7.74871C81.4628 7.96866 82.379 8.41789 83.0105 9.09637ZM71.5056 1.00516V7.38357H77.2411C78.7111 7.38357 79.8425 7.11273 80.6351 6.57106C81.428 6.02939 81.8243 5.23334 81.8243 4.18319C81.8243 3.14485 81.428 2.35623 80.6351 1.81766C79.8425 1.27941 78.7111 1.00857 77.2411 1.00516H71.5056ZM81.4803 14.1823C82.3203 13.6422 82.7405 12.8086 82.7405 11.6818C82.7405 10.5551 82.3203 9.72149 81.4803 9.18137C80.6403 8.64653 79.4049 8.37973 77.774 8.38127H71.5056V14.9949H77.7688C79.3911 14.9949 80.6265 14.724 81.4752 14.1823H81.4803Z" fill="white"/>
<path fill-rule="evenodd" clip-rule="evenodd" d="M57.4722 15.3955C56.5034 15.0786 55.6247 14.5507 54.9037 13.8535L55.4561 13.0035C56.1154 13.6386 56.9123 14.1267 57.7907 14.4325C58.7724 14.8014 59.8182 14.9885 60.8728 14.9841C62.4393 14.9841 63.6218 14.6993 64.4198 14.1296C65.1785 13.6277 65.6273 12.7963 65.6164 11.9123C65.6493 11.2903 65.4207 10.6815 64.9822 10.2224C64.5401 9.79142 64.0029 9.46071 63.4102 9.25439C62.5801 8.97227 61.7327 8.73967 60.8728 8.5572C59.8933 8.32948 58.9293 8.04493 57.9859 7.70473C57.2688 7.4431 56.6317 7.01366 56.1315 6.45584C55.6181 5.89405 55.361 5.13939 55.361 4.19187C55.355 3.44639 55.5755 2.71527 55.9953 2.08807C56.4699 1.40861 57.1438 0.879822 57.9319 0.568056C58.9622 0.16215 60.0702 -0.0301053 61.1836 0.00382214C62.0904 0.00351648 62.9926 0.133113 63.8596 0.388333C64.6727 0.612987 65.4422 0.96357 66.1378 1.42541L65.691 2.34665C65.027 1.90926 64.2944 1.5764 63.5207 1.36122C62.763 1.13932 61.9758 1.02501 61.1836 1.02134C59.6648 1.02134 58.5142 1.31446 57.7318 1.9007C56.9786 2.43101 56.541 3.27889 56.558 4.17445C56.5277 4.79493 56.756 5.40103 57.1924 5.85951C57.6313 6.29109 58.1659 6.62181 58.7564 6.82782C59.5978 7.1136 60.4551 7.35384 61.3247 7.54702C62.3051 7.76709 63.2701 8.04615 64.2142 8.38206C64.9221 8.64553 65.5536 9.06794 66.0556 9.61384C66.5694 10.1607 66.8261 10.9025 66.8261 11.8311C66.8331 12.575 66.6086 13.304 66.1817 13.925C65.6888 14.6046 64.9982 15.1299 64.1961 15.435C63.153 15.8366 62.0349 16.0277 60.9114 15.9968C59.7361 16.001 58.5703 15.7971 57.4722 15.3955Z" fill="white"/>
<path fill-rule="evenodd" clip-rule="evenodd" d="M51.4474 0V16H50.4137L38.6754 2.10243V15.9975H37.4209V0H38.4791L50.193 13.8951V0H51.4474Z" fill="white"/>
<path fill-rule="evenodd" clip-rule="evenodd" d="M25.3478 16C29.8021 16 33.413 12.4183 33.413 8C33.413 3.58173 29.8021 0 25.3478 0C20.8935 0 17.2826 3.58173 17.2826 8C17.2826 12.4183 20.8935 16 25.3478 16Z" fill="#9C7C4D"/>
<path opacity="0.392043" fill-rule="evenodd" clip-rule="evenodd" d="M25.3478 16C29.8021 16 33.413 12.4183 33.413 8C33.413 3.58173 29.8021 0 25.3478 0C20.8935 0 17.2826 3.58173 17.2826 8C17.2826 12.4183 20.8935 16 25.3478 16Z" fill="#9C7C4D"/>
<path d="M25.3478 16C29.8021 16 33.413 12.4183 33.413 8C33.413 3.58173 29.8021 0 25.3478 0C20.8935 0 17.2826 3.58173 17.2826 8C17.2826 12.4183 20.8935 16 25.3478 16Z" fill="url(#paint0_linear)"/>
<path fill-rule="evenodd" clip-rule="evenodd" d="M4.16749 14.9682C2.89812 14.2979 1.84304 13.3082 1.11493 12.1053C0.364723 10.8596 -0.0203194 9.44157 0.000826344 8.00247C-0.0203194 6.56399 0.364723 5.14693 1.11493 3.90209C1.84304 2.69918 2.89812 1.70949 4.16749 1.0395C5.50346 0.33464 7.00766 -0.0232985 8.53173 0.00117594C9.65025 -0.00891975 10.7615 0.17831 11.81 0.553686C12.7845 0.902752 13.6626 1.46199 14.3772 2.18827L13.6247 2.92801C12.302 1.68533 10.616 1.06306 8.56739 1.06153C7.25572 1.04593 5.96205 1.35584 4.81165 1.96158C3.70639 2.54315 2.78892 3.40557 2.15991 4.4543C1.5126 5.53239 1.17994 6.75825 1.1973 8.00247C1.18025 9.24761 1.5126 10.4741 2.15991 11.5531C2.78859 12.6018 3.70607 13.4637 4.81165 14.0433C5.96142 14.651 7.25541 14.9617 8.56739 14.9458C10.6009 14.9458 12.2821 14.3147 13.6121 13.0521L14.3642 13.7919C13.6487 14.5194 12.771 15.0817 11.797 15.4366C10.7508 15.8175 9.64016 16.008 8.52132 15.9989C7.00166 16.0227 5.50157 15.6675 4.16749 14.9682Z" fill="white"/>
<mask id="mask0" mask-type="alpha" maskUnits="userSpaceOnUse" x="17" y="0" width="17" height="16">
<path d="M25.3478 16C29.8021 16 33.413 12.4183 33.413 8C33.413 3.58173 29.8021 0 25.3478 0C20.8935 0 17.2826 3.58173 17.2826 8C17.2826 12.4183 20.8935 16 25.3478 16Z" fill="white"/>
</mask>
<g mask="url(#mask0)">
<path d="M21.2497 14.8752C17.3956 12.736 15.2467 7.76802 17.4119 3.96015C18.2047 2.56584 20.6093 -0.276575 22.8248 -0.725397C24.6431 -1.09374 29.7146 1.12131 29.7146 1.12131L21.2497 14.8752Z" fill="url(#paint1_linear)"/>
<path opacity="0.6117" fill-rule="evenodd" clip-rule="evenodd" d="M19.592 10.4551C20.5728 12.775 22.8801 14.2851 25.4367 14.2801C28.9129 14.2692 31.7281 11.5028 31.7392 8.08697C31.7442 5.57482 30.2075 3.30748 27.8465 2.34381C25.4856 1.38015 22.7664 1.91027 20.9586 3.68663C19.1509 5.46299 18.6114 8.1351 19.592 10.4551ZM20.2553 8.07483C20.2553 5.26328 22.5748 2.98408 25.436 2.98408C28.296 2.98681 30.6138 5.26442 30.6166 8.07483C30.6166 10.8864 28.2972 13.1656 25.436 13.1656C22.5748 13.1656 20.2553 10.8864 20.2553 8.07483Z" fill="white"/>
<path opacity="0.6117" d="M26.0323 5.00952H24.891V10.617H26.0323V5.00952Z" fill="white"/>
</g>
</g>
<defs>
<linearGradient id="paint0_linear" x1="38.0002" y1="22.8318" x2="38.0002" y2="-2.23623" gradientUnits="userSpaceOnUse">
<stop stop-color="#FB9112"/>
<stop offset="0.1823" stop-color="#FB9C2A"/>
<stop offset="0.5684" stop-color="#FBB869"/>
<stop offset="1" stop-color="#FBDBB5"/>
</linearGradient>
<linearGradient id="paint1_linear" x1="8.90805" y1="25.2656" x2="42.7375" y2="31.2781" gradientUnits="userSpaceOnUse">
<stop stop-color="#FB9112"/>
<stop offset="1" stop-color="#FBDBB5"/>
</linearGradient>
<clipPath id="clip0">
<rect width="106" height="16" fill="white"/>
</clipPath>
</defs>
</svg>
