<svg width="38" height="38" viewBox="0 0 38 38" fill="none" xmlns="http://www.w3.org/2000/svg">
<path d="M21.4342 18.9998C21.4342 24.9023 16.636 29.6875 10.7169 29.6875C4.79786 29.6875 0 24.9038 0 18.9998C0 13.0959 4.79822 8.3125 10.7169 8.3125C16.6356 8.3125 21.4342 13.0973 21.4342 18.9998ZM33.1912 18.9998C33.1912 24.5563 30.7919 29.0603 27.8326 29.0603C24.8732 29.0603 22.4739 24.5549 22.4739 18.9998C22.4739 13.4448 24.8732 8.9393 27.8326 8.9393C30.7919 8.9393 33.1912 13.4448 33.1912 18.9998ZM38 18.9998C38 23.9782 37.1561 28.0136 36.1153 28.0136C35.0745 28.0136 34.2306 23.9767 34.2306 18.9998C34.2306 14.0229 35.0745 9.98601 36.1157 9.98601C37.1568 9.98601 38 14.0218 38 18.9998Z" fill="white"/>
</svg>
