<svg width="32" height="32" viewBox="0 0 32 32" fill="none" xmlns="http://www.w3.org/2000/svg">
<path d="M8.35622 29V10.7831H2.35412V29H8.35622ZM5.35595 8.29445C7.44898 8.29445 8.7518 6.89561 8.7518 5.14752C8.7128 3.36002 7.44906 2 5.39567 2C3.34259 2 2 3.36004 2 5.14752C2 6.89569 3.30249 8.29445 5.31676 8.29445H5.35576H5.35595ZM11.6784 29H17.6805V18.8268C17.6805 18.2824 17.7195 17.7385 17.878 17.3493C18.3119 16.2615 19.2994 15.1348 20.9575 15.1348C23.1294 15.1348 23.9983 16.8054 23.9983 19.2543V28.9999H30V18.5545C30 12.959 27.0389 10.3555 23.0899 10.3555C19.852 10.3555 18.4303 12.1813 17.6405 13.4248H17.6806V10.7828H11.6785C11.7573 12.4921 11.6785 28.9996 11.6785 28.9996L11.6784 29Z" fill="white"/>
</svg>
