<svg width="134" height="22" viewBox="0 0 134 22" fill="none" xmlns="http://www.w3.org/2000/svg">
<path d="M25.8389 16.7174C25.5273 16.7174 25.307 16.6522 25.178 16.5219C25.0598 16.3917 25.0007 16.1854 25.0007 15.9031V6.47364C25.0007 6.19136 25.0651 5.98507 25.1941 5.85478C25.3231 5.71364 25.538 5.64307 25.8389 5.64307H29.7881C31.2925 5.64307 32.3994 5.96335 33.1087 6.60392C33.8179 7.2445 34.1725 8.19993 34.1725 9.47025C34.1725 10.7297 33.8179 11.6796 33.1087 12.3203C32.4102 12.95 31.3033 13.2648 29.7881 13.2648H28.2568V15.9031C28.2568 16.1854 28.1923 16.3917 28.0634 16.5219C27.9344 16.6522 27.7141 16.7174 27.4024 16.7174H25.8389ZM29.5302 10.9034C29.9708 10.9034 30.3093 10.7839 30.5457 10.5451C30.7929 10.3062 30.9164 9.9479 30.9164 9.47025C30.9164 8.98168 30.7929 8.61791 30.5457 8.37907C30.3093 8.14022 29.9708 8.02079 29.5302 8.02079H28.2568V10.9034H29.5302Z" fill="white"/>
<path d="M37.9793 16.9616C36.9692 16.9616 36.1578 16.636 35.5453 15.9845C34.9435 15.3222 34.6426 14.3939 34.6426 13.1996C34.6426 12.2877 34.8468 11.4897 35.2552 10.8056C35.6742 10.1216 36.2599 9.59503 37.0121 9.22594C37.7751 8.84593 38.6509 8.65588 39.6396 8.65588C40.4563 8.65588 41.1763 8.7482 41.7995 8.93275C42.4335 9.10646 43.0138 9.36166 43.5404 9.69818V16.2125C43.5404 16.4188 43.5028 16.5545 43.4276 16.6196C43.3524 16.6848 43.2019 16.7174 42.9762 16.7174H41.3321C41.2139 16.7174 41.1225 16.701 41.058 16.6685C40.9935 16.625 40.9399 16.5599 40.8969 16.4731L40.6873 15.9845C40.3756 16.3211 39.9996 16.5654 39.559 16.7174C39.1291 16.8802 38.6026 16.9616 37.9793 16.9616ZM39.1882 14.7468C39.6073 14.7468 39.9351 14.6436 40.1715 14.4373C40.4079 14.2311 40.5261 13.9379 40.5261 13.5579V11.0173C40.3219 10.9196 40.064 10.8708 39.7524 10.8708C39.1829 10.8708 38.7262 11.0717 38.3823 11.4733C38.0491 11.8751 37.8826 12.4396 37.8826 13.1671C37.8826 14.2202 38.3178 14.7468 39.1882 14.7468Z" fill="white"/>
<path d="M45.7836 16.7174C45.472 16.7174 45.2517 16.6522 45.1228 16.5219C44.9938 16.3917 44.9293 16.1854 44.9293 15.9031V9.40507C44.9293 9.20961 44.9615 9.0793 45.026 9.01423C45.1012 8.93816 45.2516 8.90017 45.4774 8.90017H47.1376C47.2666 8.90017 47.3633 8.92191 47.4278 8.96532C47.503 8.9979 47.546 9.06305 47.5567 9.16078L47.6373 9.64935C47.9383 9.34533 48.3305 9.10646 48.814 8.93275C49.3083 8.7482 49.8564 8.65588 50.4582 8.65588C51.3286 8.65588 52.0325 8.90558 52.5698 9.40507C53.1071 9.89364 53.3757 10.6211 53.3757 11.5874V15.9031C53.3757 16.1854 53.3112 16.3917 53.1824 16.5219C53.0641 16.6522 52.8492 16.7174 52.5376 16.7174H50.974C50.6624 16.7174 50.4367 16.6522 50.297 16.5219C50.168 16.3917 50.1035 16.1854 50.1035 15.9031V11.7991C50.1035 11.4733 50.0337 11.24 49.894 11.0987C49.7543 10.9576 49.534 10.887 49.2331 10.887C48.9108 10.887 48.6528 10.9739 48.4594 11.1476C48.2767 11.3214 48.1854 11.5602 48.1854 11.8642V15.9031C48.1854 16.1854 48.1209 16.3917 47.9919 16.5219C47.8738 16.6522 47.6588 16.7174 47.3472 16.7174H45.7836Z" fill="white"/>
<path d="M59.0734 16.9616C57.5689 16.9616 56.4083 16.6088 55.5917 15.9031C54.7749 15.1973 54.3666 14.1714 54.3666 12.8251C54.3666 11.9999 54.5547 11.2724 54.9307 10.6427C55.3068 10.013 55.8495 9.52446 56.5588 9.17703C57.2788 8.8296 58.1277 8.65588 59.1057 8.65588C59.8471 8.65588 60.4704 8.72645 60.9755 8.86759C61.4913 9.00873 61.948 9.22594 62.3456 9.51904C62.4638 9.59503 62.5229 9.69276 62.5229 9.81224C62.5229 9.89905 62.4799 10.013 62.3939 10.1542L61.7331 11.3105C61.6579 11.4625 61.5665 11.5385 61.459 11.5385C61.3945 11.5385 61.2925 11.4951 61.1528 11.4082C60.8626 11.2236 60.5886 11.0879 60.3307 11.0011C60.0835 10.9142 59.7719 10.8708 59.3958 10.8708C58.8584 10.8708 58.4233 11.0445 58.0901 11.3919C57.7677 11.7394 57.6065 12.2171 57.6065 12.8251C57.6065 13.4439 57.7731 13.9217 58.1063 14.2582C58.4393 14.584 58.8961 14.7468 59.4763 14.7468C59.8202 14.7468 60.1318 14.6979 60.4113 14.6002C60.6907 14.5025 60.9755 14.3667 61.2656 14.193C61.4161 14.1062 61.5235 14.0628 61.588 14.0628C61.6847 14.0628 61.7707 14.1388 61.8459 14.2908L62.5712 15.5448C62.625 15.6533 62.6519 15.7402 62.6519 15.8054C62.6519 15.9031 62.5874 15.9953 62.4584 16.0822C62.0071 16.3753 61.5128 16.5925 60.9755 16.7336C60.4489 16.8857 59.8149 16.9616 59.0734 16.9616Z" fill="white"/>
<path d="M66.7388 16.9616C65.7287 16.9616 64.9173 16.636 64.3048 15.9845C63.703 15.3222 63.4021 14.3939 63.4021 13.1996C63.4021 12.2877 63.6063 11.4897 64.0146 10.8056C64.4337 10.1216 65.0194 9.59503 65.7716 9.22594C66.5346 8.84593 67.4105 8.65588 68.399 8.65588C69.2158 8.65588 69.9358 8.7482 70.559 8.93275C71.1931 9.10646 71.7733 9.36166 72.2999 9.69818V16.2125C72.2999 16.4188 72.2623 16.5545 72.1871 16.6196C72.1118 16.6848 71.9614 16.7174 71.7357 16.7174H70.0916C69.9734 16.7174 69.882 16.701 69.8176 16.6685C69.7531 16.625 69.6993 16.5599 69.6564 16.4731L69.4468 15.9845C69.1352 16.3211 68.7591 16.5654 68.3185 16.7174C67.8887 16.8802 67.3621 16.9616 66.7388 16.9616ZM67.9477 14.7468C68.3668 14.7468 68.6946 14.6436 68.931 14.4373C69.1674 14.2311 69.2856 13.9379 69.2856 13.5579V11.0173C69.0814 10.9196 68.8236 10.8708 68.5119 10.8708C67.9424 10.8708 67.4857 11.0717 67.1418 11.4733C66.8086 11.8751 66.6421 12.4396 66.6421 13.1671C66.6421 14.2202 67.0773 14.7468 67.9477 14.7468Z" fill="white"/>
<path d="M82.4254 16.0985C82.5006 16.1854 82.5382 16.2831 82.5382 16.3917C82.5382 16.4893 82.506 16.5708 82.4416 16.636C82.3771 16.6902 82.2911 16.7174 82.1836 16.7174H79.6852C79.5347 16.7174 79.4219 16.7066 79.3467 16.6848C79.2822 16.6522 79.2123 16.5925 79.1371 16.5057L76.9449 13.4928V15.9031C76.9449 16.1854 76.8804 16.3917 76.7514 16.5219C76.6225 16.6522 76.4022 16.7174 76.0906 16.7174H74.527C74.2154 16.7174 73.9951 16.6522 73.8662 16.5219C73.7479 16.3917 73.6888 16.1854 73.6888 15.9031V6.47364C73.6888 6.19136 73.7533 5.98507 73.8822 5.85478C74.0112 5.71364 74.2261 5.64307 74.527 5.64307H76.0906C76.4022 5.64307 76.6225 5.71364 76.7514 5.85478C76.8804 5.98507 76.9449 6.19136 76.9449 6.47364V11.9293L79.0726 9.12823C79.1371 9.04133 79.207 8.98168 79.2822 8.9491C79.3574 8.91652 79.4702 8.90019 79.6207 8.90019H82.1191C82.2266 8.90019 82.3072 8.93277 82.3609 8.99792C82.4254 9.05225 82.4576 9.12823 82.4576 9.22596C82.4576 9.33452 82.42 9.43225 82.3448 9.51907L79.5885 12.7111L82.4254 16.0985Z" fill="white"/>
<path d="M87.6594 16.9616C86.7566 16.9616 85.9509 16.8097 85.2416 16.5057C84.5431 16.2016 83.9895 15.7456 83.5812 15.1377C83.1729 14.5296 82.9687 13.7859 82.9687 12.9065C82.9687 11.5276 83.3555 10.4745 84.1294 9.74708C84.9032 9.01965 86.0154 8.65588 87.466 8.65588C88.8847 8.65588 89.9592 9.01423 90.6895 9.73075C91.4315 10.4364 91.8017 11.4191 91.8017 12.6785C91.8017 13.2213 91.5655 13.4928 91.0924 13.4928H86.0313C86.0313 13.9597 86.203 14.3179 86.5472 14.5676C86.9015 14.8173 87.4333 14.9422 88.1427 14.9422C88.5832 14.9422 88.9492 14.9042 89.239 14.8282C89.5396 14.7413 89.8411 14.6165 90.1418 14.4536C90.2708 14.3993 90.357 14.3722 90.3997 14.3722C90.4961 14.3722 90.5773 14.4373 90.6418 14.5676L91.1895 15.6099C91.2431 15.7185 91.2699 15.8 91.2699 15.8542C91.2699 15.9519 91.2054 16.0442 91.0764 16.1311C90.6359 16.4243 90.1368 16.636 89.5773 16.7662C89.0187 16.8965 88.3797 16.9616 87.6594 16.9616ZM88.9006 11.8805C88.9006 11.4679 88.7825 11.1476 88.5455 10.9196C88.3093 10.6916 87.9551 10.5777 87.4819 10.5777C87.0095 10.5777 86.6494 10.6971 86.4024 10.9359C86.1553 11.1639 86.0313 11.4787 86.0313 11.8805H88.9006Z" fill="white"/>
<path d="M97.3267 16.9617C96.4239 16.9617 95.5696 16.8694 94.764 16.6848C93.9583 16.4894 93.3075 16.218 92.8134 15.8706C92.6308 15.7511 92.5396 15.6263 92.5396 15.496C92.5396 15.4091 92.5714 15.3169 92.6359 15.2191L93.4256 13.9488C93.5119 13.8186 93.5982 13.7534 93.6836 13.7534C93.738 13.7534 93.8293 13.7914 93.9583 13.8674C94.3553 14.0954 94.8067 14.28 95.3117 14.4211C95.8167 14.5623 96.3167 14.6328 96.8108 14.6328C97.3158 14.6328 97.6868 14.5568 97.923 14.4048C98.1701 14.2528 98.294 14.0085 98.294 13.6719C98.294 13.3462 98.16 13.0911 97.8912 12.9065C97.6332 12.722 97.1441 12.4885 96.4239 12.2062C95.3385 11.7936 94.4901 11.3322 93.8771 10.822C93.2757 10.3009 92.9751 9.59507 92.9751 8.70484C92.9751 7.62995 93.3561 6.81024 94.1191 6.24567C94.882 5.68109 95.8979 5.3988 97.1659 5.3988C98.047 5.3988 98.799 5.48024 99.4221 5.64309C100.056 5.79509 100.594 6.03395 101.034 6.35966C101.217 6.50081 101.308 6.63109 101.308 6.75053C101.308 6.82652 101.276 6.91338 101.212 7.01109L100.422 8.28138C100.325 8.41167 100.239 8.4768 100.164 8.4768C100.11 8.4768 100.018 8.43881 99.8895 8.36281C99.2664 7.95024 98.5252 7.74395 97.6651 7.74395C97.2036 7.74395 96.8485 7.81995 96.6014 7.97196C96.3544 8.12395 96.2304 8.37367 96.2304 8.72108C96.2304 8.95995 96.2949 9.15541 96.4239 9.30738C96.5529 9.45935 96.7254 9.59507 96.9398 9.71455C97.1659 9.82311 97.5093 9.96425 97.9716 10.138L98.2781 10.2519C99.0729 10.5668 99.696 10.8708 100.147 11.1639C100.61 11.4462 100.959 11.7991 101.195 12.2226C101.432 12.6351 101.55 13.1563 101.55 13.786C101.55 14.7522 101.19 15.5231 100.47 16.0985C99.7605 16.674 98.7128 16.9617 97.3267 16.9617Z" fill="white"/>
<path d="M104.975 16.7174C104.814 16.7174 104.69 16.6902 104.604 16.636C104.518 16.5817 104.454 16.4731 104.411 16.3102L102.332 9.2748C102.31 9.20965 102.299 9.16082 102.299 9.12825C102.299 8.97628 102.407 8.90021 102.621 8.90021H104.749C104.889 8.90021 104.991 8.92737 105.055 8.98169C105.12 9.0251 105.163 9.10108 105.184 9.20965L106.055 12.9065L107.151 9.92625C107.205 9.79595 107.259 9.70913 107.312 9.66564C107.377 9.6114 107.484 9.58424 107.635 9.58424H108.65C108.8 9.58424 108.903 9.6114 108.956 9.66564C109.021 9.70913 109.08 9.79595 109.134 9.92625L110.213 12.9065L111.1 9.20965C111.132 9.10108 111.176 9.0251 111.229 8.98169C111.283 8.92737 111.38 8.90021 111.519 8.90021H113.663C113.878 8.90021 113.985 8.97628 113.985 9.12825C113.985 9.16082 113.975 9.20965 113.954 9.2748L111.858 16.3102C111.815 16.4731 111.75 16.5817 111.665 16.636C111.589 16.6902 111.471 16.7174 111.31 16.7174H109.73C109.579 16.7174 109.467 16.6902 109.392 16.636C109.316 16.5708 109.252 16.4623 109.198 16.3102L108.135 13.3626L107.07 16.3102C107.027 16.4623 106.963 16.5708 106.877 16.636C106.801 16.6902 106.689 16.7174 106.538 16.7174H104.975Z" fill="white"/>
<path d="M118.072 16.9616C117.062 16.9616 116.25 16.636 115.638 15.9845C115.036 15.3222 114.735 14.3939 114.735 13.1996C114.735 12.2877 114.939 11.4897 115.347 10.8056C115.767 10.1216 116.352 9.59503 117.104 9.22594C117.867 8.84593 118.743 8.65588 119.732 8.65588C120.548 8.65588 121.268 8.7482 121.891 8.93275C122.525 9.10646 123.106 9.36166 123.633 9.69818V16.2125C123.633 16.4188 123.595 16.5545 123.52 16.6196C123.444 16.6848 123.294 16.7174 123.068 16.7174H121.424C121.306 16.7174 121.215 16.701 121.15 16.6685C121.086 16.625 121.032 16.5599 120.989 16.4731L120.779 15.9845C120.468 16.3211 120.092 16.5654 119.651 16.7174C119.221 16.8802 118.695 16.9616 118.072 16.9616ZM119.28 14.7468C119.7 14.7468 120.027 14.6436 120.263 14.4373C120.5 14.2311 120.618 13.9379 120.618 13.5579V11.0173C120.414 10.9196 120.156 10.8708 119.845 10.8708C119.275 10.8708 118.819 11.0717 118.474 11.4733C118.141 11.8751 117.974 12.4396 117.974 13.1671C117.974 14.2202 118.41 14.7468 119.28 14.7468Z" fill="white"/>
<path d="M125.859 20.007C125.548 20.007 125.328 19.942 125.199 19.8117C125.081 19.6814 125.021 19.4751 125.021 19.1928V9.86106C125.505 9.51363 126.112 9.22594 126.843 8.9979C127.574 8.76994 128.337 8.65588 129.132 8.65588C132.377 8.65588 134 10.0456 134 12.8251C134 14.0845 133.656 15.0888 132.968 15.838C132.281 16.5871 131.308 16.9616 130.05 16.9616C129.696 16.9616 129.352 16.9182 129.019 16.8313C128.697 16.7445 128.428 16.625 128.213 16.4731V19.1928C128.213 19.4751 128.148 19.6814 128.019 19.8117C127.89 19.942 127.67 20.007 127.359 20.007H125.859ZM129.358 14.7631C129.82 14.7631 130.163 14.5894 130.39 14.2419C130.626 13.8837 130.744 13.4059 130.744 12.8088C130.744 12.103 130.604 11.609 130.325 11.3268C130.056 11.0337 129.637 10.887 129.067 10.887C128.702 10.887 128.412 10.9359 128.197 11.0337V13.6231C128.197 13.9922 128.299 14.2745 128.503 14.4699C128.708 14.6654 128.993 14.7631 129.358 14.7631Z" fill="white"/>
<path fill-rule="evenodd" clip-rule="evenodd" d="M3.67661 3.80797C3.36236 2.10782 4.65356 0.537109 6.36541 0.537109C7.87608 0.537109 9.10069 1.77439 9.10069 3.30066V6.7077C9.47857 6.68076 9.86248 6.66694 10.2513 6.66694C10.6249 6.66694 10.994 6.67969 11.3575 6.70458V3.30066C11.3575 1.77439 12.5821 0.537109 14.0928 0.537109C15.8046 0.537109 17.0958 2.10782 16.7816 3.80797L16.0414 7.81276C18.5818 8.93335 20.5028 10.8796 20.5028 13.3252V14.8048C20.5028 16.816 19.1859 18.4998 17.3448 19.6365C15.4894 20.782 12.9794 21.463 10.2513 21.463C7.5233 21.463 5.01331 20.782 3.15792 19.6365C1.3169 18.4998 0 16.816 0 14.8048V13.3252C0 10.8925 1.90121 8.95375 4.4202 7.83096L3.67661 3.80797ZM15.0928 8.33891L15.959 3.65276C16.1771 2.47277 15.2809 1.38261 14.0928 1.38261C13.0443 1.38261 12.1943 2.24134 12.1943 3.30066V7.63636C11.9196 7.60077 11.6405 7.57257 11.3575 7.55213C10.9947 7.52591 10.6256 7.51243 10.2513 7.51243C9.86181 7.51243 9.47782 7.52704 9.10069 7.55541C8.8177 7.57671 8.53856 7.60576 8.26385 7.6422V3.30066C8.26385 2.24134 7.41389 1.38261 6.36541 1.38261C5.17729 1.38261 4.28112 2.47276 4.49923 3.65276L5.36827 8.35446C2.65152 9.37403 0.836846 11.2188 0.836846 13.3252V14.8048C0.836846 18.0151 5.05187 20.6176 10.2513 20.6176C15.4509 20.6176 19.6659 18.0151 19.6659 14.8048V13.3252C19.6659 11.208 17.8326 9.35525 15.0928 8.33891Z" fill="#633001"/>
<path d="M19.6658 14.8049C19.6658 18.0152 15.4507 20.6176 10.2512 20.6176C5.05171 20.6176 0.836685 18.0152 0.836685 14.8049V13.3252H19.6658V14.8049Z" fill="#FEDC90"/>
<path fill-rule="evenodd" clip-rule="evenodd" d="M4.49907 3.65261C4.28097 2.47261 5.17713 1.38245 6.36525 1.38245C7.41374 1.38245 8.2637 2.24119 8.2637 3.30051V7.64205C8.90439 7.55702 9.56936 7.51227 10.2512 7.51227C10.9173 7.51227 11.5672 7.55498 12.1942 7.6362V3.30051C12.1942 2.24119 13.0441 1.38245 14.0926 1.38245C15.2808 1.38245 16.1769 2.47261 15.9588 3.65261L15.0926 8.33875C17.8325 9.35509 19.6658 11.2079 19.6658 13.3251C19.6658 16.5354 15.4507 19.1378 10.2512 19.1378C5.05171 19.1378 0.836685 16.5354 0.836685 13.3251C0.836685 11.2187 2.65135 9.37387 5.36811 8.3543L4.49907 3.65261Z" fill="#D1884F"/>
<path d="M7.63647 12.9026C7.63647 13.7782 7.16814 14.4879 6.59041 14.4879C6.01269 14.4879 5.54436 13.7782 5.54436 12.9026C5.54436 12.0271 6.01269 11.3173 6.59041 11.3173C7.16814 11.3173 7.63647 12.0271 7.63647 12.9026Z" fill="#633001"/>
<path d="M14.8542 12.9026C14.8542 13.7782 14.3858 14.4879 13.8081 14.4879C13.2304 14.4879 12.7621 13.7782 12.7621 12.9026C12.7621 12.0271 13.2304 11.3173 13.8081 11.3173C14.3858 11.3173 14.8542 12.0271 14.8542 12.9026Z" fill="#633001"/>
</svg>
