<svg width="38" height="38" viewBox="0 0 38 38" fill="none" xmlns="http://www.w3.org/2000/svg">
<path d="M34.2 19.1899C34.2 17.2899 32.68 15.7699 30.78 15.9599C30.02 15.9599 29.07 16.3399 28.5 16.9099C25.84 15.1999 22.8 14.0599 19.57 14.0599L21.09 6.83995L26.03 7.97995C26.03 9.30995 27.17 10.2599 28.5 10.2599C29.83 10.2599 30.78 9.11995 30.78 7.78995C30.78 6.45995 29.64 5.50995 28.31 5.50995C27.36 5.50995 26.6 6.07995 26.22 6.83995L20.9 5.50995H20.52C20.33 5.50995 20.33 5.69995 20.33 5.88995L18.43 14.0599C15.2 14.0599 12.16 15.0099 9.5 16.9099C8.17 15.5799 6.08 15.5799 4.75 16.9099C3.42 18.2399 3.42 20.3299 4.75 21.6599C4.94 21.8499 5.32 22.2299 5.7 22.2299V23.1799C5.7 28.3099 11.59 32.49 19 32.49C26.41 32.49 32.3 28.3099 32.3 23.1799V22.2299C33.44 21.6599 34.2 20.5199 34.2 19.1899ZM11.4 21.6599C11.4 20.3299 12.54 19.3799 13.68 19.3799C15.01 19.3799 15.96 20.5199 15.96 21.6599C15.96 22.7999 14.82 23.9399 13.68 23.9399C12.35 23.9399 11.4 22.9899 11.4 21.6599ZM24.7 27.9299C22.99 29.0699 21.09 29.83 19 29.6399C16.91 29.6399 15.01 29.0699 13.3 27.9299C13.11 27.7399 13.11 27.3599 13.3 26.9799C13.49 26.7899 13.87 26.7899 14.06 26.9799C15.39 27.9299 17.1 28.4999 18.81 28.3099C20.52 28.4999 22.23 27.9299 23.56 26.9799C23.75 26.7899 24.13 26.7899 24.51 26.9799C24.89 27.1699 24.89 27.5499 24.7 27.9299ZM24.13 23.9399C22.8 23.9399 21.85 22.7999 21.85 21.6599C21.85 20.5199 22.99 19.3799 24.13 19.3799C25.46 19.3799 26.41 20.5199 26.41 21.6599C26.6 22.9899 25.46 23.9399 24.13 23.9399Z" fill="white"/>
</svg>
