<svg width="32" height="32" viewBox="0 0 32 32" fill="none" xmlns="http://www.w3.org/2000/svg">
<path d="M10.4237 29.1874C21.745 29.1874 27.9381 19.8068 27.9381 11.6861C27.9381 11.4236 27.9381 11.1574 27.9269 10.8949C29.1326 10.0221 30.1732 8.94143 31 7.70365C29.8737 8.20024 28.6802 8.52753 27.4581 8.6749C28.7454 7.90547 29.7095 6.69484 30.1712 5.26802C28.9619 5.9845 27.6382 6.48747 26.2581 6.7549C25.3303 5.76682 24.1026 5.11224 22.7652 4.89257C21.4277 4.67289 20.0551 4.90037 18.86 5.53978C17.6649 6.17918 16.714 7.19482 16.1546 8.42938C15.5952 9.66394 15.4585 11.0485 15.7656 12.3686C13.3183 12.2459 10.924 11.6101 8.7382 10.5025C6.55238 9.39493 4.62378 7.84023 3.0775 5.93927C2.29251 7.29505 2.05295 8.89877 2.40746 10.4248C2.76197 11.9508 3.68398 13.2846 4.98625 14.1555C4.01039 14.1224 3.05598 13.8603 2.2 13.3905V13.4749C2.20168 14.8952 2.6937 16.2713 3.59289 17.3707C4.49208 18.4701 5.74328 19.2253 7.135 19.5086C6.60674 19.6542 6.06106 19.7267 5.51312 19.7243C5.12684 19.7254 4.74134 19.6897 4.36188 19.6174C4.75522 20.84 5.52114 21.909 6.55234 22.6745C7.58354 23.4401 8.82838 23.864 10.1125 23.8868C7.93104 25.6001 5.23638 26.5294 2.4625 26.5249C1.97373 26.527 1.48529 26.4988 1 26.4405C3.81534 28.2354 7.08493 29.1884 10.4237 29.1874Z" fill="white"/>
</svg>
