<svg width="123" height="29" viewBox="0 0 123 29" fill="none" xmlns="http://www.w3.org/2000/svg">
<path d="M8.30435 2.99958C7.92825 2.94353 7.91239 2.93696 8.08937 2.91082C8.42855 2.86071 9.22945 2.92901 9.78135 3.05508C11.0698 3.34934 12.2422 4.10313 13.4937 5.44186L13.8262 5.79752L14.3018 5.72405C16.3055 5.41468 18.3439 5.66056 20.0488 6.41727C20.5178 6.62545 21.2574 7.03986 21.3498 7.14635C21.3792 7.18028 21.4332 7.39874 21.4698 7.63186C21.5964 8.43837 21.533 9.05658 21.2764 9.51832C21.1366 9.76957 21.1288 9.84921 21.2228 10.0642C21.2978 10.2358 21.5068 10.3628 21.7138 10.3626C22.1374 10.362 22.5934 9.70397 22.8048 8.78837L22.8888 8.42469L23.055 8.60563C23.967 9.59839 24.6834 10.9523 24.8064 11.916L24.8384 12.1673L24.6852 11.9388C24.4214 11.5458 24.1562 11.2782 23.8168 11.0624C23.2048 10.6734 22.5578 10.541 20.8444 10.4542C19.2968 10.3759 18.4209 10.2489 17.5524 9.9768C16.0748 9.51393 15.3299 8.89746 13.5746 6.68488C12.795 5.70213 12.3131 5.1584 11.8338 4.72052C10.7446 3.72555 9.67433 3.20374 8.30435 2.99958Z" fill="white"/>
<path d="M21.6988 5.19373C21.7378 4.5352 21.8306 4.10084 22.0176 3.70415C22.0916 3.54715 22.1608 3.41864 22.1716 3.41864C22.1822 3.41864 22.15 3.53452 22.1 3.67616C21.9642 4.06113 21.9418 4.58769 22.0354 5.20032C22.1542 5.97764 22.2218 6.08979 23.077 6.92946C23.478 7.32332 23.9446 7.82003 24.1136 8.03329L24.4212 8.42106L24.1136 8.14394C23.7376 7.80504 22.8728 7.14413 22.6818 7.04965C22.5536 6.9863 22.5346 6.9874 22.4556 7.06295C22.3828 7.13257 22.3674 7.23719 22.3574 7.73177C22.3416 8.50261 22.2322 8.99737 21.9684 9.49207C21.8256 9.75964 21.803 9.70253 21.9322 9.40053C22.0286 9.17502 22.0384 9.0759 22.0378 8.32969C22.0362 6.83037 21.851 6.46992 20.7646 5.85246C20.4894 5.69603 20.0358 5.47045 19.7567 5.35112C19.4777 5.2318 19.2561 5.12786 19.2641 5.12009C19.2949 5.09068 20.3544 5.3878 20.781 5.54542C21.4154 5.77986 21.52 5.81025 21.597 5.78197C21.6488 5.763 21.6738 5.6185 21.6988 5.19373Z" fill="white"/>
<path d="M9.03497 7.7586C8.27145 6.74867 7.79903 5.2002 7.90131 4.04266L7.93293 3.68445L8.10673 3.71492C8.43311 3.77211 8.99585 3.97335 9.25935 4.12712C9.98247 4.54905 10.2955 5.10458 10.614 6.53107C10.7073 6.9489 10.8297 7.42174 10.886 7.58182C10.9767 7.83947 11.3193 8.44132 11.5979 8.83218C11.7985 9.11369 11.6652 9.24709 11.2217 9.20862C10.5444 9.14988 9.62687 8.5415 9.03497 7.7586Z" fill="white"/>
<path d="M20.7726 15.2749C17.2045 13.8946 15.9478 12.6965 15.9478 10.6749C15.9478 10.3774 15.9584 10.134 15.9714 10.134C15.9844 10.134 16.1225 10.2322 16.2782 10.3522C17.0017 10.9098 17.812 11.148 20.055 11.4623C21.375 11.6474 22.1178 11.7968 22.803 12.0151C24.9808 12.7091 26.3282 14.1173 26.6496 16.0355C26.743 16.5928 26.6882 17.638 26.5368 18.1889C26.4174 18.624 26.0526 19.4083 25.9558 19.4384C25.929 19.4467 25.9028 19.3479 25.8958 19.2135C25.8592 18.4933 25.4804 17.7921 24.8442 17.2668C24.1208 16.6696 23.149 16.1941 20.7726 15.2749Z" fill="white"/>
<path d="M18.2676 15.8485C18.2229 15.5929 18.1454 15.2665 18.0953 15.1231L18.0043 14.8625L18.1734 15.0448C18.4074 15.2972 18.5923 15.6201 18.7491 16.0503C18.8687 16.3786 18.8821 16.4762 18.8812 17.0096C18.8803 17.5333 18.8654 17.6431 18.7549 17.9386C18.5808 18.4046 18.3646 18.735 18.0019 19.0896C17.3501 19.727 16.5121 20.0798 15.3028 20.2262C15.0926 20.2515 14.4799 20.2944 13.9413 20.3213C12.5839 20.3892 11.6905 20.5293 10.8878 20.8002C10.7724 20.839 10.6693 20.8628 10.6589 20.8528C10.6264 20.8216 11.1729 20.5086 11.6244 20.2996C12.2609 20.005 12.8946 19.8443 14.3143 19.6172C15.0156 19.5048 15.7399 19.3687 15.9238 19.3146C17.6606 18.803 18.5533 17.4827 18.2676 15.8485Z" fill="white"/>
<path d="M19.9035 18.6396C19.4294 17.6604 19.3206 16.715 19.5803 15.8334C19.6081 15.7391 19.6528 15.662 19.6796 15.662C19.7065 15.662 19.8184 15.7201 19.9282 15.7911C20.1467 15.9324 20.5849 16.1704 21.7521 16.7819C23.2087 17.5449 24.0393 18.1357 24.6041 18.8108C25.0987 19.4019 25.4047 20.0753 25.5521 20.8964C25.6355 21.3613 25.5865 22.4803 25.4623 22.9486C25.0707 24.4253 24.1605 25.5851 22.8623 26.2619C22.6721 26.3611 22.5013 26.4425 22.4829 26.4429C22.4643 26.4433 22.5337 26.2739 22.6369 26.0667C23.0735 25.1895 23.1233 24.3363 22.7931 23.3867C22.5909 22.8051 22.1787 22.0956 21.3465 20.8964C20.3787 19.5022 20.1415 19.1312 19.9035 18.6396Z" fill="white"/>
<path d="M6.50091 23.9223C7.82503 22.8482 9.47257 22.0851 10.9733 21.8508C11.6201 21.7499 12.6975 21.7899 13.2965 21.9372C14.2565 22.1733 15.1153 22.702 15.5619 23.3319C15.9984 23.9475 16.1856 24.484 16.3806 25.6776C16.4575 26.1486 16.5411 26.6213 16.5665 26.7284C16.7129 27.347 16.9978 27.8414 17.3509 28.0898C17.9117 28.4842 18.8773 28.5086 19.8272 28.1527C19.9885 28.0922 20.1284 28.0504 20.1382 28.0599C20.1728 28.0927 19.6944 28.4003 19.3569 28.5623C18.9029 28.7802 18.5418 28.8645 18.062 28.8645C17.192 28.8645 16.4697 28.4394 15.867 27.5723C15.7484 27.4016 15.4818 26.8906 15.2746 26.4364C14.6382 25.0419 14.324 24.6172 13.5851 24.1522C12.9421 23.7478 12.1128 23.6753 11.489 23.9691C10.6695 24.3552 10.4409 25.3613 11.0278 25.9989C11.2611 26.2524 11.6961 26.4709 12.0518 26.5134C12.7172 26.593 13.2891 26.1066 13.2891 25.4611C13.2891 25.0419 13.1214 24.8028 12.6993 24.6197C12.1228 24.3697 11.5031 24.662 11.5061 25.1823C11.5074 25.4042 11.6079 25.5434 11.8394 25.6442C11.9879 25.7087 11.9914 25.7138 11.8703 25.6896C11.3413 25.5842 11.2174 24.9716 11.6427 24.5648C12.1533 24.0766 13.2092 24.292 13.5718 24.9586C13.7242 25.2386 13.7418 25.7961 13.609 26.1327C13.3118 26.8863 12.4451 27.2825 11.5659 27.0669C10.9674 26.92 10.7236 26.7611 10.0019 26.0469C8.74789 24.8057 8.26105 24.5652 6.45313 24.2941L6.10669 24.2421L6.50091 23.9223Z" fill="white"/>
<path fill-rule="evenodd" clip-rule="evenodd" d="M0.616766 1.70904C4.8047 6.5926 7.68914 8.60746 8.00968 9.03314C8.27434 9.38464 8.17474 9.70064 7.72134 9.9483C7.4692 10.086 6.95082 10.2255 6.69128 10.2255C6.39774 10.2255 6.29694 10.1167 6.29694 10.1167C6.12674 9.9616 6.03088 9.98873 5.1568 8.49807C3.94332 6.68897 2.92778 5.18824 2.90008 5.16311C2.83602 5.10501 2.83712 5.10697 5.03308 8.88199C5.38788 9.6688 5.10364 9.95762 5.10364 10.0697C5.10364 10.2976 5.03892 10.4175 4.74622 10.7311C4.25828 11.2541 4.04016 11.8418 3.8827 13.0579C3.7062 14.4212 3.20984 15.3843 1.83431 17.0325C1.02912 17.9973 0.897372 18.1741 0.6942 18.563C0.438288 19.0527 0.367922 19.3269 0.339402 19.9452C0.309258 20.5991 0.367966 21.0215 0.575868 21.6466C0.757878 22.1939 0.947864 22.5552 1.43356 23.2779C1.8527 23.9016 2.09404 24.3652 2.09404 24.5466C2.09404 24.6908 2.12272 24.691 2.77222 24.5501C4.32656 24.2129 5.58868 23.6197 6.2985 22.8928C6.73782 22.4429 6.84096 22.1945 6.8443 21.5781C6.8465 21.1748 6.83174 21.0904 6.71828 20.8584C6.5336 20.4808 6.19738 20.1668 5.45634 19.6802C4.4854 19.0424 4.07068 18.529 3.95614 17.823C3.86216 17.2437 3.97118 16.8349 4.50832 15.7533C5.06428 14.6337 5.20206 14.1566 5.29526 13.0281C5.35546 12.2991 5.43882 12.0115 5.65684 11.7807C5.88424 11.5401 6.08894 11.4586 6.65168 11.3847C7.56914 11.2643 8.15334 11.0362 8.63354 10.6111C9.0501 10.2423 9.22442 9.8869 9.25116 9.35193L9.27148 8.94645L9.03868 8.68568C8.19566 7.74129 0.0522006 0.966675 0.000320873 0.966675C-0.0107621 0.966675 0.26665 1.30076 0.616766 1.70904ZM2.56728 20.6851C2.75788 20.3607 2.6566 19.9439 2.33778 19.7401C2.03654 19.5477 1.56856 19.6384 1.56856 19.8892C1.56856 19.9657 1.61261 20.0214 1.71187 20.0705C1.87903 20.1531 1.89116 20.2461 1.75965 20.4359C1.62646 20.6283 1.63721 20.7975 1.78998 20.9123C2.0362 21.0975 2.38474 20.9956 2.56728 20.6851Z" fill="white"/>
<path fill-rule="evenodd" clip-rule="evenodd" d="M9.85042 11.5975C9.41972 11.7246 9.00103 12.1632 8.87143 12.623C8.79237 12.9036 8.83723 13.3957 8.95565 13.5477C9.14697 13.7931 9.332 13.8578 9.83298 13.8544C10.8138 13.8479 11.6665 13.4437 11.7656 12.9384C11.8469 12.5243 11.4724 11.9503 10.9566 11.6983C10.6904 11.5683 10.1243 11.5167 9.85042 11.5975ZM10.997 12.4589C11.1483 12.2524 11.0821 12.0293 10.8249 11.8783C10.335 11.5909 9.59412 11.8288 9.59412 12.2734C9.59412 12.4947 9.98046 12.7362 10.3346 12.7362C10.5703 12.7362 10.8928 12.6012 10.997 12.4589Z" fill="white"/>
<path d="M49.6499 22.0821C48.4707 22.0821 47.4858 21.874 46.6951 21.4578C45.9043 21.0416 45.2731 20.4798 44.8015 19.7723C44.3298 19.0509 43.9899 18.2463 43.7819 17.3585C43.5738 16.4707 43.4697 15.562 43.4697 14.6326V7.20389H44.531V14.6326C44.531 15.451 44.6142 16.2487 44.7807 17.0256C44.9471 17.7886 45.2177 18.4822 45.5922 19.1064C45.9806 19.7168 46.5009 20.2024 47.1529 20.563C47.8187 20.9237 48.6441 21.1041 49.6291 21.1041C50.6279 21.1041 51.4533 20.9237 52.1053 20.563C52.7712 20.1885 53.2914 19.6891 53.666 19.0648C54.0544 18.4406 54.3249 17.7469 54.4775 16.984C54.644 16.2071 54.7272 15.4233 54.7272 14.6326V7.20389H55.7884V14.6326C55.7884 15.6175 55.6775 16.5608 55.4555 17.4626C55.2474 18.3504 54.9006 19.1411 54.4151 19.8347C53.9295 20.5284 53.2914 21.0763 52.5007 21.4786C51.7238 21.8809 50.7736 22.0821 49.6499 22.0821Z" fill="white"/>
<path d="M67.8773 21.978H66.8369V15.9435C66.8369 14.5563 66.6357 13.5436 66.2334 12.9055C65.8311 12.2535 65.2068 11.9275 64.3606 11.9275C63.7502 11.9275 63.1537 12.0731 62.5711 12.3644C61.9884 12.6558 61.4752 13.0581 61.0312 13.5713C60.5873 14.0707 60.2683 14.6395 60.074 15.2776V21.978H59.0336V11.1575H60.0116V13.7378C60.4417 12.9193 61.0798 12.2535 61.926 11.7402C62.7861 11.2269 63.6947 10.9703 64.6519 10.9703C65.8311 10.9703 66.6634 11.3864 67.149 12.2188C67.6345 13.0511 67.8773 14.2303 67.8773 15.7562V21.978Z" fill="white"/>
<path d="M71.023 8.70211V6.78772H72.0634V8.70211H71.023ZM71.023 21.978V11.1575H72.0634V21.978H71.023Z" fill="white"/>
<path d="M78.7436 22.1861C77.8835 22.1861 77.0859 22.0405 76.3506 21.7491C75.6154 21.4578 74.9703 21.0139 74.4154 20.4174L74.894 19.6891C75.4767 20.2578 76.0732 20.674 76.6836 20.9376C77.3078 21.1873 77.9806 21.3122 78.702 21.3122C79.6176 21.3122 80.3667 21.1179 80.9493 20.7295C81.532 20.3411 81.8233 19.8001 81.8233 19.1064C81.8233 18.6348 81.6846 18.2741 81.4071 18.0244C81.1436 17.7747 80.7551 17.5666 80.2418 17.4001C79.7424 17.2337 79.132 17.0603 78.4107 16.8799C77.6754 16.6857 77.0581 16.4845 76.5587 16.2765C76.0593 16.0684 75.6778 15.7979 75.4142 15.4649C75.1645 15.132 75.0397 14.6811 75.0397 14.1124C75.0397 13.4049 75.2131 12.8222 75.5599 12.3644C75.9206 11.8928 76.3992 11.546 76.9957 11.324C77.6061 11.0882 78.2789 10.9703 79.0141 10.9703C79.8604 10.9703 80.5956 11.109 81.2199 11.3864C81.858 11.6639 82.3435 12.0315 82.6765 12.4893L82.1146 13.1552C81.7817 12.7251 81.3308 12.3991 80.7621 12.1772C80.1933 11.9552 79.5829 11.8442 78.9309 11.8442C78.4176 11.8442 77.939 11.9136 77.4951 12.0523C77.0651 12.191 76.7113 12.4199 76.4339 12.739C76.1703 13.0442 76.0385 13.4604 76.0385 13.9875C76.0385 14.4037 76.1356 14.7297 76.3298 14.9655C76.524 15.2013 76.8223 15.3956 77.2246 15.5482C77.6269 15.6869 78.1332 15.8395 78.7436 16.0059C79.5898 16.214 80.3181 16.4291 80.9285 16.651C81.5389 16.873 82.0106 17.1643 82.3435 17.525C82.6765 17.8718 82.8429 18.3643 82.8429 19.0024C82.8429 19.9873 82.4684 20.7642 81.7193 21.333C80.9701 21.9017 79.9783 22.1861 78.7436 22.1861Z" fill="white"/>
<path d="M98.7979 11.1575H99.8384L95.1564 21.978H94.2409L91.8479 16.3389L89.4549 21.978H88.5393L83.8573 11.1575H84.877L89.0179 20.8336L91.2444 15.5482L89.4341 11.1783H90.3704L91.8479 14.7366L93.3045 11.1783H94.2617L92.4513 15.5482L94.6778 20.8336L98.7979 11.1575Z" fill="white"/>
<path d="M100.691 18.8567C100.691 18.2186 100.878 17.6568 101.253 17.1712C101.641 16.6857 102.175 16.3111 102.855 16.0476C103.549 15.7701 104.339 15.6314 105.227 15.6314C105.782 15.6314 106.358 15.6799 106.954 15.7771C107.565 15.8742 108.099 16.0059 108.557 16.1724V15.1528C108.557 14.154 108.265 13.3563 107.683 12.7598C107.1 12.1633 106.309 11.865 105.31 11.865C104.769 11.865 104.208 11.976 103.625 12.198C103.042 12.4199 102.446 12.739 101.835 13.1552L101.398 12.4061C102.813 11.4489 104.152 10.9703 105.414 10.9703C106.691 10.9703 107.703 11.3517 108.453 12.1147C109.215 12.8777 109.597 13.9181 109.597 15.236V20.6047C109.597 20.9376 109.75 21.111 110.055 21.1249V21.978C109.791 22.0058 109.618 22.0127 109.535 21.9988C109.271 21.9711 109.063 21.8601 108.91 21.6659C108.772 21.4717 108.695 21.2705 108.681 21.0624V20.2093C108.182 20.8336 107.537 21.3191 106.746 21.6659C105.969 22.0127 105.151 22.1861 104.291 22.1861C103.611 22.1861 102.994 22.0405 102.439 21.7491C101.898 21.4439 101.468 21.0416 101.149 20.5422C100.843 20.0428 100.691 19.481 100.691 18.8567ZM108.14 19.7515C108.418 19.4047 108.557 19.0787 108.557 18.7735V16.984C107.558 16.5955 106.483 16.4013 105.331 16.4013C104.235 16.4013 103.354 16.6233 102.689 17.0672C102.023 17.4972 101.69 18.0729 101.69 18.7943C101.69 19.2521 101.808 19.6752 102.043 20.0636C102.279 20.4521 102.605 20.7642 103.021 21C103.451 21.2359 103.944 21.3538 104.499 21.3538C105.276 21.3538 105.99 21.2081 106.642 20.9168C107.294 20.6116 107.794 20.2232 108.14 19.7515Z" fill="white"/>
<path d="M118.048 22.1861C117.118 22.1861 116.286 21.9433 115.551 21.4578C114.829 20.9584 114.247 20.355 113.803 19.6475V26.4103H112.762V11.1575H113.719V13.3216C114.163 12.628 114.753 12.0662 115.488 11.6361C116.223 11.1922 117 10.9703 117.819 10.9703C118.568 10.9703 119.254 11.1298 119.879 11.4489C120.517 11.754 121.065 12.1772 121.523 12.7182C121.994 13.2453 122.355 13.8418 122.605 14.5077C122.868 15.1736 123 15.8672 123 16.5886C123 17.5874 122.792 18.5169 122.376 19.3769C121.96 20.2232 121.377 20.9029 120.628 21.4162C119.893 21.9295 119.033 22.1861 118.048 22.1861ZM117.798 21.2497C118.63 21.2497 119.359 21.0278 119.983 20.5838C120.607 20.1261 121.086 19.5434 121.419 18.8359C121.765 18.1146 121.939 17.3654 121.939 16.5886C121.939 15.7562 121.745 14.9863 121.356 14.2788C120.982 13.5713 120.461 13.0026 119.795 12.5725C119.143 12.1286 118.415 11.9066 117.611 11.9066C117.236 11.9066 116.834 11.9899 116.404 12.1563C115.988 12.3089 115.585 12.524 115.197 12.8014C114.822 13.065 114.503 13.3702 114.24 13.717C113.99 14.0638 113.844 14.4314 113.803 14.8199V18.3781C114.038 18.9053 114.357 19.3908 114.76 19.8347C115.176 20.2648 115.641 20.6116 116.154 20.8752C116.681 21.1249 117.229 21.2497 117.798 21.2497Z" fill="white"/>
</svg>
