<svg viewBox="0 0 35 34" fill="none" xmlns="http://www.w3.org/2000/svg">
    <g filter="url(#filter0_d_1142_4461)">
        <ellipse cx="17.0688" cy="16.7093" rx="14.0688" ry="13.7093" fill="white"/>
    </g>
    <g clip-path="url(#clip0_1142_4461)">
        <path d="M13.6054 25.9634L15.0025 26.2298L15.2921 24.7873L14.4593 24.6285L13.6054 25.9634Z" fill="#40434A"/>
        <path d="M15.292 24.7873L15.0026 26.2286L16.3997 26.495L16.1248 24.9461L15.292 24.7873Z" fill="#40434A"/>
        <path d="M6.26376 19.1763L10.7598 23.2248L12.3533 20.7969L11.0606 18.3188L6.26376 19.1763Z" fill="#373A40"/>
        <path d="M6.2642 19.1763L11.5219 15.0253L10.7931 13.7069L9.80896 11.9266L6.2642 19.1763Z" fill="#373A40"/>
        <path d="M22.5606 17.1298L25.824 22.9054L25.3458 14.8887L23.7456 16.1763L22.5606 17.1298Z" fill="#373A40"/>
        <path d="M20.0937 25.0044L25.824 22.9055L21.7144 20.3404L19.5596 22.1613L20.0937 25.0044Z" fill="#373A40"/>
        <path d="M19.5589 22.1658L21.7136 20.3449L19.876 18.9933L17.5394 20.8211L19.5589 22.1658Z" fill="#373A40"/>
        <path d="M11.0617 18.3142L12.3544 20.7923L14.7432 20.2976L13.2857 17.7417L11.0617 18.3142Z" fill="#373A40"/>
        <path d="M9.80858 11.9266L14.9204 10.603L13.8141 8.0368L12.0782 7.04786L10.2953 8.42299L9.80858 11.9266Z" fill="#373A40"/>
        <path d="M21.1224 11.7854L25.3453 14.8887L26.2541 11.4656L25.1334 9.53686L23.143 9.81538L21.1224 11.7854Z" fill="#373A40"/>
        <path d="M6.26376 19.1763L10.7598 23.2248L12.3533 20.7969L11.0606 18.3188L6.26376 19.1763Z" fill="#40434A"/>
        <path d="M6.23197 19.3343L11.4897 15.1833L10.7608 13.8649L9.77673 12.0846L6.23197 19.3343Z" fill="#40434A"/>
        <path d="M22.5606 17.1298L25.824 22.9054L25.3458 14.8887L23.7456 16.1763L22.5606 17.1298Z" fill="#40434A"/>
        <path d="M20.0937 25.0044L25.824 22.9055L21.7144 20.3404L19.5596 22.1613L20.0937 25.0044Z" fill="#40434A"/>
        <path d="M19.5589 22.1658L21.7136 20.3449L19.876 18.9933L17.5394 20.8211L19.5589 22.1658Z" fill="#40434A"/>
        <path d="M11.0617 18.3142L12.3544 20.7923L14.7432 20.2976L13.2857 17.7417L11.0617 18.3142Z" fill="#40434A"/>
        <path d="M9.80858 11.9266L14.9204 10.603L13.8141 8.0368L12.0782 7.04786L10.2953 8.42299L9.80858 11.9266Z" fill="#40434A"/>
        <path d="M21.1224 11.7854L25.3453 14.8887L26.2541 11.4656L25.1334 9.53686L23.143 9.81538L21.1224 11.7854Z" fill="#40434A"/>
        <path d="M6.26376 19.1763L10.7598 23.2248L12.3533 20.7969L11.0606 18.3188L6.26376 19.1763Z" fill="#48608E"/>
        <path d="M20.0937 25.0044L25.824 22.9055L21.7144 20.3404L19.5596 22.1613L20.0937 25.0044Z" fill="#48608E"/>
        <path d="M19.5589 22.1658L21.7136 20.3449L19.876 18.9933L17.5394 20.8211L19.5589 22.1658Z" fill="#48608E"/>
        <path d="M11.0617 18.3142L12.3544 20.7923L14.7432 20.2976L13.2857 17.7417L11.0617 18.3142Z" fill="#48608E"/>
        <path d="M6.26376 19.1763L10.7598 23.2248L12.3533 20.7969L11.0606 18.3188L6.26376 19.1763Z" fill="#5B78B3"/>
        <path d="M20.0937 25.0044L25.824 22.9055L21.7144 20.3404L19.5596 22.1613L20.0937 25.0044Z" fill="#5B78B3"/>
        <path d="M6.26392 19.1762L11.0626 18.3095L13.2875 17.7325L14.745 20.2884L15.8103 20.4915L15.1227 15.3091L11.5226 15.0206L6.26392 19.1762Z" fill="#DDDFE3"/>
        <path d="M12.3542 20.7923L14.459 24.6296L14.7446 20.2896L12.3542 20.7923Z" fill="#DDDFE3"/>
        <path d="M12.3544 20.7923L10.7608 23.2202L13.6087 25.9592L14.4624 24.6255L12.3544 20.7923Z" fill="#DDDFE3"/>
        <path d="M14.459 24.6285L15.2919 24.7872L16.1417 20.5548L14.7446 20.2884L14.459 24.6285Z" fill="#DDDFE3"/>
        <path d="M16.1422 20.5548L15.2924 24.7873L16.1241 24.9459L17.5382 20.8209L16.1411 20.5546L16.1422 20.5548Z" fill="#DDDFE3"/>
        <path d="M16.1239 24.9459L19.5589 22.1648L17.5375 20.8292L16.1239 24.9459Z" fill="#DDDFE3"/>
        <path d="M20.0934 25.0043L19.5575 22.1704L16.1238 24.9458L16.3986 26.4947L20.0934 25.0043Z" fill="#DDDFE3"/>
        <path d="M17.5391 20.8212L19.8766 18.9888L19.1131 16.0747L16.4738 20.6181L17.5391 20.8212Z" fill="#DDDFE3"/>
        <path d="M19.8759 18.9934L21.7135 20.345L22.5606 17.1298L19.1133 16.0747L19.8759 18.9934Z" fill="#DDDFE3"/>
        <path d="M21.7132 20.345L25.8228 22.9101L22.5593 17.1344L21.7132 20.345Z" fill="#DDDFE3"/>
        <path d="M14.459 24.6285L15.2919 24.7872L16.1417 20.5548L14.7446 20.2884L14.459 24.6285Z" fill="#EDEFF2"/>
        <path d="M16.1422 20.5548L15.2924 24.7873L16.1241 24.9459L17.5382 20.8209L16.1411 20.5546L16.1422 20.5548Z" fill="#EDEFF2"/>
        <path d="M11.0617 18.3142L13.2866 17.7371L15.1218 15.3137L11.5217 15.0252L11.0617 18.3142Z" fill="#EDEFF2"/>
        <path d="M19.8759 18.9934L21.7135 20.345L22.5606 17.1298L19.1133 16.0747L19.8759 18.9934Z" fill="#EDEFF2"/>
        <path d="M15.1218 15.3137L14.9206 10.6029L12.8517 12.1539L10.7827 13.7049L11.5116 15.0233L15.1218 15.3137Z" fill="#494D55"/>
        <path d="M14.9203 10.6029L9.80849 11.9265L10.7926 13.7068L12.8616 12.1558L14.9203 10.6029Z" fill="#494D55"/>
        <path d="M18.0215 11.1942L14.9204 10.603L15.1216 15.3137L17.1179 15.6943L18.0215 11.1942Z" fill="#494D55"/>
        <path d="M14.9202 10.6029L18.0212 11.1941L18.1606 10.4998L14.9202 10.6029Z" fill="#494D55"/>
        <path d="M18.1611 10.4998L18.0217 11.1941L21.1228 11.7853L18.1611 10.4998Z" fill="#494D55"/>
        <path d="M18.0215 11.1941L17.1179 15.6942L19.1131 16.0746L21.1214 11.7851L18.0215 11.1941Z" fill="#494D55"/>
        <path d="M21.123 11.7854L19.1135 16.0747L22.5597 17.1296L23.7447 16.1761L21.123 11.7854Z" fill="#494D55"/>
        <path d="M25.3455 14.8887L21.1226 11.7854L23.7454 16.1763L25.3455 14.8887Z" fill="#494D55"/>
        <path d="M15.8102 20.4915L16.1419 20.5547L17.1179 15.6942L15.1216 15.3136L15.8102 20.4915Z" fill="#494D55"/>
        <path d="M17.1182 15.6943L16.1422 20.5548L16.474 20.618L19.1133 16.0747L17.1182 15.6943Z" fill="#494D55"/>
        <path d="M14.9203 10.6029L9.80849 11.9265L10.7926 13.7068L14.9203 10.6029Z" fill="#5F6269"/>
        <path d="M25.3455 14.8887L21.1226 11.7854L23.7454 16.1763L25.3455 14.8887Z" fill="#5F6269"/>
        <path d="M14.9202 10.6029L18.0212 11.1941L18.1606 10.4998L14.9202 10.6029Z" fill="#595E65"/>
        <path d="M18.1611 10.4998L18.0217 11.1941L21.1228 11.7853L18.1611 10.4998Z" fill="#595E65"/>
        <path d="M18.0215 11.1942L14.9204 10.603L15.1216 15.3137L17.1179 15.6943L18.0215 11.1942Z" fill="#595E65"/>
        <path d="M18.0215 11.1941L17.1179 15.6942L19.1131 16.0746L21.1214 11.7851L18.0215 11.1941Z" fill="#595E65"/>
        <path d="M12.3394 18.8191L13.016 18.4255L13.4893 19.0383L12.8138 19.4321L12.3394 18.8191Z" fill="white"/>
        <path d="M19.1924 20.1257L19.8679 19.7318L20.3423 20.3449L19.666 20.7373L19.1924 20.1257Z" fill="white"/>
    </g>
    <defs>
        <filter id="filter0_d_1142_4461" x="0" y="0" width="34.1377" height="33.4185" filterUnits="userSpaceOnUse" color-interpolation-filters="sRGB">
            <feFlood flood-opacity="0" result="BackgroundImageFix"/>
            <feColorMatrix in="SourceAlpha" type="matrix" values="0 0 0 0 0 0 0 0 0 0 0 0 0 0 0 0 0 0 127 0" result="hardAlpha"/>
            <feMorphology radius="1" operator="erode" in="SourceAlpha" result="effect1_dropShadow_1142_4461"/>
            <feOffset/>
            <feGaussianBlur stdDeviation="2"/>
            <feComposite in2="hardAlpha" operator="out"/>
            <feColorMatrix type="matrix" values="0 0 0 0 0 0 0 0 0 0 0 0 0 0 0 0 0 0 0.25 0"/>
            <feBlend mode="normal" in2="BackgroundImageFix" result="effect1_dropShadow_1142_4461"/>
            <feBlend mode="normal" in="SourceGraphic" in2="effect1_dropShadow_1142_4461" result="shape"/>
        </filter>
        <clipPath id="clip0_1142_4461">
            <rect width="19.9123" height="18.2969" fill="white" transform="matrix(0.982306 0.187281 -0.196858 0.980432 8.82373 6.42732)"/>
        </clipPath>
    </defs>
</svg>
