<?xml version="1.0" encoding="utf-8"?>
<svg version="1.1" id="Слой_1" xmlns="http://www.w3.org/2000/svg" xmlns:xlink="http://www.w3.org/1999/xlink" x="0px" y="0px"
     viewBox="0 0 52 52" style="enable-background:new 0 0 52 52;" xml:space="preserve">
<style type="text/css">
	.st0{fill:#0B0E11;stroke:#FFFFFF;stroke-width:0.7361;}
	.st1{fill:#F0B90B;}
</style>
    <circle class="st0" cx="26" cy="26" r="24.7"/>
    <path class="st1" d="M19.1,23.1l6.9-6.9l6.9,6.9l4-4l-11-11l-11,11L19.1,23.1z M12.2,22l4,4l-4,4l-4-4L12.2,22z M19.1,28.9l6.9,6.9
	l6.9-6.9l4,4l0,0l-11,11l-11-11l0,0L19.1,28.9z M43.9,26l-4,4l-4-4l4-4L43.9,26z"/>
    <path class="st1" d="M30.1,26L30.1,26L26,21.9L21.9,26l0,0l4.1,4.1L30.1,26L30.1,26z"/>
</svg>
