<svg width="30" height="30" viewBox="0 0 30 30" fill="none" xmlns="http://www.w3.org/2000/svg">
<path d="M14.9979 6.77937L20.8268 12.6086L24.2163 9.21889L14.9979 0L5.78247 9.21597L9.17196 12.6057L14.9979 6.77937Z" fill="white"/>
<path d="M3.39003 11.6084L0 14.9987L3.39003 18.3889L6.78007 14.9987L3.39003 11.6084Z" fill="white"/>
<path d="M26.61 11.6089L23.22 14.9991L26.61 18.3894L30 14.9992L26.61 11.6089Z" fill="white"/>
<path d="M14.9979 23.2178L9.17194 17.3915L5.77954 20.7782L5.78246 20.7841L14.9979 30.0001L24.2163 20.7812L24.2192 20.7782L20.8268 17.3915L14.9979 23.2178Z" fill="white"/>
<path d="M14.9979 11.5593L12.4565 14.1009L12.165 14.3923L11.5617 14.9956L11.5559 14.9986L11.5617 15.0044L14.9979 18.4407L18.4369 15.0015L18.4398 14.9986H18.4369L14.9979 11.5593Z" fill="white"/>
</svg>
