<svg width="52" height="52" viewBox="0 0 52 52" fill="none" xmlns="http://www.w3.org/2000/svg">
    <circle cx="26.1618" cy="26.0265" r="25.0265" fill="#191B20" stroke="white" stroke-width="0.736074"/>
    <path d="M26.1574 7.82483L25.9214 8.64118V32.3297L26.1574 32.5695L36.9611 26.0698L26.1574 7.82483Z" fill="#5966AB"/>
    <path d="M26.1585 7.82501L15.3548 26.07L26.1585 32.5698V21.072V7.82501Z" fill="#8091CC"/>
    <path d="M26.1585 7.82501L15.3548 26.07L26.1585 32.5698V21.072V7.82501Z" fill="url(#vvvpaint0_linear)" fill-opacity="0.7"/>
    <path d="M26.1587 34.6521L26.0257 34.817V43.2554L26.1587 43.6508L36.9688 28.1556L26.1587 34.6521Z" fill="#5966AB"/>
    <path d="M26.1583 43.6508V34.6521L15.3546 28.1556L26.1583 43.6508Z" fill="#8091CC"/>
    <path d="M26.1586 32.5698L36.9621 26.0702L26.1586 21.0723V32.5698Z" fill="#3B498A"/>
    <path d="M15.3546 26.0702L26.1581 32.5698V21.0723L15.3546 26.0702Z" fill="#5966AB"/>
    <defs>
        <linearGradient id="vvvpaint0_linear" x1="20.7566" y1="7.82501" x2="20.7566" y2="32.5698" gradientUnits="userSpaceOnUse">
            <stop stop-color="white"/>
            <stop offset="1" stop-color="white" stop-opacity="0"/>
        </linearGradient>
    </defs>
</svg>
