<svg width="213" height="55" viewBox="0 0 213 55" fill="none" xmlns="http://www.w3.org/2000/svg">
<path d="M1.06799 17.6421C-1.98491 10.6835 1.73502 5.68888 9.32469 6.54716L43.6525 10.4141C51.2453 11.2692 53.7416 16.9608 49.2096 23.0643L28.6719 50.6605C24.1225 56.7625 17.911 56.0687 14.8581 49.1069L1.06799 17.6421Z" fill="#0372C7"/>
<path d="M6.43457 8.55809C6.43457 0.933869 11.8796 -2.18442 18.5342 1.62613L48.6248 18.8636C55.2793 22.6789 55.2793 28.9171 48.6248 32.7275L18.5342 49.9652C11.8796 53.7787 6.43457 50.6574 6.43457 43.0332V8.55809Z" fill="#3794DB"/>
<path fill-rule="evenodd" clip-rule="evenodd" d="M73.0388 11.7383V23.1089H87.4866V11.7383H90.6128V39.7244H87.4866V26.0461H73.0388V39.7244H69.9126V11.7383H73.0388ZM110.553 24.7873V22.3117H113.594V39.7244H110.553V37.2908C109.539 38.5915 107.638 40.228 104.554 40.228C100.118 40.228 96.0203 37.123 96.0203 30.9971C96.0203 24.997 100.076 21.8921 104.554 21.8921C107.933 21.8921 109.75 23.7384 110.553 24.7873ZM104.892 24.5775C101.892 24.5775 99.1465 26.7593 99.1465 30.9971C99.1465 34.7313 101.259 37.5426 104.892 37.5426C108.609 37.5426 110.722 34.4797 110.722 31.0391C110.722 26.5495 107.595 24.5775 104.892 24.5775ZM129.056 25.0391L126.564 26.3397C126.141 25.3327 125.254 24.5775 124.113 24.5775C123.015 24.5775 122.001 25.2068 122.001 26.5495C122.001 27.8083 122.846 28.1858 124.832 29.0251C127.366 30.0739 128.549 30.8712 129.225 31.7105C129.986 32.6334 130.154 33.5566 130.154 34.5215C130.154 38.1719 127.493 40.228 124.113 40.228C123.395 40.228 119.466 40.1439 117.988 35.7804L120.607 34.6895C120.945 35.6124 121.959 37.5426 124.156 37.5426C126.141 37.5426 127.028 36.074 127.028 34.7733C127.028 33.137 125.845 32.5916 124.198 31.8782C122.086 30.9551 120.734 30.2837 119.931 29.3187C119.255 28.4796 119.128 27.6404 119.128 26.7593C119.128 23.6964 121.283 21.8921 124.24 21.8921C125.17 21.8921 127.662 22.06 129.056 25.0391ZM134.21 39.7244V9.13684H137.252V24.3257C137.801 23.6125 139.364 21.8921 142.279 21.8921C144.349 21.8921 146.25 22.7314 147.306 24.2838C148.193 25.5845 148.32 27.0111 148.32 28.9412V39.7244H145.278V29.0251C145.278 27.976 145.194 26.7593 144.476 25.8363C143.884 25.0809 142.955 24.5775 141.603 24.5775C140.547 24.5775 139.406 24.8711 138.519 25.9202C137.336 27.3047 137.252 29.3608 137.252 30.6194V39.7244H134.21ZM157.107 37.2908V39.7244H154.065V9.13684H157.107V24.7452C159.177 22.1859 161.839 21.8921 163.106 21.8921C168.598 21.8921 171.639 26.4236 171.639 31.123C171.639 35.9063 168.556 40.228 163.233 40.228C160.402 40.228 158.417 38.9692 157.107 37.2908ZM162.81 37.5426C166.359 37.5426 168.513 34.6054 168.513 31.123C168.513 26.8431 165.598 24.5775 162.768 24.5775C159.937 24.5775 156.938 26.8852 156.938 31.081C156.938 34.6474 159.219 37.5426 162.81 37.5426ZM184.482 40.228C179.159 40.228 175.188 36.3677 175.188 31.081C175.188 25.7943 179.117 21.8921 184.482 21.8921C189.847 21.8921 193.776 25.7943 193.776 31.081C193.776 36.3677 189.804 40.228 184.482 40.228ZM184.482 24.5775C181.271 24.5775 178.314 26.8431 178.314 31.081C178.314 35.3608 181.356 37.5426 184.482 37.5426C187.65 37.5426 190.65 35.3188 190.65 31.081C190.65 26.8013 187.692 24.5775 184.482 24.5775ZM198.424 39.7244V22.3117H201.465V24.3257C202.013 23.6125 203.577 21.8921 206.491 21.8921C208.563 21.8921 210.463 22.7314 211.519 24.2838C212.406 25.5845 212.533 27.0111 212.533 28.9412V39.7244H209.492V29.0251C209.492 27.976 209.407 26.7593 208.688 25.8363C208.097 25.0809 207.168 24.5775 205.816 24.5775C204.76 24.5775 203.619 24.8711 202.732 25.9202C201.549 27.3047 201.465 29.3608 201.465 30.6194V39.7244H198.424Z" fill="white"/>
</svg>
