<svg viewBox="0 0 110 51" fill="none" xmlns="http://www.w3.org/2000/svg">
    <path d="M109.185 11.926C108.737 11.3218 108.15 10.8373 107.474 10.5148C106.799 10.1922 106.055 10.0414 105.309 10.0755C104.561 10.0632 103.821 10.2294 103.149 10.5606C102.477 10.8919 101.892 11.3788 101.442 11.9816V10.3993H99.1055V23.9541H101.442V16.8298C101.34 15.5193 101.686 14.2129 102.422 13.1289C102.714 12.7844 103.079 12.5113 103.49 12.3301C103.901 12.149 104.347 12.0646 104.796 12.0833C105.214 12.0608 105.632 12.1378 106.015 12.3081C106.399 12.4785 106.738 12.7374 107.004 13.064C107.474 13.8065 107.689 14.6841 107.618 15.5623V23.8894H109.963V15.4512C110.061 14.2238 109.79 12.9951 109.185 11.926Z" fill="white"/>
    <path d="M31.493 12.2964C30.9633 11.5774 30.2713 10.9965 29.4744 10.6022C28.6775 10.2079 27.7988 10.0115 26.9116 10.0294C23.4663 10.0294 20.3418 12.4536 20.3418 17.1539C20.3418 21.8541 23.4938 24.3799 26.9116 24.3799C27.8002 24.3832 28.6773 24.1766 29.4728 23.7766C30.2683 23.3766 30.9601 22.7942 31.493 22.0761V23.9544H33.8387V10.3534H31.493V12.2964ZM27.1315 22.2796C24.3826 22.2796 22.715 20.0776 22.715 17.1539C22.715 13.8323 24.8224 12.1298 27.1315 12.1298C29.2206 12.1298 31.6213 13.6749 31.6213 17.1908C31.6213 19.8833 29.9994 22.2796 27.1315 22.2796Z" fill="white"/>
    <path d="M71.9463 10.0752C71.0653 10.0724 70.1951 10.2716 69.4015 10.6579C68.6079 11.0441 67.9115 11.6074 67.3648 12.305V0.0917969H65.0283V23.9538H67.3648V22.1033C67.9135 22.8383 68.6278 23.4307 69.4484 23.8314C70.2691 24.232 71.1725 24.4294 72.0837 24.4071C76.1795 24.4071 78.5527 21.0208 78.5527 17.2828C78.5527 13.5449 76.1978 10.0752 71.9463 10.0752ZM71.7172 22.3254C68.9683 22.3254 67.1999 20.0585 67.1999 17.2643C67.1999 13.9797 69.5089 12.1755 71.6897 12.1755C73.8705 12.1755 76.1154 13.952 76.1154 17.3014C76.1154 19.9753 74.4569 22.279 71.7172 22.279V22.3254Z" fill="white"/>
    <path d="M13.7445 10.9824H2.62077V2.08154H0.210938V23.982H2.62077V13.277H13.7445V23.982H16.1451V2.08154H13.7445V10.9824Z" fill="white"/>
    <path d="M41.9659 22.2796C41.3343 22.2402 40.7305 22.0036 40.238 21.6025C39.7455 21.2013 39.3887 20.6555 39.217 20.0406L37.2012 20.901C37.5015 21.9211 38.1247 22.8137 38.9754 23.442C39.826 24.0703 40.8571 24.3997 41.9109 24.3799C44.5131 24.3799 46.5656 22.77 46.5656 19.911C46.6063 19.1129 46.3515 18.328 45.8509 17.7089C45.3286 17.052 44.4215 16.4321 42.4698 15.6086C40.9396 14.9517 40.289 14.6834 40.289 13.6749C40.2816 13.462 40.3192 13.2499 40.3994 13.0528C40.4795 12.8557 40.6004 12.6781 40.7538 12.5319C40.9073 12.3857 41.0899 12.2742 41.2894 12.2048C41.4889 12.1355 41.7008 12.1098 41.9109 12.1297C42.3261 12.1418 42.7282 12.2797 43.0648 12.5256C43.4014 12.7714 43.6571 13.1138 43.7984 13.5083L45.7226 12.4906C45.4288 11.7549 44.9215 11.1262 44.2674 10.687C43.6133 10.2477 42.843 10.0185 42.0575 10.0294C41.5457 9.99159 41.0317 10.0627 40.5489 10.2382C40.0661 10.4137 39.6251 10.6897 39.2546 11.0482C38.884 11.4066 38.5921 11.8396 38.3978 12.3192C38.2035 12.7988 38.1111 13.3143 38.1266 13.8322C38.0804 14.5549 38.2989 15.2694 38.7405 15.8399C39.6753 16.7435 40.7951 17.4289 42.0208 17.8477C43.2945 18.4029 44.2016 18.8284 44.2016 20.1053C44.2099 20.4002 44.1571 20.6937 44.0465 20.9668C43.936 21.24 43.7702 21.4869 43.5597 21.6916C43.3492 21.8963 43.0988 22.0543 42.8243 22.1556C42.5498 22.2568 42.2574 22.299 41.9659 22.2796Z" fill="white"/>
    <path d="M88.4034 10.0754C86.9995 10.0845 85.6297 10.5131 84.4666 11.3072C83.3036 12.1012 82.3993 13.2252 81.8679 14.5374C81.3365 15.8496 81.2017 17.2913 81.4804 18.6807C81.7592 20.0702 82.4391 21.3452 83.4344 22.3451C84.4297 23.345 85.6958 24.0249 87.0732 24.2993C88.4506 24.5736 89.8776 24.43 91.1744 23.8867C92.4711 23.3433 93.5795 22.4245 94.3599 21.246C95.1403 20.0675 95.5578 18.6822 95.5596 17.2645C95.5851 16.3103 95.4171 15.3609 95.066 14.4746C94.7149 13.5883 94.1881 12.7838 93.5179 12.1105C92.8478 11.4373 92.0484 10.9094 91.1688 10.5595C90.2893 10.2095 89.3483 10.0448 88.4034 10.0754ZM88.4034 22.3256C87.3978 22.3811 86.3989 22.1307 85.5358 21.6066C84.6728 21.0824 83.9854 20.3087 83.5627 19.3857C83.14 18.4627 83.0014 17.4328 83.1648 16.4293C83.3282 15.4258 83.7862 14.4951 84.4793 13.7574C85.1725 13.0197 86.069 12.5089 87.0528 12.2915C88.0366 12.074 89.0624 12.1598 89.9974 12.5376C90.9324 12.9154 91.7336 13.5679 92.2973 14.4106C92.8609 15.2534 93.1611 16.2476 93.1589 17.2645C93.1982 17.9154 93.1037 18.5674 92.8814 19.1796C92.6591 19.7918 92.3138 20.3511 91.8672 20.822C91.4206 21.293 90.8823 21.6656 90.2862 21.9164C89.6901 22.1672 89.0491 22.2907 88.4034 22.2792V22.3256Z" fill="white"/>
    <path d="M52.0446 16.8579C51.9424 15.5473 52.2885 14.241 53.025 13.1569C53.3162 12.8124 53.6812 12.5394 54.0923 12.3583C54.5035 12.1771 54.95 12.0926 55.3981 12.1114C55.8166 12.0888 56.2344 12.1659 56.6179 12.3362C57.0015 12.5066 57.3401 12.7655 57.6064 13.0922C58.0789 13.8337 58.2978 14.7112 58.2295 15.5903V23.9174H60.566V15.4793C60.6886 14.2119 60.4163 12.9375 59.7871 11.8339C59.3404 11.2309 58.7547 10.7472 58.0809 10.4248C57.407 10.1023 56.6654 9.95078 55.9204 9.98338C55.1714 9.97034 54.4298 10.1361 53.7563 10.4673C53.0827 10.7986 52.4963 11.2858 52.0446 11.8893V0H49.708V23.9545H52.0446V16.8579Z" fill="white"/>
    <path d="M13.0571 39.9978C13.5623 39.5306 13.9597 38.9569 14.221 38.3173C14.4822 37.6778 14.601 36.988 14.5689 36.2969C14.5886 35.6313 14.4718 34.9689 14.2258 34.3511C13.9798 33.7333 13.61 33.1735 13.1395 32.7069C12.4271 32.0578 11.5929 31.5596 10.6863 31.2417C9.77978 30.9239 8.8193 30.7928 7.86173 30.8565H0V49.7407H1.55768V41.9964H7.47689L13.3778 49.7407H15.3569L9.227 41.728C10.6453 41.5474 11.9784 40.9452 13.0571 39.9978ZM1.55768 40.5346V32.2814H7.78842C9.15616 32.2011 10.512 32.5784 11.646 33.3547C12.089 33.6937 12.4444 34.1356 12.6821 34.643C12.9198 35.1504 13.0327 35.7083 13.0112 36.2692C13.0306 36.8663 12.9066 37.4592 12.6497 37.9974C12.3928 38.5355 12.0107 39.0029 11.536 39.3595C10.4211 40.1611 9.07344 40.5648 7.70596 40.5068L1.55768 40.5346Z" fill="white"/>
    <path d="M29.9532 37.7217C29.301 37.0464 28.5216 36.5096 27.6608 36.1431C26.8 35.7767 25.8753 35.5879 24.9411 35.5879C24.0069 35.5879 23.0822 35.7767 22.2214 36.1431C21.3606 36.5096 20.5812 37.0464 19.929 37.7217C18.6402 39.0964 17.9219 40.9175 17.9219 42.8106C17.9219 44.7036 18.6402 46.5247 19.929 47.8994C20.5818 48.5736 21.3615 49.1093 22.2222 49.4751C23.0829 49.8408 24.0073 50.0293 24.9411 50.0293C25.8749 50.0293 26.7993 49.8408 27.66 49.4751C28.5207 49.1093 29.3004 48.5736 29.9532 47.8994C31.242 46.5247 31.9603 44.7036 31.9603 42.8106C31.9603 40.9175 31.242 39.0964 29.9532 37.7217ZM30.3655 42.8198C30.3867 44.3461 29.8105 45.819 28.762 46.9186C28.2736 47.4568 27.6796 47.8866 27.0179 48.1806C26.3562 48.4746 25.6411 48.6264 24.9182 48.6264C24.1952 48.6264 23.4802 48.4746 22.8185 48.1806C22.1567 47.8866 21.5628 47.4568 21.0744 46.9186C20.0557 45.7959 19.4907 44.3286 19.4907 42.8059C19.4907 41.2833 20.0557 39.816 21.0744 38.6933C21.5565 38.1543 22.1463 37.7246 22.8049 37.4327C23.4636 37.1409 24.176 36.9934 24.8953 37C25.6215 36.9915 26.3414 37.1379 27.0077 37.4297C27.674 37.7215 28.2718 38.1521 28.762 38.6933C29.2895 39.2384 29.7044 39.8838 29.9829 40.5922C30.2613 41.3006 30.3976 42.0578 30.3838 42.8198H30.3655Z" fill="white"/>
    <path d="M46.0438 46.5944C45.5263 47.2044 44.8898 47.7001 44.1741 48.0503C43.4583 48.4005 42.6786 48.5979 41.8839 48.63C41.1552 48.6399 40.4328 48.4931 39.7646 48.1996C39.0964 47.9061 38.4976 47.4725 38.008 46.9275C36.9919 45.8054 36.4285 44.34 36.4285 42.8195C36.4285 41.299 36.9919 39.8335 38.008 38.7114C38.48 38.1714 39.0612 37.74 39.7125 37.4463C40.3637 37.1526 41.0698 37.0035 41.7831 37.009C43.3753 37.082 44.8756 37.7829 45.9613 38.9612L46.2912 39.285L47.3174 38.2211L47.0059 37.8972C46.3534 37.1604 45.552 36.5734 44.6558 36.176C43.7595 35.7786 42.7893 35.5799 41.8106 35.5933C40.8835 35.5731 39.9628 35.7525 39.1097 36.1194C38.2566 36.4863 37.4906 37.0325 36.8626 37.7214C35.5738 39.0961 34.8555 40.9172 34.8555 42.8102C34.8555 44.7033 35.5738 46.5244 36.8626 47.8991C37.4925 48.5868 38.2606 49.1308 39.1155 49.4946C39.9704 49.8584 40.8923 50.0337 41.8197 50.0086C42.8261 50.0034 43.82 49.7829 44.736 49.3619C45.652 48.9409 46.4693 48.3289 47.1342 47.566L47.464 47.2237L46.3737 46.2429L46.0438 46.5944Z" fill="white"/>
    <path d="M62.5551 35.9172H60.5759L52.3477 44.5127V30.0327H50.8633V49.7218H52.3477V46.354L55.5272 43.1156L60.8325 49.7218H62.7108L56.5626 42.0516L62.5551 35.9172Z" fill="white"/>
    <path d="M71.2413 35.5937C70.3735 35.5821 69.5137 35.7624 68.7222 36.1221C67.9308 36.4817 67.2268 37.0119 66.6599 37.6755C65.4279 39.0843 64.7728 40.9135 64.8273 42.7921C64.7951 43.7514 64.9536 44.7074 65.2935 45.6038C65.6335 46.5001 66.148 47.3184 66.8065 48.0105C67.4093 48.6649 68.1419 49.1836 68.9565 49.5328C69.7712 49.8819 70.6497 50.0536 71.5346 50.0367C72.539 50.0412 73.5338 49.8393 74.4584 49.4432C75.3831 49.0471 76.2183 48.4652 76.9131 47.7329L77.2613 47.3905L76.2168 46.4653L75.9144 46.7614C75.3534 47.3472 74.6814 47.813 73.9384 48.1309C73.1953 48.4488 72.3965 48.6124 71.5895 48.6119C70.9384 48.6184 70.2925 48.495 69.6887 48.2489C69.0849 48.0028 68.5352 47.6388 68.071 47.1777C67.0651 46.1833 66.4692 44.8413 66.4034 43.4213H77.5912V42.8014C77.6535 40.9253 77.038 39.0903 75.8594 37.6386C75.2998 36.959 74.5911 36.4204 73.7895 36.0655C72.9879 35.7106 72.1155 35.549 71.2413 35.5937ZM66.3209 42.0704C66.4165 40.7222 66.9624 39.4468 67.8694 38.4528C68.2874 37.9835 68.7991 37.6089 69.3708 37.3537C69.9425 37.0986 70.5613 36.9685 71.1864 36.9723C71.8241 36.9414 72.4603 37.0597 73.0452 37.3182C73.6301 37.5766 74.148 37.9681 74.5583 38.4621C75.3763 39.4916 75.8567 40.7527 75.9327 42.0704H66.3209Z" fill="white"/>
    <path d="M83.3177 31.5596H81.8333V35.9083H79.8633V37.2961H81.815V46.1599C81.7766 46.6882 81.8544 47.2185 82.043 47.7128C82.2315 48.2071 82.526 48.653 82.9054 49.0189C83.6794 49.6552 84.6569 49.9842 85.6542 49.9441C86.3417 49.9466 87.0231 49.8147 87.6609 49.5556L87.9449 49.4353V48.0104L87.331 48.2324C86.8616 48.4087 86.3657 48.5027 85.8649 48.51C84.1148 48.51 83.2627 47.6773 83.2627 45.9564V37.2591H87.9999V35.8712H83.2627L83.3177 31.5596Z" fill="white"/>
</svg>
