<svg width="41" height="42" viewBox="0 0 41 42" fill="none" xmlns="http://www.w3.org/2000/svg">
    <path d="M3.28 27.5661L12.2829 32.9061L14.1584 28.3265L11.1226 24.5927L3.28 27.5661Z" fill="#373A40"/>
    <path d="M3.28 27.5661L10.7824 18.9451L9.0975 16.9715L6.82182 14.3058L3.28 27.5661Z" fill="#373A40"/>
    <path d="M30.2188 18.9451L37.7211 27.5661L34.1793 14.3058L31.9036 16.9715L30.2188 18.9451Z" fill="#373A40"/>
    <path d="M28.7183 32.9061L37.7211 27.5661L29.8785 24.5927L26.8427 28.3265L28.7183 32.9061Z" fill="#373A40"/>
    <path d="M26.8427 28.3265L29.8785 24.5927L26.3018 22.9181L22.9606 26.7287L26.8427 28.3265Z" fill="#373A40"/>
    <path d="M11.1226 24.5927L14.1584 28.3265L18.0405 26.7287L14.6993 22.9181L11.1226 24.5927Z" fill="#373A40"/>
    <path d="M18.0405 36.58H20.5006V34.0766H19.035L18.0405 36.58Z" fill="#373A40"/>
    <path d="M20.5006 34.0766V36.58H22.9606L21.9661 34.0766H20.5006Z" fill="#373A40"/>
    <path d="M6.82182 14.3058L15.0395 10.4609L12.2829 6.52216L9.00274 5.41998L6.4467 8.29077L6.82182 14.3058Z" fill="#373A40"/>
    <path d="M25.9616 10.4609L34.1793 14.3058L34.5544 8.29077L31.9984 5.41998L28.7183 6.52216L25.9616 10.4609Z" fill="#373A40"/>
    <path d="M3.28 27.5661L12.2829 32.9061L14.1584 28.3265L11.1226 24.5927L3.28 27.5661Z" fill="#40434A"/>
    <path d="M3.28 27.5661L10.7824 18.9451L9.0975 16.9715L6.82182 14.3058L3.28 27.5661Z" fill="#40434A"/>
    <path d="M30.2188 18.9451L37.7211 27.5661L34.1793 14.3058L31.9036 16.9715L30.2188 18.9451Z" fill="#40434A"/>
    <path d="M28.7183 32.9061L37.7211 27.5661L29.8785 24.5927L26.8427 28.3265L28.7183 32.9061Z" fill="#40434A"/>
    <path d="M26.8427 28.3265L29.8785 24.5927L26.3018 22.9181L22.9606 26.7287L26.8427 28.3265Z" fill="#40434A"/>
    <path d="M11.1226 24.5927L14.1584 28.3265L18.0405 26.7287L14.6993 22.9181L11.1226 24.5927Z" fill="#40434A"/>
    <path d="M18.0405 36.58H20.5006V34.0766H19.035L18.0405 36.58Z" fill="#40434A"/>
    <path d="M20.5006 34.0766V36.58H22.9606L21.9661 34.0766H20.5006Z" fill="#40434A"/>
    <path d="M6.82182 14.3058L15.0395 10.4609L12.2829 6.52216L9.00274 5.41998L6.4467 8.29077L6.82182 14.3058Z" fill="#40434A"/>
    <path d="M25.9616 10.4609L34.1793 14.3058L34.5544 8.29077L31.9984 5.41998L28.7183 6.52216L25.9616 10.4609Z" fill="#40434A"/>
    <path d="M3.28 27.5661L12.2829 32.9061L14.1584 28.3265L11.1226 24.5927L3.28 27.5661Z" fill="#48608E"/>
    <path d="M28.7183 32.9061L37.7211 27.5661L29.8785 24.5927L26.8427 28.3265L28.7183 32.9061Z" fill="#48608E"/>
    <path d="M26.8427 28.3265L29.8785 24.5927L26.3018 22.9181L22.9606 26.7287L26.8427 28.3265Z" fill="#48608E"/>
    <path d="M11.1226 24.5927L14.1584 28.3265L18.0405 26.7287L14.6993 22.9181L11.1226 24.5927Z" fill="#48608E"/>
    <path d="M3.28 27.5661L12.2829 32.9061L14.1584 28.3265L11.1226 24.5927L3.28 27.5661Z" fill="#5B78B3"/>
    <path d="M28.7183 32.9061L37.7211 27.5661L29.8785 24.5927L26.8427 28.3265L28.7183 32.9061Z" fill="#5B78B3"/>
    <path d="M3.28 27.5661L11.1226 24.5927L14.6993 22.9181L18.0405 26.7287H19.9161L16.9849 18.2787L10.7824 18.9451L3.28 27.5661Z" fill="#DDDFE3"/>
    <path d="M14.1584 28.3265L19.035 34.0766L18.0405 26.7287L14.1584 28.3265Z" fill="#DDDFE3"/>
    <path d="M14.1584 28.3265L12.2828 32.9061L18.0405 36.58L19.035 34.0766L14.1584 28.3265Z" fill="#DDDFE3"/>
    <path d="M19.035 34.0766H20.5006V26.7287H19.9161H18.0405L19.035 34.0766Z" fill="#DDDFE3"/>
    <path d="M20.5006 26.7287V34.0766H21.9661L22.9606 26.7287H21.0851H20.5006Z" fill="#DDDFE3"/>
    <path d="M21.9661 34.0766L26.8427 28.3265L22.9606 26.7287L21.9661 34.0766Z" fill="#DDDFE3"/>
    <path d="M28.7183 32.9061L26.8427 28.3265L21.9661 34.0766L22.9606 36.58L28.7183 32.9061Z" fill="#DDDFE3"/>
    <path d="M22.9606 26.7287L26.3018 22.9181L24.0162 18.2787L21.0851 26.7287H22.9606Z" fill="#DDDFE3"/>
    <path d="M26.3018 22.9181L29.8785 24.5927L30.2188 18.9451L24.0162 18.2787L26.3018 22.9181Z" fill="#DDDFE3"/>
    <path d="M29.8785 24.5927L37.7211 27.5661L30.2188 18.9451L29.8785 24.5927Z" fill="#DDDFE3"/>
    <path d="M19.035 34.0766H20.5006V26.7287H19.9161H18.0405L19.035 34.0766Z" fill="#EDEFF2"/>
    <path d="M20.5006 26.7287V34.0766H21.9661L22.9606 26.7287H21.0851H20.5006Z" fill="#EDEFF2"/>
    <path d="M11.1226 24.5927L14.6993 22.9181L16.9849 18.2787L10.7824 18.9451L11.1226 24.5927Z" fill="#EDEFF2"/>
    <path d="M26.3018 22.9181L29.8785 24.5927L30.2188 18.9451L24.0162 18.2787L26.3018 22.9181Z" fill="#EDEFF2"/>
    <path d="M16.9849 18.2787L15.0395 10.4609L12.0685 13.7162L9.0975 16.9715L10.7824 18.9451L16.9849 18.2787Z" fill="#494D55"/>
    <path d="M15.0395 10.4609L6.82182 14.3058L9.0975 16.9715L12.0685 13.7162L15.0395 10.4609Z" fill="#494D55"/>
    <path d="M20.5006 10.4609H15.0395L16.9849 18.2787H20.5006V10.4609Z" fill="#494D55"/>
    <path d="M15.0395 10.4609H20.5006V9.25624L15.0395 10.4609Z" fill="#494D55"/>
    <path d="M20.5006 9.25624V10.4609H25.9616L20.5006 9.25624Z" fill="#494D55"/>
    <path d="M20.5006 10.4609V18.2787H24.0162L25.9616 10.4609H20.5006Z" fill="#494D55"/>
    <path d="M25.9616 10.4609L24.0162 18.2787L30.2188 18.9451L31.9036 16.9715L25.9616 10.4609Z" fill="#494D55"/>
    <path d="M34.1793 14.3058L25.9616 10.4609L31.9036 16.9715L34.1793 14.3058Z" fill="#494D55"/>
    <path d="M19.9161 26.7287H20.5006V18.2787H16.9849L19.9161 26.7287Z" fill="#494D55"/>
    <path d="M20.5006 18.2787V26.7287H21.0851L24.0162 18.2787H20.5006Z" fill="#494D55"/>
    <path d="M15.0395 10.4609L6.82182 14.3058L9.0975 16.9715L15.0395 10.4609Z" fill="#5F6269"/>
    <path d="M34.1793 14.3058L25.9616 10.4609L31.9036 16.9715L34.1793 14.3058Z" fill="#5F6269"/>
    <path d="M15.0395 10.4609H20.5006V9.25624L15.0395 10.4609Z" fill="#595E65"/>
    <path d="M20.5006 9.25624V10.4609H25.9616L20.5006 9.25624Z" fill="#595E65"/>
    <path d="M20.5006 10.4609H15.0395L16.9849 18.2787H20.5006V14.3698V10.4609Z" fill="#595E65"/>
    <path d="M20.5006 10.4609V14.3698V18.2787H24.0162L25.9616 10.4609H20.5006Z" fill="#595E65"/>
    <rect width="1.33801" height="1.33801" transform="matrix(0.756955 -0.653467 0.756955 0.653467 13.4613 25.0302)" fill="white"/>
    <rect width="1.33716" height="1.33716" transform="matrix(0.756952 -0.653471 0.756952 0.653471 25.5291 25.0296)" fill="white"/>
</svg>
