<svg width="35" height="35" viewBox="0 0 35 35" fill="none" xmlns="http://www.w3.org/2000/svg">
<path d="M11.0668 14.9369L17.6516 8.35214L24.2395 14.9398L28.0708 11.1084L17.6516 0.689453L7.23575 11.1053L11.067 14.9366L11.0668 14.9369ZM0.69873 17.6423L4.53021 13.8103L8.36142 17.6415L4.52994 21.473L0.69873 17.6423ZM11.0668 20.3481L17.6516 26.9325L24.2393 20.345L28.0727 24.1743L28.0708 24.1763L17.6516 34.5952L7.23575 24.1793L7.23033 24.1739L11.0672 20.3477L11.0668 20.3481ZM26.9417 17.6439L30.7732 13.8125L34.6044 17.6437L30.7731 21.4751L26.9417 17.6439Z" fill="#F3BA2F"/>
<path d="M21.5374 17.6402H21.539L17.6515 13.7524L14.7781 16.6251L14.448 16.9553L13.7671 17.6363L13.7617 17.6416L13.7671 17.6471L17.6515 21.532L21.5393 17.6443L21.5412 17.6421L21.5376 17.6402" fill="#F3BA2F"/>
</svg>
