<svg viewBox="0 0 36 36" fill="none" xmlns="http://www.w3.org/2000/svg">
    <path d="M1.61328 18.0031C1.61328 13.6571 3.3393 9.48899 6.4118 6.41534C9.4843 3.34169 13.6517 1.61411 17.9977 1.61249C20.9809 1.61208 23.9076 2.42585 26.4624 3.96608C29.0173 5.50631 31.1033 7.7146 32.4957 10.3529" stroke="#5BB2FA" stroke-width="2" stroke-miterlimit="10"/>
    <path d="M24.1211 8.88289L33.131 10.5183L32.2551 1.40424" stroke="#5BB2FA" stroke-width="2" stroke-miterlimit="10"/>
    <path d="M34.3882 18.0031C34.3866 22.349 32.659 26.5165 29.5854 29.589C26.5117 32.6615 22.3437 34.3875 17.9977 34.3875C15.0151 34.3888 12.0889 33.5753 9.53486 32.0349C6.98087 30.4946 4.89616 28.2858 3.50586 25.6471" stroke="#5BB2FA" stroke-width="2" stroke-miterlimit="10"/>
    <path d="M11.8771 27.1171L2.86719 25.4817L3.74307 34.5957" stroke="#5BB2FA" stroke-width="2" stroke-miterlimit="10"/>
</svg>
