<svg width="40" height="40" viewBox="0 0 40 40" fill="none" xmlns="http://www.w3.org/2000/svg">
<g clip-path="url(#clip0)">
<path fill-rule="evenodd" clip-rule="evenodd" d="M19.9388 0C8.92966 0 0 9.18239 0 20.5031C0 29.5597 5.74924 37.2327 13.578 40C14.5566 40.1258 14.9235 39.4969 14.9235 38.9937C14.9235 38.4906 14.9235 37.2327 14.9235 35.4717C9.41896 36.7296 8.19572 32.7044 8.19572 32.7044C7.33945 30.3145 5.99388 29.6855 5.99388 29.6855C4.15902 28.4277 6.11621 28.4277 6.11621 28.4277C8.07339 28.5535 9.17431 30.566 9.17431 30.566C11.0092 33.7107 13.8226 32.8302 14.9235 32.327C15.0459 30.9434 15.6575 30.0629 16.1468 29.5597C11.7431 29.0566 7.0948 27.2956 7.0948 19.3711C7.0948 17.1069 7.82875 15.3459 9.17431 13.8365C9.05199 13.4591 8.31804 11.3208 9.41896 8.55346C9.41896 8.55346 11.1315 8.05031 14.9235 10.6918C16.5138 10.1887 18.2263 10.0629 19.9388 10.0629C21.6514 10.0629 23.3639 10.3145 24.9541 10.6918C28.7462 8.05031 30.4587 8.55346 30.4587 8.55346C31.5596 11.3208 30.8257 13.4591 30.7034 13.9623C31.9266 15.3459 32.7829 17.2327 32.7829 19.4969C32.7829 27.4214 28.1346 29.0566 23.7309 29.5597C24.4648 30.1887 25.0765 31.4465 25.0765 33.3333C25.0765 36.1006 25.0765 38.239 25.0765 38.9937C25.0765 39.4969 25.4434 40.1258 26.422 40C34.3731 37.2327 40 29.5597 40 20.5031C39.8777 9.18239 30.948 0 19.9388 0Z" fill="white"/>
</g>
<defs>
<clipPath id="clip0">
<rect width="40" height="40" fill="white"/>
</clipPath>
</defs>
</svg>
