<svg width="50" height="50" viewBox="0 0 50 50" fill="none" xmlns="http://www.w3.org/2000/svg">
<path fill-rule="evenodd" clip-rule="evenodd" d="M25 0C11.1929 0 0 11.1929 0 25C0 38.8071 11.1929 50 25 50C38.8071 50 50 38.8071 50 25C50 11.1929 38.8071 0 25 0ZM19.5034 11.7472C20.9257 11.6825 21.3801 11.6667 25.0012 11.6667H24.9971C28.6193 11.6667 29.0721 11.6825 30.4944 11.7472C31.9138 11.8122 32.8833 12.0369 33.7333 12.3667C34.6111 12.707 35.3527 13.1625 36.0944 13.9042C36.8361 14.6453 37.2917 15.3892 37.6333 16.2662C37.9611 17.1139 38.1861 18.0828 38.2528 19.5023C38.3167 20.9245 38.3333 21.379 38.3333 25.0001C38.3333 28.6213 38.3167 29.0746 38.2528 30.4969C38.1861 31.9158 37.9611 32.8849 37.6333 33.733C37.2917 34.6097 36.8361 35.3536 36.0944 36.0947C35.3536 36.8364 34.6108 37.293 33.7341 37.6336C32.8858 37.9633 31.9158 38.1881 30.4963 38.2531C29.0741 38.3178 28.621 38.3336 24.9996 38.3336C21.3787 38.3336 20.9245 38.3178 19.5023 38.2531C18.0831 38.1881 17.1139 37.9633 16.2656 37.6336C15.3892 37.293 14.6453 36.8364 13.9045 36.0947C13.1631 35.3536 12.7075 34.6097 12.3667 33.7327C12.0372 32.8849 11.8125 31.916 11.7472 30.4966C11.6828 29.0743 11.6667 28.6213 11.6667 25.0001C11.6667 21.379 11.6833 20.9243 11.7469 19.502C11.8108 18.0831 12.0358 17.1139 12.3664 16.2659C12.7081 15.3892 13.1636 14.6453 13.9053 13.9042C14.6464 13.1628 15.3903 12.7072 16.2673 12.3667C17.1151 12.0369 18.084 11.8122 19.5034 11.7472Z" fill="white"/>
<path fill-rule="evenodd" clip-rule="evenodd" d="M23.8052 14.0697C24.0375 14.0694 24.2873 14.0695 24.557 14.0696L25.0013 14.0697C28.5614 14.0697 28.9833 14.0825 30.3892 14.1464C31.6892 14.2059 32.3948 14.4231 32.8648 14.6056C33.487 14.8472 33.9306 15.1361 34.397 15.6028C34.8637 16.0695 35.1526 16.5139 35.3948 17.1362C35.5773 17.6056 35.7948 18.3112 35.854 19.6112C35.9179 21.0168 35.9317 21.439 35.9317 24.9974C35.9317 28.5557 35.9179 28.978 35.854 30.3835C35.7945 31.6835 35.5773 32.3891 35.3948 32.8585C35.1531 33.4808 34.8637 33.9238 34.397 34.3902C33.9303 34.8569 33.4873 35.1458 32.8648 35.3875C32.3953 35.5708 31.6892 35.7875 30.3892 35.8469C28.9836 35.9108 28.5614 35.9247 25.0013 35.9247C21.441 35.9247 21.0191 35.9108 19.6135 35.8469C18.3135 35.7869 17.6079 35.5697 17.1377 35.3872C16.5154 35.1455 16.071 34.8566 15.6043 34.39C15.1376 33.9233 14.8487 33.4799 14.6065 32.8574C14.424 32.388 14.2065 31.6824 14.1473 30.3824C14.0835 28.9768 14.0707 28.5546 14.0707 24.994C14.0707 21.4334 14.0835 21.0134 14.1473 19.6079C14.2068 18.3078 14.424 17.6023 14.6065 17.1323C14.8482 16.51 15.1376 16.0656 15.6043 15.5989C16.071 15.1323 16.5154 14.8434 17.1377 14.6011C17.6077 14.4178 18.3135 14.2011 19.6135 14.1414C20.8435 14.0859 21.3202 14.0692 23.8052 14.0664V14.0697ZM32.1188 16.2835C31.2354 16.2835 30.5188 16.9994 30.5188 17.883C30.5188 18.7663 31.2354 19.483 32.1188 19.483C33.0021 19.483 33.7188 18.7663 33.7188 17.883C33.7188 16.9996 33.0021 16.283 32.1188 16.283V16.2835ZM18.1547 25C18.1547 21.2186 21.2204 18.1528 25.0017 18.1527C28.7831 18.1527 31.8481 21.2185 31.8481 25C31.8481 28.7814 28.7834 31.8459 25.002 31.8459C21.2205 31.8459 18.1547 28.7814 18.1547 25Z" fill="white"/>
<path fill-rule="evenodd" clip-rule="evenodd" d="M25.0011 20.5557C27.4556 20.5557 29.4456 22.5454 29.4456 25.0002C29.4456 27.4546 27.4556 29.4446 25.0011 29.4446C22.5464 29.4446 20.5566 27.4546 20.5566 25.0002C20.5566 22.5454 22.5464 20.5557 25.0011 20.5557V20.5557Z" fill="white"/>
</svg>
