<svg width="40" height="40" viewBox="0 0 40 40" fill="none" xmlns="http://www.w3.org/2000/svg">
<path fill-rule="evenodd" clip-rule="evenodd" d="M20 0C8.95431 0 0 8.95431 0 20C0 31.0457 8.95431 40 20 40C31.0457 40 40 31.0457 40 20C40 8.95431 31.0457 0 20 0ZM9.60114 16.5643H14.1336V30.1824H9.60114V16.5643ZM14.4321 12.3525C14.4027 11.0173 13.4478 10.0002 11.8973 10.0002C10.3468 10.0002 9.33311 11.0173 9.33311 12.3525C9.33311 13.6601 10.3168 14.7064 11.8385 14.7064H11.8674C13.4478 14.7064 14.4321 13.6601 14.4321 12.3525ZM25.2605 16.245C28.243 16.245 30.479 18.1918 30.479 22.3747L30.4788 30.1829H25.9466V22.8972C25.9466 21.0672 25.2907 19.8184 23.65 19.8184C22.3978 19.8184 21.6519 20.6602 21.3244 21.4733C21.2045 21.7647 21.1751 22.1707 21.1751 22.5777V30.1832H16.6421C16.6421 30.1832 16.7019 17.843 16.6421 16.5651H21.1751V18.494C21.7767 17.5668 22.8541 16.245 25.2605 16.245Z" fill="white"/>
</svg>
