<svg width="18" height="29" viewBox="0 0 18 29" fill="none" xmlns="http://www.w3.org/2000/svg">
<g opacity="0.2">
<path fill-rule="evenodd" clip-rule="evenodd" d="M4.70885 3.07871L0.574219 5.44247V14.5965V23.7504L1.50511 24.2818C2.01705 24.5741 3.85688 25.6247 5.59374 26.6165C7.3305 27.6082 8.79162 28.4266 8.84072 28.4352C8.89802 28.4452 10.406 27.6076 13.043 26.1012L17.156 23.7515V14.5967V5.44202L13.0213 3.07838C10.7473 1.77843 8.87696 0.714844 8.8651 0.714844C8.85324 0.714844 6.98293 1.77854 4.70885 3.07871ZM11.7652 4.26332C13.3439 5.21023 14.6437 5.99313 14.6536 6.00318C14.6821 6.03187 8.89791 9.35002 8.84371 9.33606C8.70705 9.30067 3.06187 6.01579 3.09257 5.98944C3.11241 5.97247 4.09295 5.38195 5.27166 4.6771C6.45038 3.97236 7.73527 3.20354 8.12706 2.96862C8.51875 2.73382 8.8518 2.54156 8.86698 2.54156C8.88228 2.54156 10.1865 3.3163 11.7652 4.26332ZM4.7114 8.8755C6.59789 9.98497 7.16292 10.3362 7.12191 10.3742C7.03413 10.4554 2.29579 13.2269 2.24481 13.2269C2.21145 13.2269 2.19781 12.3831 2.19781 10.3266C2.19781 8.73147 2.2089 7.42628 2.22264 7.42628C2.23627 7.42628 3.35624 8.07843 4.7114 8.8755ZM15.5324 10.3266C15.5324 12.3234 15.5182 13.2269 15.4869 13.2269C15.4378 13.2269 10.6969 10.4539 10.6083 10.3733C10.5622 10.3314 15.3655 7.44034 15.4999 7.42907C15.5178 7.4275 15.5324 8.73147 15.5324 10.3266ZM8.0323 16.1271L8.02088 17.588L5.57479 16.1505C4.22939 15.3599 3.12859 14.6919 3.12859 14.6661C3.12859 14.6404 4.22939 13.9724 5.57479 13.1818L8.02088 11.7443L8.0323 13.2052C8.0385 14.0087 8.0385 15.3235 8.0323 16.1271ZM12.3395 13.2874C13.5956 14.0258 14.6232 14.6463 14.6232 14.6661C14.6232 14.6941 10.8295 16.95 9.87169 17.4917L9.6877 17.5958V14.6661V11.7365L9.87169 11.8406C9.97288 11.8979 11.0834 12.5489 12.3395 13.2874ZM5.55606 18.0244C7.35189 19.0798 8.84205 19.9434 8.86754 19.9434C8.89303 19.9434 10.3827 19.0798 12.1781 18.0244C13.9734 16.9689 15.4626 16.1054 15.4874 16.1054C15.5182 16.1054 15.5324 17.1767 15.5324 19.4982V22.8909L12.2312 24.8298C10.4155 25.8963 8.8989 26.7676 8.86078 26.7662C8.82276 26.7646 7.308 25.8915 5.49466 24.8259L2.19781 22.8884V19.4969C2.19781 17.1066 2.21156 16.1054 2.24437 16.1054C2.26997 16.1054 3.76023 16.9689 5.55606 18.0244Z" fill="white"/>
</g>
</svg>
