<svg width="24" height="35" viewBox="0 0 24 35" fill="none" xmlns="http://www.w3.org/2000/svg">
<g opacity="0.2">
<path d="M15.6929 10.6249C15.6929 5.67482 13.2746 1.41016 11.4223 0.0139876C11.4223 0.0139876 11.2936 -0.0621671 11.2936 0.140912C11.1393 9.71103 6.22551 12.3257 3.49849 15.8034C-2.75306 23.8758 3.06114 32.7098 8.97825 34.3344C12.297 35.2482 8.20646 32.7098 7.69192 27.3789C7.07449 20.9058 15.6929 15.9811 15.6929 10.6249Z" fill="white"/>
<path d="M18.9345 13.8994C18.9088 13.874 18.8574 13.874 18.8059 13.8994C18.8059 13.8994 18.8059 13.8994 18.7802 13.9248C18.6773 15.1179 17.3395 17.7071 15.6673 20.0679C9.98169 28.0896 13.2232 31.9481 15.0498 34.0297C16.1046 35.2481 15.0498 34.0297 17.6997 32.7858C17.9055 32.6843 22.845 30.095 23.3852 24.2311C23.9255 18.5195 20.2466 14.9402 18.9345 13.8994Z" fill="white"/>
</g>
</svg>
