<svg width="36" height="18" viewBox="0 0 36 18" fill="none" xmlns="http://www.w3.org/2000/svg">
<g opacity="0.2">
<path d="M19.4924 2.84158L19.1799 3.13564L21.1177 4.94383L21.4302 4.65289C22.629 3.54214 24.2067 2.93217 25.8402 2.94794C27.4998 2.94794 28.9656 3.65182 30.2377 4.65602C31.0315 5.28169 32.9349 7.2244 32.9349 8.78232C32.9349 10.3402 31.4128 11.8043 30.2377 12.8961C29.0344 13.9924 27.4658 14.5999 25.8386 14.5999C24.2115 14.5999 22.6429 13.9924 21.4396 12.8961L14.8043 6.68319L12.8696 8.49451L19.4956 14.7231C22.9867 17.9953 28.8219 17.9327 32.3098 14.6605C33.9976 13.0713 35.7853 10.9847 35.7853 8.66657C35.7853 6.43605 33.9101 4.1899 32.2473 2.75086C30.466 1.21539 28.191 0.374553 25.8402 0.382693C23.4883 0.361643 21.2174 1.24131 19.4924 2.84158Z" fill="white"/>
<path d="M17.0358 14.6886L17.3483 14.3945L15.4074 12.5832L15.0949 12.8742C13.9016 13.984 12.3294 14.5951 10.7005 14.5822C9.03778 14.5822 7.57507 13.8784 6.30302 12.8742C5.50916 12.2485 3.60577 10.3058 3.60577 8.74786C3.60577 7.18995 5.11536 5.72275 6.30302 4.62157C7.50569 3.52396 9.07453 2.91553 10.7021 2.91553C12.3296 2.91553 13.8985 3.52396 15.1011 4.62157L21.7239 10.847L23.6586 9.03567L17.0358 2.80713C13.554 -0.468257 7.70634 -0.40569 4.21523 2.88534C2.52437 4.44951 0.739746 6.54551 0.739746 8.86361C0.739746 11.091 2.63063 13.3403 4.27774 14.7731C6.06296 16.3149 8.34574 17.1573 10.7036 17.1444C13.0496 17.1616 15.3139 16.2835 17.0358 14.6886Z" fill="white"/>
</g>
</svg>
