<svg width="34" height="34" viewBox="0 0 34 34" fill="none" xmlns="http://www.w3.org/2000/svg">
<g clip-path="url(#clip0_152:270)">
<path d="M17.0546 12.3691C15.8265 12.3691 14.6486 12.857 13.7802 13.7255C12.9117 14.5939 12.4238 15.7718 12.4238 16.9999C12.4238 18.2281 12.9117 19.406 13.7802 20.2744C14.6486 21.1429 15.8265 21.6307 17.0546 21.6307C17.6628 21.6307 18.2649 21.511 18.8268 21.2782C19.3886 21.0455 19.8991 20.7044 20.3291 20.2744C20.7591 19.8444 21.1002 19.3339 21.3329 18.7721C21.5656 18.2102 21.6854 17.6081 21.6854 16.9999C21.6854 16.3918 21.5656 15.7896 21.3329 15.2278C21.1002 14.666 20.7591 14.1555 20.3291 13.7255C19.8991 13.2955 19.3886 12.9544 18.8268 12.7216C18.2649 12.4889 17.6628 12.3691 17.0546 12.3691Z" fill="white"/>
<path d="M17 0C13.6377 0 10.351 0.997033 7.55531 2.86502C4.75968 4.733 2.58075 7.38804 1.29406 10.4944C0.00736581 13.6007 -0.329291 17.0189 0.326658 20.3165C0.982607 23.6142 2.6017 26.6433 4.97919 29.0208C7.35669 31.3983 10.3858 33.0174 13.6835 33.6733C16.9811 34.3293 20.3993 33.9926 23.5056 32.706C26.612 31.4193 29.267 29.2403 31.135 26.4447C33.003 23.6491 34 20.3623 34 17C34 12.4913 32.2089 8.1673 29.0208 4.97918C25.8327 1.79107 21.5087 0 17 0V0ZM27.1456 22.4944C27.1246 23.6948 26.6382 24.8401 25.789 25.6888C24.9398 26.5375 23.7942 27.0232 22.5938 27.0435C21.3933 27.0638 20.232 26.6171 19.3546 25.7976C18.4772 24.978 17.9524 23.8498 17.8908 22.6508L14.7492 25.7856C14.1013 26.434 13.2753 26.8752 12.3761 27.0531C11.4769 27.2311 10.5452 27.1378 9.69911 26.7851C8.85306 26.4324 8.13093 25.8362 7.62442 25.0722C7.11792 24.3083 6.8499 23.411 6.85441 22.4944V11.5056C6.82254 10.8849 6.91595 10.2641 7.12908 9.68026C7.3422 9.09641 7.67067 8.56144 8.09492 8.10723C8.51918 7.65301 9.03052 7.28885 9.59849 7.03643C10.1665 6.78402 10.7794 6.64853 11.4009 6.63803C12.0223 6.62753 12.6395 6.74223 13.2157 6.97531C13.7919 7.20838 14.3152 7.55506 14.7546 7.99468C15.1939 8.4343 15.5403 8.95787 15.773 9.53418C16.0058 10.1105 16.1201 10.7278 16.1092 11.3492L19.2508 8.2144C20.1107 7.35151 21.2763 6.86278 22.4944 6.8544H22.5352C23.1433 6.85707 23.745 6.9795 24.3058 7.21469C24.8666 7.44989 25.3756 7.79324 25.8037 8.22514C26.2318 8.65705 26.5707 9.16905 26.8009 9.73191C27.0312 10.2948 27.1483 10.8975 27.1456 11.5056V22.4944Z" fill="white"/>
</g>
<defs>
<clipPath id="clip0_152:270">
<rect width="34" height="34" fill="white"/>
</clipPath>
</defs>
</svg>
