<svg width="34" height="34" viewBox="0 0 34 34" fill="none" xmlns="http://www.w3.org/2000/svg">
<circle cx="17" cy="17" r="17" fill="white"/>
<path fill-rule="evenodd" clip-rule="evenodd" d="M10.6766 9.27086C10.3624 7.57071 11.6536 6 13.3654 6C14.8761 6 16.1007 7.23728 16.1007 8.76355V12.1706C16.4786 12.1437 16.8625 12.1298 17.2513 12.1298C17.6249 12.1298 17.994 12.1426 18.3575 12.1675V8.76355C18.3575 7.23728 19.5821 6 21.0928 6C22.8046 6 24.0958 7.57071 23.7816 9.27086L23.0414 13.2757C25.5818 14.3962 27.5028 16.3425 27.5028 18.7881V20.2677C27.5028 22.2789 26.1859 23.9627 24.3448 25.0994C22.4894 26.2449 19.9794 26.9259 17.2513 26.9259C14.5233 26.9259 12.0133 26.2449 10.1579 25.0994C8.3169 23.9627 7 22.2789 7 20.2677V18.7881C7 16.3554 8.90121 14.4166 11.4202 13.2939L10.6766 9.27086ZM22.0928 13.8018L22.959 9.11565C23.1771 7.93566 22.2809 6.8455 21.0928 6.8455C20.0443 6.8455 19.1943 7.70423 19.1943 8.76355V13.0993C18.9196 13.0637 18.6405 13.0355 18.3575 13.015C17.9947 12.9888 17.6256 12.9753 17.2513 12.9753C16.8618 12.9753 16.4778 12.9899 16.1007 13.0183C15.8177 13.0396 15.5386 13.0687 15.2639 13.1051V8.76355C15.2639 7.70423 14.4139 6.8455 13.3654 6.8455C12.1773 6.8455 11.2811 7.93565 11.4992 9.11565L12.3683 13.8174C9.65152 14.8369 7.83685 16.6817 7.83685 18.7881V20.2677C7.83685 23.478 12.0519 26.0805 17.2513 26.0805C22.4509 26.0805 26.6659 23.478 26.6659 20.2677V18.7881C26.6659 16.6709 24.8326 14.8181 22.0928 13.8018Z" fill="#633001"/>
<path d="M26.666 20.2678C26.666 23.4781 22.4509 26.0805 17.2514 26.0805C12.0519 26.0805 7.83691 23.4781 7.83691 20.2678V18.7881H26.666V20.2678Z" fill="#FEDC90"/>
<path fill-rule="evenodd" clip-rule="evenodd" d="M11.4993 9.1155C11.2812 7.9355 12.1774 6.84534 13.3655 6.84534C14.414 6.84534 15.2639 7.70408 15.2639 8.7634V13.1049C15.9046 13.0199 16.5696 12.9752 17.2514 12.9752C17.9175 12.9752 18.5674 13.0179 19.1944 13.0991V8.7634C19.1944 7.70408 20.0443 6.84534 21.0928 6.84534C22.281 6.84534 23.1771 7.9355 22.959 9.1155L22.0928 13.8016C24.8327 14.818 26.666 16.6708 26.666 18.788C26.666 21.9983 22.4509 24.6007 17.2514 24.6007C12.0519 24.6007 7.83691 21.9983 7.83691 18.788C7.83691 16.6816 9.65158 14.8368 12.3683 13.8172L11.4993 9.1155Z" fill="#D1884F"/>
<path d="M14.6365 18.3655C14.6365 19.2411 14.1682 19.9508 13.5905 19.9508C13.0128 19.9508 12.5444 19.2411 12.5444 18.3655C12.5444 17.49 13.0128 16.7802 13.5905 16.7802C14.1682 16.7802 14.6365 17.49 14.6365 18.3655Z" fill="#633001"/>
<path d="M21.8543 18.3655C21.8543 19.2411 21.3859 19.9508 20.8082 19.9508C20.2305 19.9508 19.7622 19.2411 19.7622 18.3655C19.7622 17.49 20.2305 16.7802 20.8082 16.7802C21.3859 16.7802 21.8543 17.49 21.8543 18.3655Z" fill="#633001"/>
</svg>
