<svg width="40" height="40" viewBox="0 0 40 40" fill="none" xmlns="http://www.w3.org/2000/svg">
<path fill-rule="evenodd" clip-rule="evenodd" d="M20 40C31.0457 40 40 31.0457 40 20C40 8.95431 31.0457 0 20 0C8.95431 0 0 8.95431 0 20C0 31.0457 8.95431 40 20 40ZM16.3347 29.1662C16.8211 29.1662 17.0434 28.9498 17.312 28.6882L17.3347 28.6662L19.7361 26.3311L24.7337 30.0234C25.6535 30.5309 26.3173 30.2681 26.5464 29.1695L29.8272 13.709C30.1631 12.3623 29.3139 11.7515 28.434 12.1509L9.16901 19.5794C7.85399 20.1069 7.86166 20.8405 8.92931 21.1674L13.8731 22.7105L25.3186 15.4896C25.859 15.162 26.3549 15.3381 25.9478 15.6994L16.675 24.0674L16.6737 24.0685L16.6749 24.0694L16.3347 29.1662Z" fill="white"/>
</svg>
