<svg width="34" height="34" viewBox="0 0 34 34" fill="none" xmlns="http://www.w3.org/2000/svg">
<path d="M13.3046 5.0329C12.9285 4.97685 12.9126 4.97028 13.0896 4.94414C13.4288 4.89403 14.2297 4.96233 14.7816 5.0884C16.07 5.38266 17.2424 6.13645 18.4939 7.47518L18.8264 7.83084L19.302 7.75737C21.3057 7.448 23.3441 7.69388 25.049 8.45059C25.518 8.65877 26.2576 9.07318 26.35 9.17967C26.3794 9.2136 26.4334 9.43206 26.47 9.66518C26.5966 10.4717 26.5332 11.0899 26.2766 11.5516C26.1368 11.8029 26.129 11.8825 26.223 12.0975C26.298 12.2691 26.507 12.3961 26.714 12.3959C27.1376 12.3953 27.5936 11.7373 27.805 10.8217L27.889 10.458L28.0552 10.639C28.9672 11.6317 29.6836 12.9856 29.8066 13.9493L29.8386 14.2006L29.6854 13.9721C29.4216 13.5791 29.1564 13.3115 28.817 13.0957C28.205 12.7067 27.558 12.5743 25.8446 12.4875C24.297 12.4092 23.4211 12.2822 22.5526 12.0101C21.075 11.5473 20.3301 10.9308 18.5748 8.7182C17.7952 7.73545 17.3133 7.19172 16.834 6.75384C15.7448 5.75887 14.6746 5.23706 13.3046 5.0329Z" fill="white"/>
<path d="M26.6986 7.22706C26.7376 6.56853 26.8304 6.13417 27.0174 5.73748C27.0914 5.58048 27.1606 5.45197 27.1714 5.45197C27.182 5.45197 27.1498 5.56785 27.0998 5.70949C26.964 6.09446 26.9416 6.62102 27.0352 7.23365C27.154 8.01097 27.2216 8.12312 28.0768 8.96279C28.4778 9.35665 28.9444 9.85335 29.1134 10.0666L29.421 10.4544L29.1134 10.1773C28.7374 9.83837 27.8726 9.17746 27.6816 9.08298C27.5534 9.01963 27.5344 9.02073 27.4554 9.09628C27.3826 9.1659 27.3672 9.27052 27.3572 9.7651C27.3414 10.5359 27.232 11.0307 26.9682 11.5254C26.8254 11.793 26.8028 11.7359 26.932 11.4339C27.0284 11.2083 27.0382 11.1092 27.0376 10.363C27.036 8.8637 26.8508 8.50325 25.7644 7.88579C25.4892 7.72936 25.0356 7.50378 24.7565 7.38445C24.4775 7.26513 24.2559 7.16119 24.2639 7.15342C24.2947 7.12401 25.3542 7.42113 25.7808 7.57875C26.4152 7.81319 26.5198 7.84358 26.5968 7.8153C26.6486 7.79633 26.6736 7.65183 26.6986 7.22706Z" fill="white"/>
<path d="M14.0352 9.79192C13.2717 8.78199 12.7993 7.23352 12.9016 6.07598L12.9332 5.71777L13.107 5.74824C13.4334 5.80543 13.9961 6.00667 14.2596 6.16044C14.9827 6.58237 15.2957 7.1379 15.6142 8.56439C15.7075 8.98222 15.8299 9.45506 15.8862 9.61514C15.9769 9.87279 16.3195 10.4746 16.5981 10.8655C16.7987 11.147 16.6654 11.2804 16.2219 11.2419C15.5446 11.1832 14.6271 10.5748 14.0352 9.79192Z" fill="white"/>
<path d="M25.7726 17.3082C22.2045 15.9279 20.9478 14.7298 20.9478 12.7082C20.9478 12.4107 20.9584 12.1673 20.9714 12.1673C20.9844 12.1673 21.1225 12.2655 21.2782 12.3855C22.0017 12.9431 22.812 13.1813 25.055 13.4956C26.375 13.6807 27.1178 13.8301 27.803 14.0484C29.9808 14.7424 31.3282 16.1506 31.6496 18.0688C31.743 18.6261 31.6882 19.6713 31.5368 20.2222C31.4174 20.6573 31.0526 21.4416 30.9558 21.4717C30.929 21.48 30.9028 21.3812 30.8958 21.2468C30.8592 20.5266 30.4804 19.8254 29.8442 19.3001C29.1208 18.7029 28.149 18.2274 25.7726 17.3082Z" fill="white"/>
<path d="M23.2673 17.8818C23.2226 17.6262 23.1451 17.2998 23.095 17.1564L23.004 16.8958L23.1731 17.0781C23.4071 17.3305 23.592 17.6534 23.7488 18.0836C23.8684 18.4119 23.8818 18.5095 23.8809 19.0429C23.88 19.5666 23.8651 19.6764 23.7546 19.9719C23.5805 20.4379 23.3643 20.7683 23.0016 21.1229C22.3498 21.7603 21.5118 22.1131 20.3025 22.2595C20.0923 22.2848 19.4796 22.3277 18.941 22.3546C17.5836 22.4225 16.6902 22.5626 15.8875 22.8335C15.7721 22.8723 15.669 22.8961 15.6586 22.8861C15.6261 22.8549 16.1726 22.5419 16.6241 22.3329C17.2606 22.0383 17.8943 21.8776 19.314 21.6505C20.0153 21.5381 20.7396 21.402 20.9235 21.3479C22.6603 20.8363 23.553 19.516 23.2673 17.8818Z" fill="white"/>
<path d="M24.9035 20.6729C24.4294 19.6937 24.3206 18.7483 24.5803 17.8667C24.6081 17.7724 24.6528 17.6953 24.6796 17.6953C24.7065 17.6953 24.8184 17.7534 24.9282 17.8244C25.1467 17.9657 25.5849 18.2037 26.7521 18.8152C28.2087 19.5782 29.0393 20.169 29.6041 20.8441C30.0987 21.4352 30.4047 22.1086 30.5521 22.9297C30.6355 23.3946 30.5865 24.5136 30.4623 24.9819C30.0707 26.4586 29.1605 27.6184 27.8623 28.2952C27.6721 28.3944 27.5013 28.4758 27.4829 28.4762C27.4643 28.4766 27.5337 28.3072 27.6369 28.1C28.0735 27.2228 28.1233 26.3696 27.7931 25.42C27.5909 24.8384 27.1787 24.1289 26.3465 22.9297C25.3787 21.5355 25.1415 21.1645 24.9035 20.6729Z" fill="white"/>
<path d="M11.5007 25.9557C12.8248 24.8816 14.4723 24.1184 15.9731 23.8841C16.6199 23.7832 17.6973 23.8233 18.2963 23.9706C19.2563 24.2067 20.1151 24.7354 20.5617 25.3653C20.9982 25.9809 21.1854 26.5174 21.3804 27.711C21.4573 28.182 21.5409 28.6546 21.5663 28.7617C21.7127 29.3803 21.9976 29.8748 22.3507 30.1232C22.9115 30.5176 23.8771 30.542 24.827 30.1861C24.9883 30.1256 25.1282 30.0838 25.138 30.0933C25.1726 30.1261 24.6942 30.4337 24.3567 30.5957C23.9027 30.8135 23.5416 30.8979 23.0618 30.8979C22.1918 30.8979 21.4695 30.4728 20.8668 29.6057C20.7482 29.435 20.4816 28.9239 20.2744 28.4697C19.638 27.0752 19.3238 26.6506 18.5849 26.1856C17.9419 25.7812 17.1126 25.7087 16.4888 26.0025C15.6693 26.3886 15.4407 27.3946 16.0276 28.0322C16.2609 28.2857 16.6959 28.5042 17.0516 28.5467C17.717 28.6263 18.2889 28.14 18.2889 27.4945C18.2889 27.0753 18.1212 26.8361 17.6991 26.653C17.1226 26.403 16.5029 26.6954 16.5059 27.2157C16.5072 27.4376 16.6077 27.5767 16.8392 27.6775C16.9877 27.742 16.9912 27.7472 16.8701 27.723C16.3411 27.6176 16.2172 27.005 16.6425 26.5982C17.1531 26.11 18.209 26.3253 18.5716 26.9919C18.724 27.2719 18.7416 27.8295 18.6088 28.1661C18.3116 28.9197 17.4449 29.3159 16.5657 29.1003C15.9672 28.9534 15.7234 28.7945 15.0017 28.0803C13.7476 26.8391 13.2608 26.5986 11.4529 26.3275L11.1064 26.2755L11.5007 25.9557Z" fill="white"/>
<path fill-rule="evenodd" clip-rule="evenodd" d="M5.61677 3.74237C9.8047 8.62593 12.6891 10.6408 13.0097 11.0665C13.2743 11.418 13.1747 11.734 12.7213 11.9816C12.4692 12.1193 11.9508 12.2588 11.6913 12.2588C11.3977 12.2588 11.2969 12.15 11.2969 12.15C11.1267 11.9949 11.0309 12.0221 10.1568 10.5314C8.94332 8.72229 7.92778 7.22156 7.90008 7.19643C7.83602 7.13833 7.83712 7.1403 10.0331 10.9153C10.3879 11.7021 10.1036 11.9909 10.1036 12.103C10.1036 12.3309 10.0389 12.4508 9.74622 12.7644C9.25828 13.2874 9.04016 13.8751 8.8827 15.0912C8.7062 16.4545 8.20984 17.4176 6.83431 19.0658C6.02912 20.0306 5.89737 20.2074 5.6942 20.5963C5.43829 21.086 5.36792 21.3602 5.3394 21.9785C5.30926 22.6324 5.36797 23.0548 5.57587 23.6799C5.75788 24.2272 5.94786 24.5885 6.43356 25.3112C6.8527 25.9349 7.09404 26.3985 7.09404 26.5799C7.09404 26.7241 7.12272 26.7243 7.77222 26.5834C9.32656 26.2462 10.5887 25.653 11.2985 24.9261C11.7378 24.4762 11.841 24.2278 11.8443 23.6114C11.8465 23.2081 11.8317 23.1237 11.7183 22.8917C11.5336 22.5141 11.1974 22.2001 10.4563 21.7135C9.4854 21.0757 9.07068 20.5623 8.95614 19.8563C8.86216 19.277 8.97118 18.8682 9.50832 17.7866C10.0643 16.667 10.2021 16.1899 10.2953 15.0614C10.3555 14.3324 10.4388 14.0448 10.6568 13.814C10.8842 13.5734 11.0889 13.4919 11.6517 13.418C12.5691 13.2976 13.1533 13.0695 13.6335 12.6444C14.0501 12.2756 14.2244 11.9202 14.2512 11.3853L14.2715 10.9798L14.0387 10.719C13.1957 9.77462 5.0522 3 5.00032 3C4.98924 3 5.26665 3.33409 5.61677 3.74237ZM7.56728 22.7184C7.75788 22.394 7.6566 21.9772 7.33778 21.7734C7.03654 21.581 6.56856 21.6717 6.56856 21.9225C6.56856 21.999 6.61261 22.0547 6.71187 22.1038C6.87903 22.1864 6.89116 22.2794 6.75965 22.4692C6.62646 22.6616 6.63721 22.8308 6.78998 22.9456C7.0362 23.1308 7.38474 23.0289 7.56728 22.7184Z" fill="white"/>
<path fill-rule="evenodd" clip-rule="evenodd" d="M14.8507 13.6308C14.42 13.7579 14.0013 14.1965 13.8717 14.6563C13.7926 14.9369 13.8375 15.429 13.9559 15.581C14.1472 15.8264 14.3322 15.8911 14.8332 15.8877C15.814 15.8812 16.6667 15.477 16.7658 14.9717C16.8471 14.5576 16.4726 13.9836 15.9568 13.7316C15.6906 13.6016 15.1245 13.55 14.8507 13.6308ZM15.9972 14.4922C16.1485 14.2857 16.0823 14.0626 15.8251 13.9116C15.3352 13.6242 14.5944 13.8621 14.5944 14.3067C14.5944 14.528 14.9807 14.7695 15.3348 14.7695C15.5705 14.7695 15.893 14.6345 15.9972 14.4922Z" fill="white"/>
<circle cx="17" cy="17" r="16.5" stroke="white"/>
</svg>
