<svg viewBox="0 0 27 27" fill="none" xmlns="http://www.w3.org/2000/svg">
    <circle cx="13.5" cy="13.5" r="12.5" fill="white" stroke="white" stroke-width="2"/>
    <g clip-path="url(#clip0_1142_4369)">
        <path d="M12.0864 22.9488H13.5006V21.5014H12.6576L12.0864 22.9488Z" fill="#40434A"/>
        <path d="M13.5005 21.5014V22.9477H14.9147L14.3435 21.5014H13.5005Z" fill="#40434A"/>
        <path d="M3.6001 17.7424L8.77599 20.8265L9.85435 18.1866L8.10887 16.0298L3.6001 17.7424Z" fill="#373A40"/>
        <path d="M3.6001 17.7424L7.91354 12.762L6.94484 11.6222L5.63687 10.083L3.6001 17.7424Z" fill="#373A40"/>
        <path d="M19.0879 12.762L23.4002 17.7424L21.3646 10.083L20.0566 11.6222L19.0879 12.762Z" fill="#373A40"/>
        <path d="M18.2242 20.8265L23.4001 17.7424L18.8913 16.0207L17.147 18.1774L18.2242 20.8265Z" fill="#373A40"/>
        <path d="M17.1472 18.182L18.8915 16.0252L16.8353 15.0576L14.915 17.2545L17.1472 18.182Z" fill="#373A40"/>
        <path d="M8.10889 16.0252L9.85437 18.182L12.0865 17.2637L10.1651 15.0622L8.10889 16.0252Z" fill="#373A40"/>
        <path d="M5.63711 10.083L10.3618 7.86198L8.7808 5.58587L6.89482 4.94998L5.42578 6.60742L5.63711 10.083Z" fill="#373A40"/>
        <path d="M16.6396 7.86198L21.3643 10.083L21.5802 6.60742L20.11 4.94998L18.2241 5.58587L16.6396 7.86198Z" fill="#373A40"/>
        <path d="M3.6001 17.7424L8.77599 20.8265L9.85435 18.1866L8.10887 16.0298L3.6001 17.7424Z" fill="#40434A"/>
        <path d="M3.6001 17.9009L7.91354 12.9205L6.94484 11.7807L5.63687 10.2415L3.6001 17.9009Z" fill="#40434A"/>
        <path d="M19.0879 12.762L23.4002 17.7424L21.3646 10.083L20.0566 11.6222L19.0879 12.762Z" fill="#40434A"/>
        <path d="M18.2242 20.8265L23.4001 17.7424L18.8913 16.0207L17.147 18.1774L18.2242 20.8265Z" fill="#40434A"/>
        <path d="M17.1472 18.182L18.8915 16.0252L16.8353 15.0576L14.915 17.2545L17.1472 18.182Z" fill="#40434A"/>
        <path d="M8.10889 16.0252L9.85437 18.182L12.0865 17.2637L10.1651 15.0622L8.10889 16.0252Z" fill="#40434A"/>
        <path d="M5.63711 10.083L10.3618 7.86198L8.7808 5.58587L6.89482 4.94998L5.42578 6.60742L5.63711 10.083Z" fill="#40434A"/>
        <path d="M16.6396 7.86198L21.3643 10.083L21.5802 6.60742L20.11 4.94998L18.2241 5.58587L16.6396 7.86198Z" fill="#40434A"/>
        <path d="M3.6001 17.7424L8.77599 20.8265L9.85435 18.1866L8.10887 16.0298L3.6001 17.7424Z" fill="#48608E"/>
        <path d="M18.2242 20.8265L23.4001 17.7424L18.8913 16.0207L17.147 18.1774L18.2242 20.8265Z" fill="#48608E"/>
        <path d="M17.1472 18.182L18.8915 16.0252L16.8353 15.0576L14.915 17.2545L17.1472 18.182Z" fill="#48608E"/>
        <path d="M8.10889 16.0252L9.85437 18.182L12.0865 17.2637L10.1651 15.0622L8.10889 16.0252Z" fill="#48608E"/>
        <path d="M3.6001 17.7424L8.77599 20.8265L9.85435 18.1866L8.10887 16.0298L3.6001 17.7424Z" fill="#5B78B3"/>
        <path d="M18.2242 20.8265L23.4001 17.7424L18.8913 16.0207L17.147 18.1774L18.2242 20.8265Z" fill="#5B78B3"/>
        <path d="M3.6001 17.7424L8.10887 16.0206L10.1651 15.053L12.0865 17.2545H13.1648L11.4799 12.3729L7.91354 12.7574L3.6001 17.7424Z" fill="#DDDFE3"/>
        <path d="M9.85449 18.182L12.6578 21.5026L12.0866 17.2557L9.85449 18.182Z" fill="#DDDFE3"/>
        <path d="M9.85425 18.182L8.77588 20.8219L12.0886 22.9443L12.6598 21.498L9.85425 18.182Z" fill="#DDDFE3"/>
        <path d="M12.6576 21.5015H13.5006V17.2545H12.0864L12.6576 21.5015Z" fill="#DDDFE3"/>
        <path d="M13.5006 17.2545V21.5015H14.3425L14.9137 17.2545H13.4995H13.5006Z" fill="#DDDFE3"/>
        <path d="M14.3428 21.5014L17.1472 18.1808L14.9151 17.2625L14.3428 21.5014Z" fill="#DDDFE3"/>
        <path d="M18.2244 20.8265L17.1472 18.1866L14.3428 21.5014L14.9139 22.9477L18.2244 20.8265Z" fill="#DDDFE3"/>
        <path d="M14.9148 17.2545L16.835 15.053L15.5202 12.3775L13.8364 17.2545H14.9148Z" fill="#DDDFE3"/>
        <path d="M16.8353 15.0576L18.8915 16.0252L19.088 12.762L15.5205 12.3775L16.8353 15.0576Z" fill="#DDDFE3"/>
        <path d="M18.8916 16.0252L23.4004 17.7469L19.0881 12.7666L18.8916 16.0252Z" fill="#DDDFE3"/>
        <path d="M12.6576 21.5015H13.5006V17.2545H12.0864L12.6576 21.5015Z" fill="#EDEFF2"/>
        <path d="M13.5006 17.2545V21.5015H14.3425L14.9137 17.2545H13.4995H13.5006Z" fill="#EDEFF2"/>
        <path d="M8.10891 16.0252L10.1651 15.0576L11.4799 12.3775L7.91357 12.762L8.10891 16.0252Z" fill="#EDEFF2"/>
        <path d="M16.8353 15.0576L18.8915 16.0252L19.088 12.762L15.5205 12.3775L16.8353 15.0576Z" fill="#EDEFF2"/>
        <path d="M11.4799 12.3775L10.3616 7.862L8.64806 9.74212L6.93457 11.6222L7.90326 12.762L11.4799 12.3775Z" fill="#494D55"/>
        <path d="M10.3614 7.862L5.63672 10.083L6.94469 11.6222L8.65819 9.74212L10.3614 7.862Z" fill="#494D55"/>
        <path d="M13.5004 7.862H10.3613L11.4797 12.3775H13.5004V7.862Z" fill="#494D55"/>
        <path d="M10.3613 7.86197H13.5004V7.16525L10.3613 7.86197Z" fill="#494D55"/>
        <path d="M13.5005 7.16525V7.86197H16.6396L13.5005 7.16525Z" fill="#494D55"/>
        <path d="M13.5005 7.862V12.3775H15.5201L16.6385 7.862H13.5005Z" fill="#494D55"/>
        <path d="M16.64 7.862L15.5205 12.3775L19.0869 12.762L20.0555 11.6222L16.64 7.862Z" fill="#494D55"/>
        <path d="M21.3643 10.083L16.6396 7.862L20.0563 11.6222L21.3643 10.083Z" fill="#494D55"/>
        <path d="M13.1649 17.2545H13.5008V12.3775H11.48L13.1649 17.2545Z" fill="#494D55"/>
        <path d="M13.5005 12.3775V17.2545H13.8363L15.5201 12.3775H13.5005Z" fill="#494D55"/>
        <path d="M10.3614 7.862L5.63672 10.083L6.94469 11.6222L10.3614 7.862Z" fill="#5F6269"/>
        <path d="M21.3643 10.083L16.6396 7.862L20.0563 11.6222L21.3643 10.083Z" fill="#5F6269"/>
        <path d="M10.3613 7.86197H13.5004V7.16525L10.3613 7.86197Z" fill="#595E65"/>
        <path d="M13.5005 7.16525V7.86197H16.6396L13.5005 7.16525Z" fill="#595E65"/>
        <path d="M13.5004 7.862H10.3613L11.4797 12.3775H13.5004V7.862Z" fill="#595E65"/>
        <path d="M13.5005 7.862V12.3775H15.5201L16.6385 7.862H13.5005Z" fill="#595E65"/>
        <path d="M9.45361 16.2777L10.0362 15.7727L10.6176 16.2777L10.0362 16.7828L9.45361 16.2777Z" fill="white"/>
        <path d="M16.3906 16.2777L16.9721 15.7727L17.5547 16.2777L16.9721 16.7816L16.3906 16.2777Z" fill="white"/>
    </g>
    <defs>
        <clipPath id="clip0_1142_4369">
            <rect width="19.8" height="18" fill="white" transform="translate(3.6001 4.94998)"/>
        </clipPath>
    </defs>
</svg>
