<svg width="48" height="48" viewBox="0 0 48 48" fill="none" xmlns="http://www.w3.org/2000/svg">
    <rect width="48" height="48" rx="10" fill="white"/>
    <path d="M35.9286 26.5208V32.5625C35.9286 34.0603 35.4099 35.341 34.3725 36.4046C33.3351 37.4682 32.0859 38 30.625 38H15.3036C13.8426 38 12.5935 37.4682 11.5561 36.4046C10.5187 35.341 10 34.0603 10 32.5625V16.8542C10 15.3563 10.5187 14.0756 11.5561 13.012C12.5935 11.9485 13.8426 11.4167 15.3036 11.4167H28.2679C28.4397 11.4167 28.5809 11.4733 28.6914 11.5866C28.8019 11.6999 28.8571 11.8446 28.8571 12.0208V13.2292C28.8571 13.4054 28.8019 13.5501 28.6914 13.6634C28.5809 13.7767 28.4397 13.8333 28.2679 13.8333H15.3036C14.4933 13.8333 13.7997 14.1291 13.2227 14.7207C12.6456 15.3123 12.3571 16.0234 12.3571 16.8542V32.5625C12.3571 33.3932 12.6456 34.1044 13.2227 34.696C13.7997 35.2875 14.4933 35.5833 15.3036 35.5833H30.625C31.4353 35.5833 32.1289 35.2875 32.7059 34.696C33.2829 34.1044 33.5714 33.3932 33.5714 32.5625V26.5208C33.5714 26.3446 33.6267 26.1999 33.7372 26.0866C33.8477 25.9733 33.9888 25.9167 34.1607 25.9167H35.3393C35.5112 25.9167 35.6523 25.9733 35.7628 26.0866C35.8733 26.1999 35.9286 26.3446 35.9286 26.5208ZM43 10.2083V19.875C43 20.2023 42.8834 20.4855 42.6501 20.7246C42.4169 20.9638 42.1406 21.0833 41.8214 21.0833C41.5022 21.0833 41.226 20.9638 40.9927 20.7246L37.7517 17.4017L25.745 29.7116C25.6222 29.8375 25.481 29.9004 25.3214 29.9004C25.1618 29.9004 25.0206 29.8375 24.8979 29.7116L22.7985 27.5592C22.6758 27.4334 22.6144 27.2886 22.6144 27.125C22.6144 26.9614 22.6758 26.8166 22.7985 26.6908L34.8052 14.3809L31.5642 11.0579C31.3309 10.8188 31.2143 10.5356 31.2143 10.2083C31.2143 9.88107 31.3309 9.59787 31.5642 9.35872C31.7974 9.11957 32.0737 9 32.3929 9H41.8214C42.1406 9 42.4169 9.11957 42.6501 9.35872C42.8834 9.59787 43 9.88107 43 10.2083Z" fill="#3794DB"/>
</svg>
