<svg viewBox="0 0 512 512" fill="none" xmlns="http://www.w3.org/2000/svg">
    <path d="M474.667 0H37.3333C16.7467 0 7.62939e-06 16.7467 7.62939e-06 37.3333V90.6667C7.62939e-06 111.253 16.7467 128 37.3333 128H474.667C495.253 128 512 111.253 512 90.6667V37.3333C512 16.7467 495.253 0 474.667 0Z" fill="currentColor"/>
    <path d="M37.3333 512H197.333C217.92 512 234.667 495.253 234.667 474.667V208C234.667 187.413 217.92 170.667 197.333 170.667H37.3333C16.7467 170.667 0 187.413 0 208V474.667C0 495.253 16.7467 512 37.3333 512Z" fill="currentColor"/>
    <path d="M474.667 170.667H314.667C294.08 170.667 277.333 187.413 277.333 208V282.667C277.333 303.253 294.08 320 314.667 320H474.667C495.253 320 512 303.253 512 282.667V208C512 187.413 495.253 170.667 474.667 170.667Z" fill="currentColor"/>
    <path d="M474.667 362.667H314.667C294.08 362.667 277.333 379.413 277.333 400V474.667C277.333 495.253 294.08 512 314.667 512H474.667C495.253 512 512 495.253 512 474.667V400C512 379.413 495.253 362.667 474.667 362.667Z" fill="currentColor"/>
</svg>
