<svg viewBox="0 0 389 331" fill="none" xmlns="http://www.w3.org/2000/svg">
    <path d="M194.113 161.505C230.804 161.505 260.551 125.376 260.551 80.8098C260.551 36.2428 250.783 0.11377 194.113 0.11377C137.441 0.11377 127.675 36.2428 127.675 80.8098C127.676 125.376 157.422 161.505 194.113 161.505Z" fill="currentColor"/>
    <path d="M319.455 281.459C318.226 203.822 308.086 181.7 230.496 167.696C230.496 167.696 219.572 181.613 194.115 181.613C168.658 181.613 157.736 167.696 157.736 167.696C80.992 181.546 70.234 203.341 68.82 278.936C68.705 285.109 68.652 285.433 68.631 284.716C68.635 286.059 68.641 288.542 68.641 292.873C68.641 292.873 87.114 330.112 194.116 330.112C301.118 330.112 319.593 292.873 319.593 292.873C319.593 290.091 319.595 288.155 319.597 286.84C319.576 287.283 319.533 286.424 319.455 281.459Z" fill="currentColor"/>
    <path d="M286.313 147.097C316.114 147.097 340.272 117.754 340.272 81.5578C340.272 45.3608 332.34 16.0178 286.313 16.0178C278.571 16.0178 271.909 16.8508 266.178 18.4058C276.809 38.0038 278.266 61.8078 278.266 80.8088C278.266 102.323 272.434 122.863 261.694 139.87C269.076 144.48 277.441 147.097 286.313 147.097Z" fill="currentColor"/>
    <path d="M388.111 244.521C387.111 181.466 378.877 163.499 315.859 152.125C315.859 152.125 306.988 163.429 286.312 163.429C285.457 163.429 284.628 163.403 283.812 163.366C296.949 169.289 308.9 177.536 317.701 189.604C332.916 210.467 336.414 238.493 337.136 279.666C379.533 271.288 388.222 253.793 388.222 253.793C388.222 251.513 388.222 249.949 388.226 248.88C388.209 249.256 388.174 248.582 388.111 244.521Z" fill="currentColor"/>
    <path d="M101.912 147.097C110.785 147.097 119.148 144.48 126.533 139.871C115.793 122.864 109.961 102.324 109.961 80.8098C109.961 61.8078 111.418 38.0038 122.047 18.4068C116.317 16.8518 109.656 16.0188 101.912 16.0188C55.885 16.0188 47.955 45.3618 47.955 81.5588C47.955 117.754 72.113 147.097 101.912 147.097Z" fill="currentColor"/>
    <path d="M104.412 163.365C103.598 163.402 102.769 163.428 101.912 163.428C81.236 163.428 72.365 152.124 72.365 152.124C9.349 163.498 1.113 181.464 0.115 244.52C0.05 248.582 0.017 249.255 0 248.878C0.002 249.947 0.004 251.511 0.004 253.791C0.004 253.791 8.694 271.286 51.088 279.664C51.813 238.492 55.309 210.466 70.526 189.602C79.326 177.536 91.275 169.288 104.412 163.365Z" fill="currentColor"/>
</svg>
