<svg viewBox="0 0 449 512" fill="none" xmlns="http://www.w3.org/2000/svg">
    <path d="M432.333 85.3333C431.48 85.3333 430.627 85.76 429.773 85.9733C428.707 85.76 427.853 85.3333 427 85.3333H405.667V21.3333C405.667 9.6 396.067 0 384.333 0H64.3333C32.7599 0 6.51992 23.04 1.39992 53.3333C0.759918 55.04 0.333252 56.7467 0.333252 58.6667V453.333C0.333252 485.76 26.5733 512 58.9999 512H432.333C441.08 512 448.333 504.747 448.333 496V101.333C448.333 92.5867 441.08 85.3333 432.333 85.3333ZM224.333 437.333C147.96 437.333 85.6666 375.04 85.6666 298.667C85.6666 222.293 147.96 160 224.333 160C300.707 160 363 222.293 363 298.667C363 375.04 300.707 437.333 224.333 437.333ZM363 85.3333H64.3333C52.5999 85.3333 42.9999 75.7333 42.9999 64C42.9999 52.2667 52.5999 42.6667 64.3333 42.6667H363V85.3333Z" fill="currentColor"/>
    <path d="M256.333 352C250.872 352 245.411 349.909 241.251 345.749L209.251 313.749C205.24 309.76 203 304.341 203 298.667V234.667C203 222.869 212.557 213.333 224.333 213.333C236.109 213.333 245.667 222.869 245.667 234.667V289.835L271.416 315.584C279.757 323.925 279.757 337.408 271.416 345.749C267.256 349.909 261.795 352 256.333 352Z" fill="currentColor"/>
</svg>
