<svg viewBox="0 0 384 512" fill="none" xmlns="http://www.w3.org/2000/svg">
    <path d="M256 0V128H384L256 0Z" fill="currentColor"/>
    <path d="M256 160C238.368 160 224 145.632 224 128V0H32C14.368 0 0 14.368 0 32V480C0 497.664 14.368 512 32 512H352C369.664 512 384 497.664 384 480V160H256ZM112 97.984V80C112 71.168 119.168 64 128 64C136.832 64 144 71.168 144 80V98.016C154.016 100.288 163.36 104.512 171.072 110.784C177.952 116.352 178.976 126.432 173.376 133.28C167.776 140.16 157.696 141.152 150.88 135.584C144.832 130.688 136.704 128 128 128C110.656 128 96 138.976 96 152C96 165.024 110.656 176 128 176C163.296 176 192 201.12 192 232C192 258.016 171.52 279.744 144 286.016V304C144 312.832 136.832 320 128 320C119.168 320 112 312.832 112 304V285.984C101.984 283.712 92.64 279.488 84.928 273.216C78.048 267.616 77.024 257.536 82.624 250.688C88.224 243.776 98.272 242.816 105.12 248.384C111.168 253.312 119.296 256 128 256C145.344 256 160 245.024 160 232C160 218.976 145.344 208 128 208C92.704 208 64 182.88 64 152C64 125.984 84.48 104.256 112 97.984ZM304 448H80C71.168 448 64 440.832 64 432C64 423.168 71.168 416 80 416H304C312.832 416 320 423.168 320 432C320 440.832 312.832 448 304 448ZM304 384H80C71.168 384 64 376.832 64 368C64 359.168 71.168 352 80 352H304C312.832 352 320 359.168 320 368C320 376.832 312.832 384 304 384ZM304 320H240C231.168 320 224 312.832 224 304C224 295.168 231.168 288 240 288H304C312.832 288 320 295.168 320 304C320 312.832 312.832 320 304 320ZM304 256H240C231.168 256 224 248.832 224 240C224 231.168 231.168 224 240 224H304C312.832 224 320 231.136 320 240C320 248.832 312.832 256 304 256Z" fill="currentColor"/>
</svg>
