<svg viewBox="0 0 512 512" fill="none" xmlns="http://www.w3.org/2000/svg">
    <path d="M256 308.706C231.09 308.706 210.824 328.971 210.824 353.882V375.759C220.375 379.374 230.466 381.878 240.941 383.114V424.237C223.414 430.453 210.824 447.192 210.824 466.824C210.824 491.735 231.09 512 256 512C280.911 512 301.176 491.735 301.176 466.824C301.176 447.192 288.586 430.453 271.059 424.237V383.114C281.534 381.878 291.625 379.374 301.176 375.759V353.882C301.176 328.971 280.911 308.706 256 308.706Z" fill="currentColor"/>
    <path d="M256 278.588C268.475 278.588 278.588 268.475 278.588 256C278.588 243.525 268.475 233.412 256 233.412C243.525 233.412 233.412 243.525 233.412 256C233.412 268.475 243.525 278.588 256 278.588Z" fill="currentColor"/>
    <path d="M383.111 271.059H424.237C430.453 288.586 447.192 301.176 466.824 301.176C491.734 301.176 512 280.911 512 256C512 231.09 491.734 210.824 466.824 210.824C447.192 210.824 430.453 223.415 424.237 240.941H383.11C380.281 216.908 370.772 194.891 356.49 176.806L395.343 137.952C421.258 154.086 455.414 150.592 477.471 128.535C503.388 102.618 503.388 60.4461 477.471 34.5289C451.554 8.61064 409.382 8.60963 383.464 34.5289C361.209 56.7838 358.083 91.0145 374.047 116.657L335.193 155.51C317.109 141.228 295.091 131.721 271.058 128.89V87.7628C288.585 81.5465 301.175 64.8082 301.175 45.1765C301.175 20.2662 280.91 0 255.999 0C231.089 0 210.823 20.2662 210.823 45.1765C210.823 64.8082 223.413 81.5465 240.94 87.7628V128.89C216.907 131.72 194.889 141.228 176.805 155.51L137.952 116.656C153.916 91.0135 150.79 56.7838 128.535 34.5289C102.618 8.61064 60.4461 8.61164 34.5289 34.5289C8.61064 60.4461 8.61064 102.618 34.5289 128.535C56.5539 150.56 90.7053 154.108 116.656 137.952L155.51 176.807C141.228 194.892 131.721 216.909 128.89 240.942H87.7628C81.5465 223.416 64.8082 210.825 45.1765 210.825C20.2662 210.825 0 231.091 0 256.001C0 280.912 20.2662 301.177 45.1765 301.177C64.8082 301.177 81.5465 288.587 87.7628 271.06H128.889C131.722 295.09 141.239 317.1 155.523 335.183L116.656 374.048C91.0135 358.084 56.7828 361.211 34.5279 383.465C8.60963 409.382 8.60963 451.554 34.5279 477.472C60.4451 503.389 102.616 503.39 128.534 477.472C150.789 455.217 153.915 420.986 137.951 395.344C150.558 382.737 160.882 372.414 180.726 352.569C181.177 326.411 195.033 303.374 215.928 290.183C208.061 280.972 203.294 269.035 203.294 256C203.294 226.937 226.937 203.294 256 203.294C285.062 203.294 308.706 226.937 308.706 256C308.706 269.035 303.938 280.972 296.07 290.183C316.945 303.361 330.821 326.386 331.272 352.569C345.413 366.709 354.702 375.999 374.047 395.344C358.083 420.986 361.209 455.217 383.464 477.472C409.381 503.389 451.553 503.39 477.471 477.472C503.388 451.555 503.388 409.383 477.471 383.465C455.216 361.211 420.986 358.084 395.343 374.048L356.478 335.182C370.762 317.099 380.279 295.088 383.111 271.059Z" fill="currentColor"/>
</svg>
