<svg viewBox="0 0 511 511" fill="none" xmlns="http://www.w3.org/2000/svg">
    <path d="M255.34 215.972C263.597 215.972 270.311 222.681 270.311 230.943C270.311 239.215 277.005 245.913 285.282 245.913C293.554 245.913 300.252 239.215 300.252 230.943C300.252 211.512 287.777 195.083 270.471 188.837V166.674C270.471 158.397 263.773 151.703 255.5 151.703C247.227 151.703 240.529 158.397 240.529 166.674V188.74C223.06 194.892 210.428 211.391 210.428 230.943C210.428 255.707 230.572 275.855 255.34 275.855C263.597 275.855 270.311 282.564 270.311 290.825C270.311 299.083 263.597 305.796 255.34 305.796C247.079 305.796 240.369 299.083 240.369 290.825C240.369 282.549 233.672 275.855 225.399 275.855C217.122 275.855 210.428 282.549 210.428 290.825C210.428 310.373 223.06 326.872 240.529 333.028V346.322C240.529 354.595 247.227 361.293 255.5 361.293C263.773 361.293 270.471 354.595 270.471 346.322V332.927C287.777 326.681 300.252 310.256 300.252 290.822C300.252 266.057 280.104 245.909 255.34 245.909C247.079 245.909 240.369 239.2 240.369 230.939C240.369 222.681 247.079 215.972 255.34 215.972Z" fill="currentColor"/>
    <path d="M395.601 409.932L378.891 384.876C373.878 377.387 363.277 375.839 356.346 382.112C328.732 407.301 292.911 421.176 255.5 421.176C255.5 418.162 255.5 403.207 255.5 406.225C255.5 395.098 243.789 387.858 233.835 392.833L158.982 437.729C147.949 443.246 147.949 458.989 158.982 464.509L233.835 510.396C243.789 515.374 255.5 508.138 255.5 497.008C255.5 493.99 255.5 479.043 255.5 482.057C306.085 482.057 354.915 462.755 392.985 429.511C398.657 424.568 399.768 416.189 395.601 409.932Z" fill="currentColor"/>
    <path d="M119.165 234.833L74.2726 159.98C68.7522 148.943 53.0095 148.943 47.493 159.98L1.59841 234.833C-3.37623 244.787 3.86351 256.498 14.9902 256.498C18.0077 256.498 33.9531 256.498 30.9394 256.498C30.9394 307.083 49.2435 355.913 82.487 393.983C87.4304 399.659 95.8125 400.767 102.066 396.599L127.138 379.889C134.814 374.751 136.027 364.034 129.886 357.348C104.697 329.73 90.8222 293.901 90.8222 256.49C93.8359 256.49 108.787 256.49 105.773 256.49C116.904 256.49 124.14 244.787 119.165 234.833Z" fill="currentColor"/>
    <path d="M154.654 130.884C182.268 105.695 218.089 91.8203 255.5 91.8203C255.5 94.8339 255.5 109.785 255.5 106.772C255.5 117.898 267.211 125.138 277.165 120.159L352.018 75.2667C363.051 69.7502 363.051 54.0076 352.018 48.4871L277.165 2.59645C267.211 -2.37819 255.5 4.86155 255.5 15.9882C255.5 19.0019 255.5 34.955 255.5 31.9375C204.915 31.9375 156.085 50.2415 118.015 83.4889C112.343 88.4285 111.232 96.8066 115.399 103.064L132.109 128.12C137.196 135.723 147.863 137.064 154.654 130.884Z" fill="currentColor"/>
    <path d="M463.291 353.149L509.186 278.296C514.16 268.342 506.921 256.631 495.794 256.631C492.776 256.631 476.831 256.631 479.845 256.631C479.845 206.046 461.541 157.216 428.297 119.146C423.369 113.458 414.991 112.335 408.718 116.53L383.662 133.24C376.036 138.343 374.742 149.01 380.898 155.785C406.087 183.399 419.962 219.22 419.962 256.631C416.948 256.631 401.997 256.631 405.011 256.631C393.88 256.631 386.644 268.342 391.619 278.296L436.511 353.149C442.032 364.182 457.775 364.182 463.291 353.149Z" fill="currentColor"/>
</svg>
