<svg viewBox="0 0 512 480" fill="none" xmlns="http://www.w3.org/2000/svg">
    <path d="M509.931 207.915C506.582 182.08 479.68 164.395 453.931 174.038C444.288 177.686 432.683 172.267 428.331 162.539C423.126 150.934 416.747 139.819 409.323 129.494C402.71 120.299 403.968 108.267 412.182 101.483C421.995 93.419 427.478 81.494 427.222 68.8C426.966 55.893 420.886 44.011 410.539 36.16C393.515 23.275 374.955 12.544 355.35 4.28797C350.059 2.06897 344.513 0.938965 338.859 0.938965C318.422 0.938965 301.184 15.467 297.856 35.478C296.107 45.995 286.144 53.142 274.923 51.926C262.464 50.603 249.494 50.603 237.056 51.926C225.877 53.142 215.872 45.995 214.123 35.478C210.795 15.467 193.558 0.938965 173.12 0.938965C167.467 0.938965 161.92 2.06997 156.651 4.28797C137.024 12.544 118.464 23.253 101.44 36.16C91.115 44.011 85.035 55.893 84.779 68.779C84.523 81.494 90.006 93.398 99.819 101.504C108.054 108.267 109.27 120.299 102.678 129.472C95.254 139.797 88.854 150.912 83.649 162.517C79.297 172.245 68.545 177.962 57.814 173.93C53.121 172.181 48.235 171.285 43.286 171.285C22.465 171.285 4.758 187.029 2.049 207.914C0.704 218.496 0 229.312 0 240C0 250.688 0.704 261.504 2.069 272.085C5.397 297.898 32.277 315.584 58.069 305.962C67.69 302.314 79.317 307.733 83.669 317.461C88.874 329.066 95.253 340.181 102.677 350.506C109.29 359.701 108.032 371.733 99.818 378.517C90.005 386.581 84.522 398.506 84.778 411.2C85.034 424.107 91.114 435.989 101.461 443.84C118.485 456.725 137.045 467.456 156.65 475.712C161.941 477.931 167.487 479.061 173.141 479.061C193.578 479.061 210.816 464.533 214.144 444.522C215.893 434.005 225.877 426.965 237.077 428.074C249.514 429.397 262.485 429.397 274.944 428.074C286.165 426.943 296.128 434.005 297.877 444.522C301.205 464.533 318.442 479.039 338.88 479.061C344.533 479.061 350.08 477.93 355.349 475.712C374.954 467.456 393.536 456.747 410.538 443.84C420.863 435.989 426.965 424.107 427.221 411.221C427.477 398.506 421.994 386.602 412.181 378.496C403.946 371.733 402.73 359.701 409.322 350.528C416.746 340.203 423.146 329.088 428.351 317.483C432.703 307.734 443.476 302.038 454.186 306.07C458.879 307.841 463.765 308.737 468.714 308.737C489.535 308.737 507.242 292.993 509.951 272.108C511.296 261.397 512 250.624 512 240C512 229.376 511.296 218.603 509.931 207.915ZM256 325.333C208.939 325.333 170.667 287.061 170.667 240C170.667 192.939 208.939 154.667 256 154.667C303.061 154.667 341.333 192.939 341.333 240C341.333 287.061 303.061 325.333 256 325.333Z" fill="currentColor"/>
</svg>
