<svg viewBox="0 0 410 460" fill="none" xmlns="http://www.w3.org/2000/svg">
    <path d="M334.574 297.043C316.37 322.045 286.882 338.329 253.658 338.329H207.04C190.936 338.329 177.222 328.105 172.029 313.795C165.619 311.883 159.333 309.401 153.199 306.353C140.209 299.899 128.414 291.155 118.031 280.323C50.6811 295.119 0.274048 355.131 0.274048 426.926V436.31C0.274048 449.21 10.732 459.668 23.632 459.668H386.035C398.935 459.668 409.393 449.21 409.393 436.31V426.926C409.392 371.464 379.309 323.032 334.574 297.043Z" fill="currentColor"/>
    <path d="M93.205 232.178C103.244 232.178 111.982 226.614 116.509 218.403C116.628 218.728 116.749 219.051 116.871 219.374C116.907 219.471 116.943 219.568 116.979 219.665C127.599 247.619 148.263 271.053 175.511 281.292C182.101 270.821 193.754 263.857 207.041 263.857H253.659C258.309 263.857 262.637 262.545 266.431 260.424C272.803 256.861 278.533 247.822 281.492 243.031C286.227 235.364 289.896 227.243 293.149 218.389C294.977 221.709 297.491 224.597 300.503 226.86V238.291C300.503 264.121 279.489 285.136 253.658 285.136H207.04C198.227 285.136 191.082 292.281 191.082 301.094C191.082 309.908 198.227 317.052 207.04 317.052H253.658C297.087 317.052 332.419 281.72 332.419 238.291V226.86C338.879 222.007 343.058 214.283 343.058 205.582V139.011C343.058 130.131 338.703 122.274 332.016 117.443C326.83 51.816 271.77 0 204.833 0C137.895 0 82.836 51.816 77.65 117.442C70.963 122.273 66.608 130.131 66.608 139.01V205.58C66.608 220.311 78.575 232.178 93.205 232.178ZM204.833 31.917C254.385 31.917 295.256 69.785 300.033 118.102C296.897 120.569 294.328 123.722 292.558 127.34C277.5 88.054 243.886 60.702 204.832 60.702C164.936 60.702 131.861 88.994 117.165 127.183C117.145 127.235 117.126 127.288 117.106 127.341C115.336 123.723 112.767 120.57 109.631 118.103C114.411 69.785 155.281 31.917 204.833 31.917Z" fill="currentColor"/>
</svg>
