<svg viewBox="0 0 512 424" fill="none" xmlns="http://www.w3.org/2000/svg">
    <path d="M374.154 138.154H512V74.1541C512 33.4351 478.873 0.308105 438.154 0.308105H73.846C33.127 0.308105 0 33.4351 0 74.1541V349.846C0 390.565 33.127 423.692 73.846 423.692H438.154C478.873 423.692 512 390.565 512 349.846V285.846H374.154C333.435 285.846 300.308 252.719 300.308 212C300.308 171.281 333.435 138.154 374.154 138.154Z" fill="currentColor"/>
    <path d="M374.154 167.692C349.723 167.692 329.846 187.568 329.846 212C329.846 236.432 349.722 256.308 374.154 256.308H512V167.693L374.154 167.692ZM393.846 226.769H374.154C365.997 226.769 359.385 220.156 359.385 212C359.385 203.844 365.998 197.231 374.154 197.231H393.846C402.003 197.231 408.615 203.844 408.615 212C408.615 220.156 402.003 226.769 393.846 226.769Z" fill="currentColor"/>
</svg>
