<svg viewBox="0 0 512 512" fill="none" xmlns="http://www.w3.org/2000/svg">
    <path d="M496 0.0161133H16C7.168 0.0161133 0 7.18411 0 16.0161V240.016C0 248.848 7.168 256.016 16 256.016H74.816C87.552 233.712 96.096 212.144 101.344 192.016H96C78.336 192.016 64 177.68 64 160.016V96.0161C64 78.3521 78.336 64.0161 96 64.0161H416C433.664 64.0161 448 78.3521 448 96.0161V160.016C448 174.736 437.856 186.576 424.352 190.32C420.608 211.088 414.432 233.136 405.312 256.016H496C504.832 256.016 512 248.848 512 240.016V16.0161C512 7.18411 504.832 0.0161133 496 0.0161133Z" fill="currentColor"/>
    <path d="M395.36 96.0161H139.104C144.768 137.616 143.392 205.776 98.368 279.664C16.352 414.192 64.096 500.336 66.144 503.952C68.992 508.912 74.304 511.984 80.032 511.984H304.032C309.696 511.984 314.912 508.912 317.792 504.048C320.672 499.184 320.736 493.072 317.984 488.112C316.32 485.136 278.24 413.616 349.696 296.336C398.368 216.496 401.216 143.312 395.36 96.0161ZM192 144.016C192 135.184 199.168 128.016 208 128.016C216.832 128.016 224 135.184 224 144.016V176.016C224 184.848 216.832 192.016 208 192.016C199.168 192.016 192 184.848 192 176.016V144.016ZM256 432.016C256 440.848 248.832 448.016 240 448.016C231.168 448.016 224 440.848 224 432.016V400.016C224 391.184 231.168 384.016 240 384.016C248.832 384.016 256 391.184 256 400.016V432.016ZM224 344.016C197.536 344.016 176 318.896 176 288.016C176 257.136 197.536 232.016 224 232.016C250.464 232.016 272 257.136 272 288.016C272 318.896 250.464 344.016 224 344.016Z" fill="currentColor"/>
</svg>
