<svg width="1280" height="720" viewBox="0 0 1280 720" fill="none" xmlns="http://www.w3.org/2000/svg">
<mask id="mask0" mask-type="alpha" maskUnits="userSpaceOnUse" x="-105" y="-610" width="1000" height="2079">
<path fill-rule="evenodd" clip-rule="evenodd" d="M313.411 -609.315C319.432 -609.742 324.648 -610.111 325.365 -609.697C326.587 -608.991 392.773 -578.27 425.713 -562.997L493.697 -523.747L575.35 -481.712L728.123 -393.509C729.956 -392.45 748.425 -376.339 757.43 -368.416L781.874 -354.304L808.89 -330.534L837.874 -287.241L865.852 -221.036L886.793 -149.7L894.065 -81.1486L891.367 -11.2035L879.461 60.5761L858.468 132.217L826.862 202.838L786.611 272.553L735.184 343.988L680.58 415.631L624.449 486.393L590.472 531.129L610.129 578.23L630.429 627.744L649.844 678.791L669.3 722.711L690.605 768.721L711.589 813.523L732.13 859.091L750.702 904.543L769.273 949.996L787.402 996.214L802.676 1043.85L814.453 1090.49L823.375 1138.54L828.357 1186.36L827.428 1233.83L821.675 1282.61L808.927 1329.38L786.128 1372.4L754.283 1408.16L710.658 1436.09C706.919 1439.03 698.781 1445.37 696.143 1447.11C693.506 1448.86 677.568 1453.41 669.929 1455.47L631.975 1468.29L582.523 1462.21L525.473 1444.6L433.045 1410.64L348.375 1379.12L297.799 1359.11L182.414 1319.05L143.737 1304.9L78.6477 1276.51L40.2131 1258.41L-18.0005 1214.58L-50.3228 1180.6L-76.0511 1142.25L-94.7432 1098.77L-104.308 1048.3L-104.425 992.055L-96.4995 927.171L-78.6833 855.739L-53.9517 781.149L-22.7468 704.168L14.8103 626.769L55.7445 552.34L103.715 472.781L154.741 394.986L209.265 318.189L263.024 240.951L316.663 165.686L347.142 119.952L317.717 58.0178L291.99 0.262419L259.39 -80.8693L219.998 -199.631L198.092 -274.588L188.689 -353.563L187.608 -413.433L188.055 -472.42L197.668 -526.116L211.662 -560.938L233.495 -588.17L261.921 -600.36L295.252 -608.697C298.79 -608.278 306.614 -608.833 313.411 -609.315ZM520.704 708.422L513.874 639.105L468.92 708.148L427.181 789.262L398.55 856.493L379.971 908.076L356.083 988.26L346.43 1049.08L345.702 1099.74L351.569 1146.03L354.624 1147.79L382.931 1118.17L410.031 1088.87L450.964 1033.85L472.115 991.92L491.939 952.291L502.797 910.551L512.128 867.929L516.634 826.607L519.049 787.142C519.305 774.351 520.081 748.309 521.143 746.471C522.204 744.632 521.292 720.339 520.704 708.422Z" fill="#C4C4C4"/>
</mask>
<g mask="url(#mask0)">
<g filter="url(#filter0_f)">
<path d="M349.644 1080.56L387.686 975.861L521.668 712.044L516.849 635.715L506.603 551.146L490.125 465.022L461.748 373.049L432.323 291.708L419.46 262.83L390.798 201.338L359.845 138.522L342.64 103.052L242.225 -123.466L-36.8545 643.927L-159.391 1069.62L141.933 1237.46L185.516 1236.06L249.242 1215.65L313.613 1178.25L358.806 1144.07L349.644 1080.56Z" fill="#0A0707"/>
</g>
<g filter="url(#filter1_f)">
<path d="M526.798 389.155L595.457 540.136L920.546 112.899L891.698 -165.595L848.475 -269.505L794.992 -300.384L761.212 -319.886L729.564 -320.151L685.982 -318.755L643.927 -316.477L603.561 -303.009L575.456 -289.613L561.584 -276.17L542.284 -251.562L524.43 -211.817L509.712 -165.156L494.309 -113.781L479.83 -32.2511L472.348 12.4602L463.415 119.665L461.119 176.563L468.714 226.915L491.545 293.213L526.798 389.155Z" fill="url(#paint0_radial)"/>
</g>
<g filter="url(#filter2_f)">
<path d="M181.675 92.4791L383.909 92.327L918.454 -283.273L626.145 -522.303L503.353 -566.181L449.869 -597.06L416.09 -616.563L384.442 -616.827L340.86 -615.431L298.805 -613.153L258.438 -599.686L230.334 -586.289L216.462 -572.847L197.162 -548.238L179.308 -508.494L164.589 -461.832L149.187 -410.457L134.707 -328.928L127.226 -284.216L118.292 -177.012L115.996 -120.113L123.591 -69.7617L146.423 -3.4632L181.675 92.4791Z" fill="url(#paint1_linear)"/>
</g>
<path d="M932.108 872.475L736.805 820.234L-121.417 1095.76L99.0065 1402.46L206.22 1476.67L249.875 1520.37L277.447 1547.96L307.936 1556.42L350.377 1566.36L391.572 1575.05L434.03 1572.49L464.63 1566.83L726.47 1506.38L751.469 1487.6L778.985 1453.82L805.263 1412.54L833.42 1366.89L868.484 1291.85L887.27 1250.59L923.618 1149.31L940.548 1094.92L946.235 1044.3L941.335 974.317L932.108 872.475Z" fill="url(#paint2_linear)"/>
</g>
<defs>
<filter id="filter0_f" x="-164.767" y="-128.842" width="691.811" height="1371.68" filterUnits="userSpaceOnUse" color-interpolation-filters="sRGB">
<feFlood flood-opacity="0" result="BackgroundImageFix"/>
<feBlend mode="normal" in="SourceGraphic" in2="BackgroundImageFix" result="shape"/>
<feGaussianBlur stdDeviation="2.68807" result="effect1_foregroundBlur"/>
</filter>
<filter id="filter1_f" x="455.743" y="-325.527" width="470.179" height="871.04" filterUnits="userSpaceOnUse" color-interpolation-filters="sRGB">
<feFlood flood-opacity="0" result="BackgroundImageFix"/>
<feBlend mode="normal" in="SourceGraphic" in2="BackgroundImageFix" result="shape"/>
<feGaussianBlur stdDeviation="2.68807" result="effect1_foregroundBlur"/>
</filter>
<filter id="filter2_f" x="110.62" y="-622.204" width="813.21" height="720.059" filterUnits="userSpaceOnUse" color-interpolation-filters="sRGB">
<feFlood flood-opacity="0" result="BackgroundImageFix"/>
<feBlend mode="normal" in="SourceGraphic" in2="BackgroundImageFix" result="shape"/>
<feGaussianBlur stdDeviation="2.68807" result="effect1_foregroundBlur"/>
</filter>
<radialGradient id="paint0_radial" cx="0" cy="0" r="1" gradientUnits="userSpaceOnUse" gradientTransform="translate(478.689 167.3) rotate(-12.3816) scale(702.118 835.555)">
<stop stop-color="#0A0707"/>
<stop offset="1" stop-color="#0A0707"/>
</radialGradient>
<linearGradient id="paint1_linear" x1="432.835" y1="-417.523" x2="208.783" y2="48.146" gradientUnits="userSpaceOnUse">
<stop stop-color="#0A0707"/>
<stop offset="1" stop-color="#0A0707" stop-opacity="0"/>
</linearGradient>
<linearGradient id="paint2_linear" x1="312.75" y1="1351.29" x2="649.85" y2="959.646" gradientUnits="userSpaceOnUse">
<stop stop-color="#0A0707"/>
<stop offset="1" stop-color="#0A0707" stop-opacity="0"/>
</linearGradient>
</defs>
</svg>
