<svg width="9" height="119" viewBox="0 0 9 119" fill="none" xmlns="http://www.w3.org/2000/svg">
<path d="M4.64645 118.354C4.84171 118.549 5.15829 118.549 5.35356 118.354L8.53554 115.172C8.7308 114.976 8.7308 114.66 8.53554 114.464C8.34027 114.269 8.02369 114.269 7.82843 114.464L5 117.293L2.17157 114.464C1.97631 114.269 1.65973 114.269 1.46447 114.464C1.26921 114.66 1.26921 114.976 1.46447 115.172L4.64645 118.354ZM4.5 77L4.5 118L5.5 118L5.5 77L4.5 77Z" fill="white"/>
<path d="M1.656 24.9151C1.04 25.4751 0.732 26.2551 0.732 27.2551C0.732 28.0871 0.892 28.6951 1.212 29.0791C1.524 29.4551 1.948 29.6431 2.484 29.6431C2.844 29.6431 3.132 29.5551 3.348 29.3791C3.556 29.2031 3.724 28.9351 3.852 28.5751C3.98 28.2071 4.104 27.7311 4.224 27.1471C4.352 26.5311 4.504 25.9991 4.68 25.5511C4.848 25.1031 5.08 24.7591 5.376 24.5191C5.672 24.2711 6.072 24.1471 6.576 24.1471C7.328 24.1471 7.892 24.4271 8.268 24.9871C8.644 25.5471 8.832 26.2831 8.832 27.1951C8.832 28.5151 8.408 29.6391 7.56 30.5671L7.068 30.2431C7.436 29.8911 7.732 29.4551 7.956 28.9351C8.18 28.4071 8.292 27.8191 8.292 27.1711C8.292 26.4351 8.156 25.8551 7.884 25.4311C7.604 25.0071 7.192 24.7951 6.648 24.7951C6.272 24.7951 5.968 24.8951 5.736 25.0951C5.504 25.2871 5.316 25.5831 5.172 25.9831C5.02 26.3751 4.88 26.8711 4.752 27.4711C4.624 28.0711 4.48 28.5791 4.32 28.9951C4.16 29.4111 3.944 29.7271 3.672 29.9431C3.4 30.1591 3.032 30.2671 2.568 30.2671C2.056 30.2671 1.624 30.1431 1.272 29.8951C0.912 29.6391 0.64 29.2871 0.456 28.8391C0.272 28.3831 0.18 27.8551 0.18 27.2551C0.18 26.7031 0.264 26.2111 0.432 25.7791C0.592 25.3471 0.839999 24.9551 1.176 24.6031L1.656 24.9151Z" fill="white"/>
<path d="M8.88 20.1335C8.88 20.7175 8.732 21.2415 8.436 21.7055C8.14 22.1695 7.744 22.5375 7.248 22.8095C6.752 23.0815 6.208 23.2175 5.616 23.2175C5.024 23.2175 4.488 23.0855 4.008 22.8215C3.52 22.5575 3.132 22.1935 2.844 21.7295C2.556 21.2655 2.412 20.7375 2.412 20.1455C2.412 19.5775 2.544 19.0775 2.808 18.6455C3.064 18.2135 3.416 17.8895 3.864 17.6735L4.056 18.2615C3.712 18.4455 3.444 18.7095 3.252 19.0535C3.052 19.3895 2.952 19.7615 2.952 20.1695C2.952 20.6255 3.072 21.0375 3.312 21.4055C3.544 21.7735 3.86 22.0695 4.26 22.2935C4.66 22.5095 5.112 22.6175 5.616 22.6175C6.12 22.6175 6.58 22.5055 6.996 22.2815C7.404 22.0575 7.732 21.7615 7.98 21.3935C8.22 21.0175 8.34 20.6055 8.34 20.1575C8.34 19.8695 8.288 19.5895 8.184 19.3175C8.072 19.0375 7.928 18.7975 7.752 18.5975C7.576 18.3895 7.388 18.2535 7.188 18.1895L7.356 17.6015C7.652 17.7055 7.916 17.8855 8.148 18.1415C8.372 18.3895 8.552 18.6855 8.688 19.0295C8.816 19.3735 8.88 19.7415 8.88 20.1335Z" fill="white"/>
<path d="M3.06 13.2945C3.076 13.8545 3.244 14.3465 3.564 14.7705C3.876 15.1865 4.308 15.4785 4.86 15.6465L8.76 15.6465L8.76 16.2465L2.52 16.2465L2.52 15.6705L4.056 15.6705C3.624 15.4545 3.268 15.1665 2.988 14.8065C2.708 14.4465 2.548 14.0665 2.508 13.6665C2.508 13.5865 2.508 13.5185 2.508 13.4625C2.5 13.3985 2.496 13.3425 2.496 13.2945L3.06 13.2945Z" fill="white"/>
<path d="M8.88 9.77498C8.88 10.359 8.732 10.883 8.436 11.347C8.14 11.803 7.748 12.163 7.26 12.427C6.772 12.691 6.236 12.823 5.652 12.823C5.212 12.823 4.8 12.747 4.416 12.595C4.024 12.443 3.68 12.227 3.384 11.947C3.08 11.667 2.844 11.343 2.676 10.975C2.5 10.607 2.412 10.207 2.412 9.77498C2.412 9.34298 2.5 8.94298 2.676 8.57498C2.844 8.20698 3.08 7.88698 3.384 7.61498C3.68 7.33498 4.024 7.11898 4.416 6.96698C4.8 6.80698 5.212 6.72698 5.652 6.72698C6.236 6.72698 6.772 6.86298 7.26 7.13498C7.748 7.39898 8.14 7.76298 8.436 8.22698C8.732 8.68298 8.88 9.19898 8.88 9.77498ZM5.676 12.223C6.164 12.223 6.612 12.115 7.02 11.899C7.42 11.675 7.74 11.379 7.98 11.011C8.22 10.643 8.34 10.235 8.34 9.78698C8.34 9.33898 8.22 8.93098 7.98 8.56298C7.732 8.18698 7.404 7.89098 6.996 7.67498C6.588 7.45098 6.136 7.33898 5.64 7.33898C5.152 7.33898 4.704 7.45098 4.296 7.67498C3.888 7.89098 3.564 8.18698 3.324 8.56298C3.076 8.93098 2.952 9.33498 2.952 9.77498C2.952 10.223 3.076 10.631 3.324 10.999C3.572 11.367 3.904 11.663 4.32 11.887C4.728 12.111 5.18 12.223 5.676 12.223Z" fill="white"/>
<path d="M-1.10702e-06 5.24142L-1.13377e-06 4.62942L7.524 4.62942C7.812 4.62942 8.012 4.56942 8.124 4.44942C8.228 4.32942 8.28 4.17342 8.28 3.98142C8.28 3.85342 8.268 3.72142 8.244 3.58542C8.22 3.44942 8.188 3.32942 8.148 3.22542L8.64 3.10542C8.688 3.24142 8.732 3.40942 8.772 3.60942C8.812 3.80942 8.832 3.98142 8.832 4.12542C8.832 4.46142 8.732 4.73342 8.532 4.94142C8.324 5.14142 8.048 5.24142 7.704 5.24142L-1.10702e-06 5.24142Z" fill="white"/>
<path d="M-1.24277e-06 2.13595L-1.26952e-06 1.52395L7.524 1.52395C7.812 1.52395 8.012 1.46395 8.124 1.34395C8.228 1.22395 8.28 1.06795 8.28 0.875951C8.28 0.747951 8.268 0.615951 8.244 0.479951C8.22 0.343952 8.188 0.223951 8.148 0.119951L8.64 -4.99687e-05C8.688 0.13595 8.732 0.303951 8.772 0.503952C8.812 0.703952 8.832 0.875951 8.832 1.01995C8.832 1.35595 8.732 1.62795 8.532 1.83595C8.324 2.03595 8.048 2.13595 7.704 2.13595L-1.24277e-06 2.13595Z" fill="white"/>
</svg>
