<svg width="40" height="40" viewBox="0 0 40 40" fill="none" xmlns="http://www.w3.org/2000/svg">
<rect x="40" y="40" width="40" height="40" rx="20" transform="rotate(180 40 40)" fill="white" fill-opacity="0.1"/>
<path fill-rule="evenodd" clip-rule="evenodd" d="M19.1936 25.0753L19.1381 25.1381C18.8978 25.3784 18.5196 25.3969 18.2581 25.1935L18.1953 25.1381L13.5286 20.4714L13.501 20.4421L13.4642 20.3969L13.4165 20.3227L13.3808 20.2476L13.3572 20.1773L13.338 20.0787L13.3334 20L13.3352 19.9499L13.3468 19.8662L13.3665 19.7919L13.3958 19.7179L13.4307 19.6529L13.4798 19.583L13.5286 19.5286L18.1953 14.8619C18.4556 14.6016 18.8777 14.6016 19.1381 14.8619C19.3784 15.1023 19.3969 15.4804 19.1935 15.7419L19.1381 15.8047L15.6107 19.3333L26 19.3333C26.3682 19.3333 26.6667 19.6318 26.6667 20C26.6667 20.3682 26.3682 20.6667 26 20.6667L15.6094 20.6667L19.1381 24.1953C19.3784 24.4356 19.3969 24.8137 19.1936 25.0753L19.1381 25.1381L19.1936 25.0753Z" fill="white"/>
</svg>
