<svg width="40" height="40" viewBox="0 0 40 40" fill="none" xmlns="http://www.w3.org/2000/svg">
<rect width="40" height="40" rx="20" fill="white" fill-opacity="0.1"/>
<path fill-rule="evenodd" clip-rule="evenodd" d="M20.8064 14.9247L20.8619 14.8619C21.1022 14.6216 21.4804 14.6031 21.7419 14.8065L21.8047 14.8619L26.4714 19.5286L26.499 19.5579L26.5358 19.6031L26.5835 19.6773L26.6192 19.7524L26.6427 19.8227L26.662 19.9213L26.6666 20L26.6648 20.0501L26.6532 20.1338L26.6335 20.2081L26.6042 20.2821L26.5693 20.3471L26.5202 20.417L26.4714 20.4714L21.8047 25.1381C21.5444 25.3984 21.1223 25.3984 20.8619 25.1381C20.6216 24.8977 20.6031 24.5196 20.8064 24.2581L20.8619 24.1953L24.3893 20.6667H14C13.6318 20.6667 13.3333 20.3682 13.3333 20C13.3333 19.6318 13.6318 19.3333 14 19.3333H24.3906L20.8619 15.8047C20.6216 15.5644 20.6031 15.1863 20.8064 14.9247L20.8619 14.8619L20.8064 14.9247Z" fill="white"/>
</svg>
