<svg width="36" height="34" viewBox="0 0 36 34" fill="none" xmlns="http://www.w3.org/2000/svg">
<path d="M32.8494 26.914L31.6877 28.0757L28.4674 24.8514L29.6251 23.6936L27.9497 22.0183L25.6303 24.3377L15.0959 13.8034C16.3043 12.2184 16.8693 10.2353 16.6775 8.2515C16.4857 6.26765 15.5515 4.42953 14.0619 3.10537C12.5722 1.7812 10.6372 1.06881 8.64459 1.11089C6.65194 1.15298 4.74877 1.94643 3.31637 3.33231C1.88397 4.71818 1.02811 6.59412 0.920276 8.58429C0.812439 10.5745 1.46059 12.5319 2.73486 14.0644C4.00913 15.597 5.81542 16.5914 7.79185 16.8485C9.76829 17.1057 11.7689 16.6066 13.3929 15.4511L30.85 32.9003L34.8449 28.9055L32.8494 26.914ZM6.56491 9.03013C6.14898 9.03012 5.74241 8.90674 5.39663 8.67558C5.05085 8.44442 4.7814 8.11588 4.62242 7.73153C4.46343 7.34719 4.42204 6.92431 4.50347 6.51643C4.5849 6.10855 4.78554 5.73398 5.07992 5.44015C5.3743 5.14632 5.7492 4.94644 6.15724 4.86578C6.56527 4.78511 6.98807 4.8273 7.37212 4.98702C7.75616 5.14673 8.08421 5.41678 8.31472 5.76299C8.54522 6.1092 8.66785 6.51602 8.66707 6.93195C8.66707 7.20782 8.61267 7.48096 8.50698 7.73578C8.40129 7.9906 8.24637 8.22208 8.05111 8.41697C7.85586 8.61185 7.6241 8.76632 7.36908 8.87153C7.11406 8.97674 6.84078 9.03065 6.56491 9.03013Z" stroke="white" stroke-miterlimit="10"/>
</svg>
