<svg width="46" height="31" viewBox="0 0 46 31" fill="none" xmlns="http://www.w3.org/2000/svg">
<g filter="url(#filter0_d_321:888)">
<path d="M22.8854 11.8374C25.8904 11.8374 28.3264 9.40135 28.3264 6.39635C28.3264 3.39136 25.8904 0.955322 22.8854 0.955322C19.8804 0.955322 17.4443 3.39136 17.4443 6.39635C17.4443 9.40135 19.8804 11.8374 22.8854 11.8374Z" stroke="white" stroke-miterlimit="10"/>
<path d="M14.3863 22.6206C14.3516 21.4831 14.5457 20.3503 14.957 19.2893C15.3683 18.2283 15.9885 17.2606 16.7808 16.4438C17.5731 15.627 18.5214 14.9775 19.5694 14.5341C20.6174 14.0906 21.7437 13.8621 22.8817 13.8621C24.0197 13.8621 25.1461 14.0906 26.1941 14.5341C27.2421 14.9775 28.1903 15.627 28.9826 16.4438C29.7749 17.2606 30.3951 18.2283 30.8064 19.2893C31.2178 20.3503 31.4118 21.4831 31.3772 22.6206" stroke="white" stroke-miterlimit="10"/>
<path d="M10.8258 8.85422C13.0037 8.85422 14.7693 7.08867 14.7693 4.91075C14.7693 2.73283 13.0037 0.967285 10.8258 0.967285C8.64787 0.967285 6.88232 2.73283 6.88232 4.91075C6.88232 7.08867 8.64787 8.85422 10.8258 8.85422Z" stroke="white" stroke-miterlimit="10"/>
<path d="M4.66943 16.666C4.66943 15.0333 5.31802 13.4674 6.47253 12.3129C7.62705 11.1584 9.19291 10.5098 10.8256 10.5098C12.4584 10.5098 14.0242 11.1584 15.1788 12.3129C16.3333 13.4674 16.9819 15.0333 16.9819 16.666" stroke="white" stroke-miterlimit="10"/>
<path d="M34.9171 8.85422C37.095 8.85422 38.8606 7.08867 38.8606 4.91075C38.8606 2.73283 37.095 0.967285 34.9171 0.967285C32.7392 0.967285 30.9736 2.73283 30.9736 4.91075C30.9736 7.08867 32.7392 8.85422 34.9171 8.85422Z" stroke="white" stroke-miterlimit="10"/>
<path d="M28.7612 16.6658C28.8019 15.0595 29.4686 13.5328 30.619 12.4111C31.7695 11.2894 33.3127 10.6616 34.9194 10.6616C36.5262 10.6616 38.0694 11.2894 39.2198 12.4111C40.3703 13.5328 41.037 15.0595 41.0777 16.6658" stroke="white" stroke-miterlimit="10"/>
</g>
<defs>
<filter id="filter0_d_321:888" x="0.169434" y="0.455322" width="45.4081" height="30.1804" filterUnits="userSpaceOnUse" color-interpolation-filters="sRGB">
<feFlood flood-opacity="0" result="BackgroundImageFix"/>
<feColorMatrix in="SourceAlpha" type="matrix" values="0 0 0 0 0 0 0 0 0 0 0 0 0 0 0 0 0 0 127 0" result="hardAlpha"/>
<feOffset dy="4"/>
<feGaussianBlur stdDeviation="2"/>
<feComposite in2="hardAlpha" operator="out"/>
<feColorMatrix type="matrix" values="0 0 0 0 0 0 0 0 0 0 0 0 0 0 0 0 0 0 0.25 0"/>
<feBlend mode="normal" in2="BackgroundImageFix" result="effect1_dropShadow_321:888"/>
<feBlend mode="normal" in="SourceGraphic" in2="effect1_dropShadow_321:888" result="shape"/>
</filter>
</defs>
</svg>
