<svg width="52" height="52" viewBox="0 0 52 52" fill="none" xmlns="http://www.w3.org/2000/svg">
<path d="M26.6797 38.2493C32.3602 38.2493 36.9651 33.6444 36.9651 27.9639C36.9651 22.2834 32.3602 17.6785 26.6797 17.6785C20.9992 17.6785 16.3943 22.2834 16.3943 27.9639C16.3943 33.6444 20.9992 38.2493 26.6797 38.2493Z" stroke="white" stroke-miterlimit="10"/>
<path d="M28.6038 15.3234L28.6038 12.5338L31.5673 12.5338L31.5673 10.0681L21.8075 10.0681L21.8075 12.5338L24.7512 12.5338L24.7512 15.3234C21.563 15.8091 18.6758 17.4813 16.668 20.0051C14.6602 22.529 13.68 25.7182 13.9235 28.934C14.1671 32.1499 15.6165 35.155 17.9815 37.3477C20.3465 39.5404 23.4525 40.7587 26.6775 40.7587C29.9026 40.7587 33.0086 39.5404 35.3736 37.3477C37.7386 35.155 39.188 32.1499 39.4315 28.934C39.6751 25.7182 38.6948 22.529 36.687 20.0051C34.6792 17.4813 31.7921 15.8091 28.6038 15.3234V15.3234Z" stroke="white" stroke-miterlimit="10"/>
<path d="M26.6796 21.12C27.055 21.12 27.3593 20.8441 27.3593 20.5036C27.3593 20.1632 27.055 19.8872 26.6796 19.8872C26.3043 19.8872 26 20.1632 26 20.5036C26 20.8441 26.3043 21.12 26.6796 21.12Z" fill="white"/>
<path d="M23.257 22.0352C23.5821 21.8475 23.7076 21.4564 23.5374 21.1615C23.3672 20.8667 22.9656 20.7799 22.6406 20.9676C22.3155 21.1552 22.19 21.5464 22.3602 21.8412C22.5304 22.136 22.9319 22.2229 23.257 22.0352Z" fill="white"/>
<path d="M20.912 24.6075C21.0997 24.281 21.0118 23.8784 20.7157 23.7082C20.4196 23.5381 20.0274 23.6648 19.8398 23.9913C19.6521 24.3178 19.7401 24.7205 20.0361 24.8906C20.3322 25.0608 20.7244 24.9341 20.912 24.6075Z" fill="white"/>
<path d="M19.2194 28.6434C19.5599 28.6434 19.8359 28.3392 19.8359 27.9638C19.8359 27.5885 19.5599 27.2842 19.2194 27.2842C18.879 27.2842 18.603 27.5885 18.603 27.9638C18.603 28.3392 18.879 28.6434 19.2194 28.6434Z" fill="white"/>
<path d="M20.5582 32.2805C20.853 32.1104 20.9397 31.7089 20.7521 31.3839C20.5644 31.0589 20.1734 30.9333 19.8787 31.1035C19.5839 31.2737 19.4971 31.6751 19.6847 32.0001C19.8724 32.3252 20.2635 32.4507 20.5582 32.2805Z" fill="white"/>
<path d="M23.5391 34.7669C23.7093 34.4721 23.5838 34.0809 23.2587 33.8933C22.9336 33.7056 22.5321 33.7925 22.3619 34.0873C22.1917 34.3821 22.3172 34.7732 22.6423 34.9609C22.9673 35.1486 23.3689 35.0618 23.5391 34.7669Z" fill="white"/>
<path d="M26.6796 36.0404C27.055 36.0404 27.3593 35.7645 27.3593 35.424C27.3593 35.0836 27.055 34.8076 26.6796 34.8076C26.3043 34.8076 26 35.0836 26 35.424C26 35.7645 26.3043 36.0404 26.6796 36.0404Z" fill="white"/>
<path d="M30.7196 34.9593C31.0447 34.7716 31.1702 34.3804 31 34.0856C30.8298 33.7908 30.4283 33.704 30.1032 33.8916C29.7782 34.0793 29.6526 34.4704 29.8228 34.7653C29.9931 35.0601 30.3946 35.147 30.7196 34.9593Z" fill="white"/>
<path d="M33.4787 31.9742C33.6663 31.6477 33.5784 31.2451 33.2823 31.0749C32.9863 30.9047 32.5941 31.0315 32.4064 31.358C32.2188 31.6845 32.3067 32.0872 32.6028 32.2573C32.8989 32.4275 33.291 32.3008 33.4787 31.9742Z" fill="white"/>
<path d="M34.1399 28.6434C34.4803 28.6434 34.7563 28.3392 34.7563 27.9638C34.7563 27.5885 34.4803 27.2842 34.1399 27.2842C33.7994 27.2842 33.5234 27.5885 33.5234 27.9638C33.5234 28.3392 33.7994 28.6434 34.1399 28.6434Z" fill="white"/>
<path d="M33.4788 24.8201C33.7736 24.6499 33.8604 24.2485 33.6727 23.9235C33.4851 23.5984 33.094 23.4729 32.7993 23.6431C32.5045 23.8132 32.4177 24.2147 32.6054 24.5397C32.7931 24.8647 33.1841 24.9903 33.4788 24.8201Z" fill="white"/>
<path d="M30.9575 22.0159C31.1278 21.7197 31.001 21.3275 30.6745 21.1398C30.3479 20.9521 29.9452 21.0401 29.775 21.3363C29.6048 21.6325 29.7315 22.0247 30.0581 22.2124C30.3846 22.4 30.7873 22.3121 30.9575 22.0159Z" fill="white"/>
<path d="M26.6797 27.9639L26.6797 22.7007" stroke="white" stroke-miterlimit="10"/>
</svg>
