<svg width="52" height="52" viewBox="0 0 52 52" fill="none" xmlns="http://www.w3.org/2000/svg">
<path d="M26 7.33374V44.2435" stroke="white" stroke-miterlimit="10"/>
<path d="M16.7144 9.823L35.1712 41.7856" stroke="white" stroke-miterlimit="10"/>
<path d="M9.91797 16.6194L41.8845 35.0723" stroke="white" stroke-miterlimit="10"/>
<path d="M7.43237 25.9011H44.3421" stroke="white" stroke-miterlimit="10"/>
<path d="M9.91797 35.1868L41.8845 16.73" stroke="white" stroke-miterlimit="10"/>
<path d="M16.7144 41.9832L35.1712 10.0166" stroke="white" stroke-miterlimit="10"/>
<path d="M25.8853 41.9832C34.8741 41.9832 42.161 34.6964 42.161 25.7076C42.161 16.7188 34.8741 9.43188 25.8853 9.43188C16.8965 9.43188 9.60962 16.7188 9.60962 25.7076C9.60962 34.6964 16.8965 41.9832 25.8853 41.9832Z" stroke="white" stroke-miterlimit="10"/>
<path d="M25.8854 36.3487C31.7623 36.3487 36.5265 31.5846 36.5265 25.7077C36.5265 19.8308 31.7623 15.0667 25.8854 15.0667C20.0085 15.0667 15.2444 19.8308 15.2444 25.7077C15.2444 31.5846 20.0085 36.3487 25.8854 36.3487Z" stroke="white" stroke-miterlimit="10"/>
</svg>
