<svg width="121" height="16" viewBox="0 0 121 16" fill="none" xmlns="http://www.w3.org/2000/svg">
<path d="M17.3866 16H28.9948V13.013H20.8947V9.34941H27.6106V6.35991H20.8947V2.987H29.0436V0H17.3866V16ZM42.9709 10.0711L35.3665 0H30.1299L31.7607 2.02475V16.0501H35.2663V5.54299L43.1198 16H46.479V0H42.9709V10.0711ZM12.1013 7.76821C13.6422 7.48003 14.9263 6.08175 14.9263 4.10713C14.916 1.97463 13.3366 0 10.1751 0H0L1.57943 1.97463V16.0075H10.5296C13.6936 16.0075 15.3218 14.0805 15.3218 11.6699C15.2627 9.68771 13.8682 8.00125 12.1013 7.76821ZM5.08757 3.00705H9.48431C10.6708 3.00705 11.4104 3.68363 11.4104 4.6935C11.4104 5.70337 10.6708 6.37995 9.48431 6.37995H5.08757V3.00705ZM9.63069 13.0305H5.08757V9.34941H9.63069C10.9661 9.34941 11.7058 10.1688 11.7058 11.1812C11.7058 12.3364 10.9148 13.013 9.63069 13.013V13.0305ZM97.799 10.0711H99.6276V11.953C98.6818 12.7171 97.4962 13.1416 96.2684 13.1558C93.3535 13.1558 91.281 10.9883 91.281 8.04887C91.281 5.10948 93.3535 2.93939 96.2684 2.93939C97.0175 2.94544 97.7532 3.13378 98.4088 3.48734C99.0644 3.84089 99.6193 4.34849 100.023 4.96414L102.789 3.46061C101.605 1.63884 99.5274 0 96.2196 0C91.5763 0 87.724 3.13234 87.724 8.00125C87.724 12.8702 91.5275 16 96.2196 16C97.4867 16.0205 98.7434 15.7726 99.9028 15.2734C101.062 14.7741 102.097 14.0354 102.935 13.1082V7.18183H95.4286L97.799 10.0711ZM81.9944 10.0711L74.3875 0H69.1509L70.7817 2.02475V16.0501H74.2899V5.54299L82.1434 16H85.5V0H81.9944V10.0711ZM114.541 0H107.776L109.405 2.02475L109.109 2.79405L103.873 16.0501H107.825L108.853 13.3488H115.928L116.955 16.0501H120.905L114.541 0ZM109.754 10.3142L112.322 3.42052L114.89 10.3142H109.754ZM63.6191 0H67.1272V16.0501H63.6191V0ZM60.8043 2.74644V0H48.4539V2.987H56.2099L48.4539 13.2536V16H60.9533V13.013H52.9996L60.8043 2.74644Z" fill="white"/>
</svg>
