<svg width="30" height="30" viewBox="0 0 30 30" fill="none" xmlns="http://www.w3.org/2000/svg">
    <path d="M15 0C6.71561 0 0 6.71584 0 15C0 23.2846 6.71561 30 15 30C23.2844 30 30 23.2846 30 15C30 6.71584 23.2844 0 15 0ZM15 22.5C13.9644 22.5 13.125 21.6609 13.125 20.625C13.125 19.5895 13.9644 18.75 15 18.75C16.0356 18.75 16.875 19.5895 16.875 20.625C16.875 21.6609 16.0356 22.5 15 22.5ZM16.875 15.9375H13.125L12.1875 8.4375C12.1875 7.91977 12.6073 7.5 13.125 7.5H16.875C17.3927 7.5 17.8125 7.91977 17.8125 8.4375L16.875 15.9375Z" fill="#F3BA2F"/>
</svg>
