<svg viewBox="0 0 512 512" fill="none" xmlns="http://www.w3.org/2000/svg">
    <path d="M72 314C102.928 314 128 288.928 128 258C128 227.072 102.928 202 72 202C41.0721 202 16 227.072 16 258C16 288.928 41.0721 314 72 314Z" fill="#57A4FF"/>
    <path d="M440 314C470.928 314 496 288.928 496 258C496 227.072 470.928 202 440 202C409.072 202 384 227.072 384 258C384 288.928 409.072 314 440 314Z" fill="#57A4FF"/>
    <path d="M256 192C243.342 192 230.968 195.754 220.444 202.786C209.919 209.818 201.716 219.814 196.872 231.508C192.028 243.203 190.76 256.071 193.23 268.486C195.699 280.901 201.795 292.304 210.745 301.255C219.696 310.205 231.099 316.301 243.514 318.77C255.929 321.24 268.797 319.972 280.492 315.128C292.186 310.284 302.182 302.081 309.214 291.556C316.246 281.032 320 268.658 320 256C319.981 239.032 313.232 222.764 301.234 210.766C289.236 198.768 272.968 192.019 256 192V192ZM256 304C246.507 304 237.226 301.185 229.333 295.911C221.439 290.636 215.287 283.14 211.654 274.369C208.021 265.598 207.07 255.947 208.922 246.636C210.774 237.325 215.346 228.772 222.059 222.059C228.772 215.346 237.325 210.774 246.636 208.922C255.947 207.07 265.598 208.021 274.369 211.654C283.14 215.287 290.636 221.439 295.911 229.333C301.185 237.226 304 246.506 304 256C303.985 268.726 298.924 280.926 289.925 289.925C280.926 298.924 268.726 303.985 256 304Z" fill="#004FAC"/>
    <path d="M72 192C59.342 192 46.9683 195.754 36.4435 202.786C25.9188 209.818 17.7157 219.814 12.8717 231.508C8.02773 243.203 6.76032 256.071 9.22977 268.486C11.6992 280.901 17.7946 292.304 26.7452 301.255C35.6958 310.205 47.0995 316.301 59.5143 318.77C71.929 321.24 84.7973 319.972 96.4918 315.128C108.186 310.284 118.182 302.081 125.214 291.556C132.246 281.032 136 268.658 136 256C135.981 239.032 129.232 222.764 117.234 210.766C105.236 198.768 88.968 192.019 72 192V192ZM72 304C62.5065 304 53.2262 301.185 45.3327 295.911C37.4391 290.636 31.2868 283.14 27.6538 274.369C24.0208 265.598 23.0702 255.947 24.9223 246.636C26.7744 237.325 31.346 228.772 38.0589 222.059C44.7718 215.346 53.3246 210.774 62.6357 208.922C71.9468 207.07 81.598 208.021 90.3688 211.654C99.1397 215.287 106.636 221.439 111.911 229.333C117.185 237.226 120 246.506 120 256C119.985 268.726 114.924 280.926 105.925 289.925C96.9265 298.924 84.726 303.985 72 304V304Z" fill="#004FAC"/>
    <path d="M440 192C427.342 192 414.968 195.754 404.444 202.786C393.919 209.818 385.716 219.814 380.872 231.508C376.028 243.203 374.76 256.071 377.23 268.486C379.699 280.901 385.795 292.304 394.745 301.255C403.696 310.205 415.099 316.301 427.514 318.77C439.929 321.24 452.797 319.972 464.492 315.128C476.186 310.284 486.182 302.081 493.214 291.556C500.246 281.032 504 268.658 504 256C503.981 239.032 497.232 222.764 485.234 210.766C473.236 198.768 456.968 192.019 440 192V192ZM440 304C430.507 304 421.226 301.185 413.333 295.911C405.439 290.636 399.287 283.14 395.654 274.369C392.021 265.598 391.07 255.947 392.922 246.636C394.774 237.325 399.346 228.772 406.059 222.059C412.772 215.346 421.325 210.774 430.636 208.922C439.947 207.07 449.598 208.021 458.369 211.654C467.14 215.287 474.636 221.439 479.911 229.333C485.185 237.226 488 246.506 488 256C487.985 268.726 482.924 280.926 473.925 289.925C464.926 298.924 452.726 303.985 440 304Z" fill="#004FAC"/>
</svg>
