<?xml version="1.0" encoding="utf-8"?>
<!-- Generator: Adobe Illustrator 25.2.0, SVG Export Plug-In . SVG Version: 6.00 Build 0)  -->
<svg version="1.1" id="Слой_1" xmlns="http://www.w3.org/2000/svg" xmlns:xlink="http://www.w3.org/1999/xlink" x="0px" y="0px"
	 viewBox="0 0 47.4 43.1" style="enable-background:new 0 0 47.4 43.1;" xml:space="preserve">
<style type="text/css">
	.st0{fill:none;stroke:url(#SVGID_1_);stroke-width:3;}
</style>
<linearGradient id="SVGID_1_" gradientUnits="userSpaceOnUse" x1="-15.1687" y1="38.8172" x2="57.341" y2="12.1775" gradientTransform="matrix(1 0 0 -1 0 43.951)">
	<stop  offset="0" style="stop-color:#0066FF"/>
	<stop  offset="1" style="stop-color:#12AAFF"/>
</linearGradient>
<path class="st0" d="M12.8,2.7L9.4,1.6c-0.3-0.1-0.7,0-0.9,0.2l-2.7,3C5.7,4.9,5.6,5.1,5.6,5.4L6,12.7c0,0.1,0,0.2,0,0.3L1.6,29.4
	c-0.1,0.4,0.1,0.7,0.4,0.9l18.4,11.1c0.1,0.1,0.3,0.1,0.4,0.1h5.9c0.2,0,0.3,0,0.4-0.1l18.4-11.1c0.3-0.2,0.5-0.6,0.4-0.9L41.5,13
	c0-0.1,0-0.2,0-0.3l0.4-7.3c0-0.2-0.1-0.4-0.2-0.6l-2.7-3c-0.2-0.2-0.6-0.3-0.9-0.2l-3.4,1.1c-0.2,0.1-0.3,0.2-0.4,0.3L31,7.4
	c-0.2,0.3-0.5,0.4-0.9,0.3l-6.3-1.4c-0.1,0-0.2,0-0.4,0l-6.3,1.4c-0.3,0.1-0.7-0.1-0.9-0.3L13.3,3C13.2,2.9,13,2.8,12.8,2.7z"/>
</svg>
