<svg width="42" height="38" fill="none" xmlns="http://www.w3.org/2000/svg"><g clip-path="url(#clip0)"><path d="M1.703 0l13.771 1.823 2.19 8.211L1.703 0z" fill="#D67C36"/><path d="M4.289 16.4l7.965-2.111 5.41-4.255L1.703 0 0 5.198l2.069 5.625-.974.914 1.491.638-.883.88 1.336.913-.729.698L4.29 16.4z" fill="#6E4020"/><path d="M2.752 23.168l1.537-6.769 7.965-2.11-2.205 5.504 3.923 7.116-4.655-.914-6.565-2.827z" fill="#E78B3A"/><path d="M13.33 29.687H5.76l-3.008-6.52 6.565 2.828 4.013 3.692z" fill="#D67C36"/><path d="M13.972 26.909l-.642 2.778-4.013-3.692 4.655.914z" fill="#BF672D"/><path d="M10.05 19.793l3.28 3.601.642 3.515-3.923-7.116z" fill="#D67C36"/><path d="M12.254 14.289l5.41-4.255.777 10.854-8.392-1.095 2.205-5.504z" fill="#D67C36"/><path d="M13.33 23.394l4.107 2.005 1.004-4.511-8.392-1.095 3.28 3.601z" fill="#BF672D"/><path d="M13.33 29.687l4.334 6.705.502-2.918-4.836-3.787z" fill="#D3C2B5"/><path d="M13.972 26.909l-.642 2.779 4.836 3.786-4.194-6.565z" fill="#D67C36"/><path d="M17.437 25.399l.729 8.075.275-12.586-1.004 4.51z" fill="#D67C36"/><path d="M15.474 1.823h5.474v31.65h-2.782l.275-12.585-.777-10.854-2.19-8.21z" fill="#E78B3A"/><path d="M17.664 36.392h3.284v-2.918h-2.782l-.502 2.918z" fill="#161616"/><path d="M18.166 37.6l-.502-1.208h3.284V37.6h-2.782z" fill="#D3C2B5"/><path d="M13.33 23.394l2.284-.925 1.823 2.93-4.107-2.005z" fill="#283346"/><path d="M13.33 23.394l.642 3.515 4.194 6.565-.729-8.075-4.107-2.005z" fill="#E78B3A"/><path d="M39.51 0L25.735 1.823l-2.186 8.211L39.51 0z" fill="#D67C36"/><path d="M36.924 16.4l-7.965-2.111-5.41-4.255L39.51 0l1.703 5.198-2.069 5.625.974.914-1.491.638.883.88-1.34.913.733.698-1.979 1.533z" fill="#6E4020"/><path d="M38.46 23.168l-1.536-6.769-7.965-2.11 2.204 5.504-3.922 7.116 4.651-.914 6.569-2.827z" fill="#E78B3A"/><path d="M27.88 29.687h7.572l3.009-6.52-6.569 2.828-4.013 3.692z" fill="#D67C36"/><path d="M27.241 26.909l.638 2.778 4.013-3.692-4.65.914z" fill="#BF672D"/><path d="M31.163 19.793l-3.284 3.601-.638 3.515 3.922-7.116zM28.959 14.289l-5.41-4.255-.778 10.854 8.392-1.095-2.204-5.504z" fill="#D67C36"/><path d="M27.88 23.394L23.775 25.4l-1.005-4.511 8.392-1.095-3.284 3.601z" fill="#BF672D"/><path d="M27.88 29.687l-4.33 6.705-.503-2.918 4.832-3.787z" fill="#D3C2B5"/><path d="M27.241 26.909l.638 2.779-4.832 3.786 4.194-6.565z" fill="#D67C36"/><path d="M23.776 25.399l-.729 8.075-.276-12.586 1.005 4.51z" fill="#D67C36"/><path d="M25.735 1.823h-5.47v31.65h2.782l-.276-12.585.778-10.854 2.186-8.21z" fill="#E78B3A"/><path d="M23.55 36.392h-3.285v-2.918h2.782l.502 2.918z" fill="#161616"/><path d="M23.047 37.6l.502-1.208h-3.284V37.6h2.782z" fill="#D3C2B5"/><path d="M27.88 23.394l-2.281-.925-1.823 2.93 4.103-2.005z" fill="#283346"/><path d="M27.88 23.394l-.639 3.515-4.194 6.565.729-8.075 4.103-2.005z" fill="#E78B3A"/></g><defs><clipPath id="clip0"><path fill="#fff" d="M0 0h41.213v37.6H0z"/></clipPath></defs></svg>
