<svg width="24" height="24" viewBox="0 0 24 24" stroke="none"
     xmlns="http://www.w3.org/2000/svg">
    <path d="M12 20C16.4183 20 20 16.4183 20 12C20 7.58172 16.4183 4 12 4C7.58172 4 4 7.58172 4 12C4 16.4183 7.58172 20 12 20Z"/>
    <path d="M12.7436 12.3002C12.7265 12.7535 12.4616 13 12 13C11.5214 13 11.2564 12.7455 11.2394 12.3002L11.0001 9C10.983 8.53877 11.4616 8 11.9915 8C12.5129 8 13.0172 8.53082 13.0001 9L12.7436 12.3002Z"
          fill="white"/>
    <path d="M13.0001 15C13.0001 15.5089 12.547 16 12 16C11.453 16 11.0001 15.501 11.0001 15C11.0001 14.507 11.4445 14 12 14C12.5556 14 13.0001 14.499 13.0001 15Z"
          fill="white"/>
</svg>
